<?xml version="1.0" encoding="UTF-8" standalone="no"?>
<!DOCTYPE svg PUBLIC "-//W3C//DTD SVG 1.1//EN"
 "http://www.w3.org/Graphics/SVG/1.1/DTD/svg11.dtd">
<!-- Generated by graphviz version 14.1.2 (0)
 -->
<!-- Pages: 1 -->
<svg width="701pt" height="1691pt"
 viewBox="0.00 0.00 701.00 1691.00" xmlns="http://www.w3.org/2000/svg" xmlns:xlink="http://www.w3.org/1999/xlink">
<g id="graph0" class="graph" transform="scale(1 1) rotate(0) translate(4 1687)">
<polygon fill="white" stroke="none" points="-4,4 -4,-1687 696.5,-1687 696.5,4 -4,4"/>
<!-- nmr&#45;seminar -->
<g id="node1" class="node">
<title>nmr&#45;seminar</title>
<g id="a_node1"><a xlink:href="https://github.com/plops/nmr-seminar" xlink:title="nmr&#45;seminar">
<path fill="none" stroke="blue" d="M583.75,-1683C583.75,-1683 489,-1683 489,-1683 483,-1683 477,-1677 477,-1671 477,-1671 477,-1659 477,-1659 477,-1653 483,-1647 489,-1647 489,-1647 583.75,-1647 583.75,-1647 589.75,-1647 595.75,-1653 595.75,-1659 595.75,-1659 595.75,-1671 595.75,-1671 595.75,-1677 589.75,-1683 583.75,-1683"/>
<text xml:space="preserve" text-anchor="middle" x="536.38" y="-1659.55" font-family="Helvetica,sans-Serif" font-size="16.00">nmr&#45;seminar</text>
</a>
</g>
</g>
<!-- cl_nbdev_test -->
<g id="node2" class="node">
<title>cl_nbdev_test</title>
<g id="a_node2"><a xlink:href="https://github.com/plops/cl_nbdev_test" xlink:title="cl_nbdev_test">
<path fill="none" stroke="blue" d="M587.88,-1622C587.88,-1622 484.88,-1622 484.88,-1622 478.88,-1622 472.88,-1616 472.88,-1610 472.88,-1610 472.88,-1598 472.88,-1598 472.88,-1592 478.88,-1586 484.88,-1586 484.88,-1586 587.88,-1586 587.88,-1586 593.88,-1586 599.88,-1592 599.88,-1598 599.88,-1598 599.88,-1610 599.88,-1610 599.88,-1616 593.88,-1622 587.88,-1622"/>
<text xml:space="preserve" text-anchor="middle" x="536.38" y="-1598.55" font-family="Helvetica,sans-Serif" font-size="16.00">cl_nbdev_test</text>
</a>
</g>
</g>
<!-- right&#45;hand&#45;mirror&#45;keyboard -->
<g id="node3" class="node">
<title>right&#45;hand&#45;mirror&#45;keyboard</title>
<g id="a_node3"><a xlink:href="https://github.com/plops/right-hand-mirror-keyboard" xlink:title="right&#45;hand&#45;mirror&#45;keyboard">
<path fill="none" stroke="blue" d="M642.25,-1561C642.25,-1561 430.5,-1561 430.5,-1561 424.5,-1561 418.5,-1555 418.5,-1549 418.5,-1549 418.5,-1537 418.5,-1537 418.5,-1531 424.5,-1525 430.5,-1525 430.5,-1525 642.25,-1525 642.25,-1525 648.25,-1525 654.25,-1531 654.25,-1537 654.25,-1537 654.25,-1549 654.25,-1549 654.25,-1555 648.25,-1561 642.25,-1561"/>
<text xml:space="preserve" text-anchor="middle" x="536.38" y="-1537.55" font-family="Helvetica,sans-Serif" font-size="16.00">right&#45;hand&#45;mirror&#45;keyboard</text>
</a>
</g>
</g>
<!-- pages -->
<g id="node4" class="node">
<title>pages</title>
<g id="a_node4"><a xlink:href="https://github.com/plops/pages" xlink:title="pages">
<path fill="none" stroke="blue" d="M556.75,-1500C556.75,-1500 516,-1500 516,-1500 510,-1500 504,-1494 504,-1488 504,-1488 504,-1476 504,-1476 504,-1470 510,-1464 516,-1464 516,-1464 556.75,-1464 556.75,-1464 562.75,-1464 568.75,-1470 568.75,-1476 568.75,-1476 568.75,-1488 568.75,-1488 568.75,-1494 562.75,-1500 556.75,-1500"/>
<text xml:space="preserve" text-anchor="middle" x="536.38" y="-1476.55" font-family="Helvetica,sans-Serif" font-size="16.00">pages</text>
</a>
</g>
</g>
<!-- slide&#45;tag -->
<g id="node5" class="node">
<title>slide&#45;tag</title>
<g id="a_node5"><a xlink:href="https://github.com/plops/slide-tag" xlink:title="slide&#45;tag">
<path fill="none" stroke="blue" d="M567.25,-1439C567.25,-1439 505.5,-1439 505.5,-1439 499.5,-1439 493.5,-1433 493.5,-1427 493.5,-1427 493.5,-1415 493.5,-1415 493.5,-1409 499.5,-1403 505.5,-1403 505.5,-1403 567.25,-1403 567.25,-1403 573.25,-1403 579.25,-1409 579.25,-1415 579.25,-1415 579.25,-1427 579.25,-1427 579.25,-1433 573.25,-1439 567.25,-1439"/>
<text xml:space="preserve" text-anchor="middle" x="536.38" y="-1415.55" font-family="Helvetica,sans-Serif" font-size="16.00">slide&#45;tag</text>
</a>
</g>
</g>
<!-- github&#45;repo&#45;traffic&#45;stats -->
<g id="node6" class="node">
<title>github&#45;repo&#45;traffic&#45;stats</title>
<g id="a_node6"><a xlink:href="https://github.com/plops/github-repo-traffic-stats" xlink:title="github&#45;repo&#45;traffic&#45;stats">
<path fill="none" stroke="blue" d="M628.38,-1378C628.38,-1378 444.38,-1378 444.38,-1378 438.38,-1378 432.38,-1372 432.38,-1366 432.38,-1366 432.38,-1354 432.38,-1354 432.38,-1348 438.38,-1342 444.38,-1342 444.38,-1342 628.38,-1342 628.38,-1342 634.38,-1342 640.38,-1348 640.38,-1354 640.38,-1354 640.38,-1366 640.38,-1366 640.38,-1372 634.38,-1378 628.38,-1378"/>
<text xml:space="preserve" text-anchor="middle" x="536.38" y="-1354.55" font-family="Helvetica,sans-Serif" font-size="16.00">github&#45;repo&#45;traffic&#45;stats</text>
</a>
</g>
</g>
<!-- dotemacs -->
<g id="node7" class="node">
<title>dotemacs</title>
<g id="a_node7"><a xlink:href="https://github.com/plops/dotemacs" xlink:title="dotemacs">
<path fill="none" stroke="blue" d="M571.75,-1317C571.75,-1317 501,-1317 501,-1317 495,-1317 489,-1311 489,-1305 489,-1305 489,-1293 489,-1293 489,-1287 495,-1281 501,-1281 501,-1281 571.75,-1281 571.75,-1281 577.75,-1281 583.75,-1287 583.75,-1293 583.75,-1293 583.75,-1305 583.75,-1305 583.75,-1311 577.75,-1317 571.75,-1317"/>
<text xml:space="preserve" text-anchor="middle" x="536.38" y="-1293.55" font-family="Helvetica,sans-Serif" font-size="16.00">dotemacs</text>
</a>
</g>
</g>
<!-- thesis&#45;review -->
<g id="node8" class="node">
<title>thesis&#45;review</title>
<g id="a_node8"><a xlink:href="https://github.com/plops/thesis-review" xlink:title="thesis&#45;review">
<path fill="none" stroke="blue" d="M585.25,-1256C585.25,-1256 487.5,-1256 487.5,-1256 481.5,-1256 475.5,-1250 475.5,-1244 475.5,-1244 475.5,-1232 475.5,-1232 475.5,-1226 481.5,-1220 487.5,-1220 487.5,-1220 585.25,-1220 585.25,-1220 591.25,-1220 597.25,-1226 597.25,-1232 597.25,-1232 597.25,-1244 597.25,-1244 597.25,-1250 591.25,-1256 585.25,-1256"/>
<text xml:space="preserve" text-anchor="middle" x="536.38" y="-1232.55" font-family="Helvetica,sans-Serif" font-size="16.00">thesis&#45;review</text>
</a>
</g>
</g>
<!-- retreat&#45;doc -->
<g id="node9" class="node">
<title>retreat&#45;doc</title>
<g id="a_node9"><a xlink:href="https://github.com/plops/retreat-doc" xlink:title="retreat&#45;doc">
<path fill="none" stroke="blue" d="M576.62,-1195C576.62,-1195 496.12,-1195 496.12,-1195 490.12,-1195 484.12,-1189 484.12,-1183 484.12,-1183 484.12,-1171 484.12,-1171 484.12,-1165 490.12,-1159 496.12,-1159 496.12,-1159 576.62,-1159 576.62,-1159 582.62,-1159 588.62,-1165 588.62,-1171 588.62,-1171 588.62,-1183 588.62,-1183 588.62,-1189 582.62,-1195 576.62,-1195"/>
<text xml:space="preserve" text-anchor="middle" x="536.38" y="-1171.55" font-family="Helvetica,sans-Serif" font-size="16.00">retreat&#45;doc</text>
</a>
</g>
</g>
<!-- relat -->
<g id="node10" class="node">
<title>relat</title>
<g id="a_node10"><a xlink:href="https://github.com/plops/relat" xlink:title="relat">
<path fill="none" stroke="blue" d="M551.38,-1134C551.38,-1134 521.38,-1134 521.38,-1134 515.38,-1134 509.38,-1128 509.38,-1122 509.38,-1122 509.38,-1110 509.38,-1110 509.38,-1104 515.38,-1098 521.38,-1098 521.38,-1098 551.38,-1098 551.38,-1098 557.38,-1098 563.38,-1104 563.38,-1110 563.38,-1110 563.38,-1122 563.38,-1122 563.38,-1128 557.38,-1134 551.38,-1134"/>
<text xml:space="preserve" text-anchor="middle" x="536.38" y="-1110.55" font-family="Helvetica,sans-Serif" font-size="16.00">relat</text>
</a>
</g>
</g>
<!-- phys_chem_versuch10 -->
<g id="node11" class="node">
<title>phys_chem_versuch10</title>
<g id="a_node11"><a xlink:href="https://github.com/plops/phys_chem_versuch10" xlink:title="phys_chem_versuch10">
<path fill="none" stroke="blue" d="M625.38,-1073C625.38,-1073 447.38,-1073 447.38,-1073 441.38,-1073 435.38,-1067 435.38,-1061 435.38,-1061 435.38,-1049 435.38,-1049 435.38,-1043 441.38,-1037 447.38,-1037 447.38,-1037 625.38,-1037 625.38,-1037 631.38,-1037 637.38,-1043 637.38,-1049 637.38,-1049 637.38,-1061 637.38,-1061 637.38,-1067 631.38,-1073 625.38,-1073"/>
<text xml:space="preserve" text-anchor="middle" x="536.38" y="-1049.55" font-family="Helvetica,sans-Serif" font-size="16.00">phys_chem_versuch10</text>
</a>
</g>
</g>
<!-- kielhorn -->
<g id="node12" class="node">
<title>kielhorn</title>
<g id="a_node12"><a xlink:href="https://github.com/plops/kielhorn" xlink:title="kielhorn">
<path fill="none" stroke="blue" d="M564.62,-1012C564.62,-1012 508.12,-1012 508.12,-1012 502.12,-1012 496.12,-1006 496.12,-1000 496.12,-1000 496.12,-988 496.12,-988 496.12,-982 502.12,-976 508.12,-976 508.12,-976 564.62,-976 564.62,-976 570.62,-976 576.62,-982 576.62,-988 576.62,-988 576.62,-1000 576.62,-1000 576.62,-1006 570.62,-1012 564.62,-1012"/>
<text xml:space="preserve" text-anchor="middle" x="536.38" y="-988.55" font-family="Helvetica,sans-Serif" font-size="16.00">kielhorn</text>
</a>
</g>
</g>
<!-- dokdok2012 -->
<g id="node13" class="node">
<title>dokdok2012</title>
<g id="a_node13"><a xlink:href="https://github.com/plops/dokdok2012" xlink:title="dokdok2012">
<path fill="none" stroke="blue" d="M582.62,-951C582.62,-951 490.12,-951 490.12,-951 484.12,-951 478.12,-945 478.12,-939 478.12,-939 478.12,-927 478.12,-927 478.12,-921 484.12,-915 490.12,-915 490.12,-915 582.62,-915 582.62,-915 588.62,-915 594.62,-921 594.62,-927 594.62,-927 594.62,-939 594.62,-939 594.62,-945 588.62,-951 582.62,-951"/>
<text xml:space="preserve" text-anchor="middle" x="536.38" y="-927.55" font-family="Helvetica,sans-Serif" font-size="16.00">dokdok2012</text>
</a>
</g>
</g>
<!-- clem&#45;sim -->
<g id="node14" class="node">
<title>clem&#45;sim</title>
<g id="a_node14"><a xlink:href="https://github.com/plops/clem-sim" xlink:title="clem&#45;sim">
<path fill="none" stroke="blue" d="M569.12,-890C569.12,-890 503.62,-890 503.62,-890 497.62,-890 491.62,-884 491.62,-878 491.62,-878 491.62,-866 491.62,-866 491.62,-860 497.62,-854 503.62,-854 503.62,-854 569.12,-854 569.12,-854 575.12,-854 581.12,-860 581.12,-866 581.12,-866 581.12,-878 581.12,-878 581.12,-884 575.12,-890 569.12,-890"/>
<text xml:space="preserve" text-anchor="middle" x="536.38" y="-866.55" font-family="Helvetica,sans-Serif" font-size="16.00">clem&#45;sim</text>
</a>
</g>
</g>
<!-- learn_emacs_completion -->
<g id="node15" class="node">
<title>learn_emacs_completion</title>
<g id="a_node15"><a xlink:href="https://github.com/plops/learn_emacs_completion" xlink:title="learn_emacs_completion">
<path fill="none" stroke="blue" d="M632.12,-829C632.12,-829 440.62,-829 440.62,-829 434.62,-829 428.62,-823 428.62,-817 428.62,-817 428.62,-805 428.62,-805 428.62,-799 434.62,-793 440.62,-793 440.62,-793 632.12,-793 632.12,-793 638.12,-793 644.12,-799 644.12,-805 644.12,-805 644.12,-817 644.12,-817 644.12,-823 638.12,-829 632.12,-829"/>
<text xml:space="preserve" text-anchor="middle" x="536.38" y="-805.55" font-family="Helvetica,sans-Serif" font-size="16.00">learn_emacs_completion</text>
</a>
</g>
</g>
<!-- virology_2025 -->
<g id="node16" class="node">
<title>virology_2025</title>
<g id="a_node16"><a xlink:href="https://github.com/plops/virology_2025" xlink:title="virology_2025">
<path fill="none" stroke="blue" d="M589.75,-768C589.75,-768 483,-768 483,-768 477,-768 471,-762 471,-756 471,-756 471,-744 471,-744 471,-738 477,-732 483,-732 483,-732 589.75,-732 589.75,-732 595.75,-732 601.75,-738 601.75,-744 601.75,-744 601.75,-756 601.75,-756 601.75,-762 595.75,-768 589.75,-768"/>
<text xml:space="preserve" text-anchor="middle" x="536.38" y="-744.55" font-family="Helvetica,sans-Serif" font-size="16.00">virology_2025</text>
</a>
</g>
</g>
<!-- try_gh_actions -->
<g id="node17" class="node">
<title>try_gh_actions</title>
<g id="a_node17"><a xlink:href="https://github.com/plops/try_gh_actions" xlink:title="try_gh_actions">
<path fill="none" stroke="blue" d="M591.25,-707C591.25,-707 481.5,-707 481.5,-707 475.5,-707 469.5,-701 469.5,-695 469.5,-695 469.5,-683 469.5,-683 469.5,-677 475.5,-671 481.5,-671 481.5,-671 591.25,-671 591.25,-671 597.25,-671 603.25,-677 603.25,-683 603.25,-683 603.25,-695 603.25,-695 603.25,-701 597.25,-707 591.25,-707"/>
<text xml:space="preserve" text-anchor="middle" x="536.38" y="-683.55" font-family="Helvetica,sans-Serif" font-size="16.00">try_gh_actions</text>
</a>
</g>
</g>
<!-- sapkowski_in_english -->
<g id="node18" class="node">
<title>sapkowski_in_english</title>
<g id="a_node18"><a xlink:href="https://github.com/plops/sapkowski_in_english" xlink:title="sapkowski_in_english">
<path fill="none" stroke="blue" d="M618.25,-646C618.25,-646 454.5,-646 454.5,-646 448.5,-646 442.5,-640 442.5,-634 442.5,-634 442.5,-622 442.5,-622 442.5,-616 448.5,-610 454.5,-610 454.5,-610 618.25,-610 618.25,-610 624.25,-610 630.25,-616 630.25,-622 630.25,-622 630.25,-634 630.25,-634 630.25,-640 624.25,-646 618.25,-646"/>
<text xml:space="preserve" text-anchor="middle" x="536.38" y="-622.55" font-family="Helvetica,sans-Serif" font-size="16.00">sapkowski_in_english</text>
</a>
</g>
</g>
<!-- plops.github.com -->
<g id="node19" class="node">
<title>plops.github.com</title>
<g id="a_node19"><a xlink:href="https://github.com/plops/plops.github.com" xlink:title="plops.github.com">
<path fill="none" stroke="blue" d="M602.88,-585C602.88,-585 469.88,-585 469.88,-585 463.88,-585 457.88,-579 457.88,-573 457.88,-573 457.88,-561 457.88,-561 457.88,-555 463.88,-549 469.88,-549 469.88,-549 602.88,-549 602.88,-549 608.88,-549 614.88,-555 614.88,-561 614.88,-561 614.88,-573 614.88,-573 614.88,-579 608.88,-585 602.88,-585"/>
<text xml:space="preserve" text-anchor="middle" x="536.38" y="-561.55" font-family="Helvetica,sans-Serif" font-size="16.00">plops.github.com</text>
</a>
</g>
</g>
<!-- phd_thesis_final -->
<g id="node20" class="node">
<title>phd_thesis_final</title>
<g id="a_node20"><a xlink:href="https://github.com/plops/phd_thesis_final" xlink:title="phd_thesis_final">
<path fill="none" stroke="blue" d="M597.25,-524C597.25,-524 475.5,-524 475.5,-524 469.5,-524 463.5,-518 463.5,-512 463.5,-512 463.5,-500 463.5,-500 463.5,-494 469.5,-488 475.5,-488 475.5,-488 597.25,-488 597.25,-488 603.25,-488 609.25,-494 609.25,-500 609.25,-500 609.25,-512 609.25,-512 609.25,-518 603.25,-524 597.25,-524"/>
<text xml:space="preserve" text-anchor="middle" x="536.38" y="-500.55" font-family="Helvetica,sans-Serif" font-size="16.00">phd_thesis_final</text>
</a>
</g>
</g>
<!-- olisun_psych -->
<g id="node21" class="node">
<title>olisun_psych</title>
<g id="a_node21"><a xlink:href="https://github.com/plops/olisun_psych" xlink:title="olisun_psych">
<path fill="none" stroke="blue" d="M584.5,-463C584.5,-463 488.25,-463 488.25,-463 482.25,-463 476.25,-457 476.25,-451 476.25,-451 476.25,-439 476.25,-439 476.25,-433 482.25,-427 488.25,-427 488.25,-427 584.5,-427 584.5,-427 590.5,-427 596.5,-433 596.5,-439 596.5,-439 596.5,-451 596.5,-451 596.5,-457 590.5,-463 584.5,-463"/>
<text xml:space="preserve" text-anchor="middle" x="536.38" y="-439.55" font-family="Helvetica,sans-Serif" font-size="16.00">olisun_psych</text>
</a>
</g>
</g>
<!-- mbti -->
<g id="node22" class="node">
<title>mbti</title>
<g id="a_node22"><a xlink:href="https://github.com/plops/mbti" xlink:title="mbti">
<path fill="none" stroke="blue" d="M551.38,-402C551.38,-402 521.38,-402 521.38,-402 515.38,-402 509.38,-396 509.38,-390 509.38,-390 509.38,-378 509.38,-378 509.38,-372 515.38,-366 521.38,-366 521.38,-366 551.38,-366 551.38,-366 557.38,-366 563.38,-372 563.38,-378 563.38,-378 563.38,-390 563.38,-390 563.38,-396 557.38,-402 551.38,-402"/>
<text xml:space="preserve" text-anchor="middle" x="536.38" y="-378.55" font-family="Helvetica,sans-Serif" font-size="16.00">mbti</text>
</a>
</g>
</g>
<!-- hypermedia&#45;systems&#45;book&#45;summary -->
<g id="node23" class="node">
<title>hypermedia&#45;systems&#45;book&#45;summary</title>
<g id="a_node23"><a xlink:href="https://github.com/plops/hypermedia-systems-book-summary" xlink:title="hypermedia&#45;systems&#45;book&#45;summary">
<path fill="none" stroke="blue" d="M680.5,-341C680.5,-341 392.25,-341 392.25,-341 386.25,-341 380.25,-335 380.25,-329 380.25,-329 380.25,-317 380.25,-317 380.25,-311 386.25,-305 392.25,-305 392.25,-305 680.5,-305 680.5,-305 686.5,-305 692.5,-311 692.5,-317 692.5,-317 692.5,-329 692.5,-329 692.5,-335 686.5,-341 680.5,-341"/>
<text xml:space="preserve" text-anchor="middle" x="536.38" y="-317.55" font-family="Helvetica,sans-Serif" font-size="16.00">hypermedia&#45;systems&#45;book&#45;summary</text>
</a>
</g>
</g>
<!-- diploma_thesis -->
<g id="node24" class="node">
<title>diploma_thesis</title>
<g id="a_node24"><a xlink:href="https://github.com/plops/diploma_thesis" xlink:title="diploma_thesis">
<path fill="none" stroke="blue" d="M592.75,-280C592.75,-280 480,-280 480,-280 474,-280 468,-274 468,-268 468,-268 468,-256 468,-256 468,-250 474,-244 480,-244 480,-244 592.75,-244 592.75,-244 598.75,-244 604.75,-250 604.75,-256 604.75,-256 604.75,-268 604.75,-268 604.75,-274 598.75,-280 592.75,-280"/>
<text xml:space="preserve" text-anchor="middle" x="536.38" y="-256.55" font-family="Helvetica,sans-Serif" font-size="16.00">diploma_thesis</text>
</a>
</g>
</g>
<!-- chinesisch&#45;lernen -->
<g id="node25" class="node">
<title>chinesisch&#45;lernen</title>
<g id="a_node25"><a xlink:href="https://github.com/plops/chinesisch-lernen" xlink:title="chinesisch&#45;lernen">
<path fill="none" stroke="blue" d="M603.25,-219C603.25,-219 469.5,-219 469.5,-219 463.5,-219 457.5,-213 457.5,-207 457.5,-207 457.5,-195 457.5,-195 457.5,-189 463.5,-183 469.5,-183 469.5,-183 603.25,-183 603.25,-183 609.25,-183 615.25,-189 615.25,-195 615.25,-195 615.25,-207 615.25,-207 615.25,-213 609.25,-219 603.25,-219"/>
<text xml:space="preserve" text-anchor="middle" x="536.38" y="-195.55" font-family="Helvetica,sans-Serif" font-size="16.00">chinesisch&#45;lernen</text>
</a>
</g>
</g>
<!-- BasicEnglishDeutschCesky -->
<g id="node26" class="node">
<title>BasicEnglishDeutschCesky</title>
<g id="a_node26"><a xlink:href="https://github.com/plops/BasicEnglishDeutschCesky" xlink:title="BasicEnglishDeutschCesky">
<path fill="none" stroke="blue" d="M640,-158C640,-158 432.75,-158 432.75,-158 426.75,-158 420.75,-152 420.75,-146 420.75,-146 420.75,-134 420.75,-134 420.75,-128 426.75,-122 432.75,-122 432.75,-122 640,-122 640,-122 646,-122 652,-128 652,-134 652,-134 652,-146 652,-146 652,-152 646,-158 640,-158"/>
<text xml:space="preserve" text-anchor="middle" x="536.38" y="-134.55" font-family="Helvetica,sans-Serif" font-size="16.00">BasicEnglishDeutschCesky</text>
</a>
</g>
</g>
<!-- learn_ada_simple_task -->
<g id="node27" class="node">
<title>learn_ada_simple_task</title>
<g id="a_node27"><a xlink:href="https://github.com/plops/learn_ada_simple_task" xlink:title="learn_ada_simple_task">
<path fill="none" stroke="blue" d="M623.12,-97C623.12,-97 449.62,-97 449.62,-97 443.62,-97 437.62,-91 437.62,-85 437.62,-85 437.62,-73 437.62,-73 437.62,-67 443.62,-61 449.62,-61 449.62,-61 623.12,-61 623.12,-61 629.12,-61 635.12,-67 635.12,-73 635.12,-73 635.12,-85 635.12,-85 635.12,-91 629.12,-97 623.12,-97"/>
<text xml:space="preserve" text-anchor="middle" x="536.38" y="-73.55" font-family="Helvetica,sans-Serif" font-size="16.00">learn_ada_simple_task</text>
</a>
</g>
</g>
<!-- ada_recall_fosdem2019 -->
<g id="node28" class="node">
<title>ada_recall_fosdem2019</title>
<g id="a_node28"><a xlink:href="https://github.com/plops/ada_recall_fosdem2019" xlink:title="ada_recall_fosdem2019">
<path fill="none" stroke="blue" d="M628.38,-36C628.38,-36 444.38,-36 444.38,-36 438.38,-36 432.38,-30 432.38,-24 432.38,-24 432.38,-12 432.38,-12 432.38,-6 438.38,0 444.38,0 444.38,0 628.38,0 628.38,0 634.38,0 640.38,-6 640.38,-12 640.38,-12 640.38,-24 640.38,-24 640.38,-30 634.38,-36 628.38,-36"/>
<text xml:space="preserve" text-anchor="middle" x="536.38" y="-12.55" font-family="Helvetica,sans-Serif" font-size="16.00">ada_recall_fosdem2019</text>
</a>
</g>
</g>
<!-- docs&#45;meta/web -->
<g id="node29" class="node">
<title>docs&#45;meta/web</title>
<path fill="none" stroke="black" d="M298,-1622C298,-1622 183,-1622 183,-1622 177,-1622 171,-1616 171,-1610 171,-1610 171,-1598 171,-1598 171,-1592 177,-1586 183,-1586 183,-1586 298,-1586 298,-1586 304,-1586 310,-1592 310,-1598 310,-1598 310,-1610 310,-1610 310,-1616 304,-1622 298,-1622"/>
<text xml:space="preserve" text-anchor="middle" x="240.5" y="-1598.55" font-family="Helvetica,sans-Serif" font-size="16.00">docs&#45;meta/web</text>
</g>
<!-- docs&#45;meta/web&#45;&gt;nmr&#45;seminar -->
<g id="edge37" class="edge">
<title>docs&#45;meta/web&#45;&gt;nmr&#45;seminar</title>
<path fill="none" stroke="black" d="M310.23,-1619.77C332.53,-1624.77 357.42,-1630.24 380.25,-1635 408.84,-1640.96 440.48,-1647.15 467.69,-1652.35"/>
<polygon fill="black" stroke="black" points="466.86,-1655.04 475.25,-1653.79 467.91,-1649.54 466.86,-1655.04"/>
</g>
<!-- docs&#45;meta/web&#45;&gt;cl_nbdev_test -->
<g id="edge36" class="edge">
<title>docs&#45;meta/web&#45;&gt;cl_nbdev_test</title>
<path fill="none" stroke="black" d="M310.4,-1604C356.27,-1604 416.43,-1604 463,-1604"/>
<polygon fill="black" stroke="black" points="462.91,-1606.8 470.91,-1604 462.91,-1601.2 462.91,-1606.8"/>
</g>
<!-- docs&#45;meta/unknown -->
<g id="node30" class="node">
<title>docs&#45;meta/unknown</title>
<path fill="none" stroke="black" d="M318.25,-1558C318.25,-1558 162.75,-1558 162.75,-1558 156.75,-1558 150.75,-1552 150.75,-1546 150.75,-1546 150.75,-1534 150.75,-1534 150.75,-1528 156.75,-1522 162.75,-1522 162.75,-1522 318.25,-1522 318.25,-1522 324.25,-1522 330.25,-1528 330.25,-1534 330.25,-1534 330.25,-1546 330.25,-1546 330.25,-1552 324.25,-1558 318.25,-1558"/>
<text xml:space="preserve" text-anchor="middle" x="240.5" y="-1534.55" font-family="Helvetica,sans-Serif" font-size="16.00">docs&#45;meta/unknown</text>
</g>
<!-- docs&#45;meta/unknown&#45;&gt;right&#45;hand&#45;mirror&#45;keyboard -->
<g id="edge35" class="edge">
<title>docs&#45;meta/unknown&#45;&gt;right&#45;hand&#45;mirror&#45;keyboard</title>
<path fill="none" stroke="black" d="M330.47,-1540.91C355.18,-1541.16 382.49,-1541.44 408.9,-1541.71"/>
<polygon fill="black" stroke="black" points="408.66,-1544.51 416.69,-1541.79 408.72,-1538.91 408.66,-1544.51"/>
</g>
<!-- docs&#45;meta/shell -->
<g id="node31" class="node">
<title>docs&#45;meta/shell</title>
<path fill="none" stroke="black" d="M300.25,-1493C300.25,-1493 180.75,-1493 180.75,-1493 174.75,-1493 168.75,-1487 168.75,-1481 168.75,-1481 168.75,-1469 168.75,-1469 168.75,-1463 174.75,-1457 180.75,-1457 180.75,-1457 300.25,-1457 300.25,-1457 306.25,-1457 312.25,-1463 312.25,-1469 312.25,-1469 312.25,-1481 312.25,-1481 312.25,-1487 306.25,-1493 300.25,-1493"/>
<text xml:space="preserve" text-anchor="middle" x="240.5" y="-1469.55" font-family="Helvetica,sans-Serif" font-size="16.00">docs&#45;meta/shell</text>
</g>
<!-- docs&#45;meta/shell&#45;&gt;pages -->
<g id="edge34" class="edge">
<title>docs&#45;meta/shell&#45;&gt;pages</title>
<path fill="none" stroke="black" d="M312.64,-1476.69C369.53,-1478.05 447.3,-1479.9 494.29,-1481.02"/>
<polygon fill="black" stroke="black" points="493.97,-1483.81 502.04,-1481.21 494.11,-1478.22 493.97,-1483.81"/>
</g>
<!-- docs&#45;meta/rust -->
<g id="node32" class="node">
<title>docs&#45;meta/rust</title>
<path fill="none" stroke="black" d="M297.25,-1424C297.25,-1424 183.75,-1424 183.75,-1424 177.75,-1424 171.75,-1418 171.75,-1412 171.75,-1412 171.75,-1400 171.75,-1400 171.75,-1394 177.75,-1388 183.75,-1388 183.75,-1388 297.25,-1388 297.25,-1388 303.25,-1388 309.25,-1394 309.25,-1400 309.25,-1400 309.25,-1412 309.25,-1412 309.25,-1418 303.25,-1424 297.25,-1424"/>
<text xml:space="preserve" text-anchor="middle" x="240.5" y="-1400.55" font-family="Helvetica,sans-Serif" font-size="16.00">docs&#45;meta/rust</text>
</g>
<!-- docs&#45;meta/rust&#45;&gt;slide&#45;tag -->
<g id="edge33" class="edge">
<title>docs&#45;meta/rust&#45;&gt;slide&#45;tag</title>
<path fill="none" stroke="black" d="M309.66,-1409.48C362.75,-1412.19 435.33,-1415.89 483.7,-1418.36"/>
<polygon fill="black" stroke="black" points="483.39,-1421.15 491.52,-1418.76 483.68,-1415.56 483.39,-1421.15"/>
</g>
<!-- docs&#45;meta/python -->
<g id="node33" class="node">
<title>docs&#45;meta/python</title>
<path fill="none" stroke="black" d="M310,-1348C310,-1348 171,-1348 171,-1348 165,-1348 159,-1342 159,-1336 159,-1336 159,-1324 159,-1324 159,-1318 165,-1312 171,-1312 171,-1312 310,-1312 310,-1312 316,-1312 322,-1318 322,-1324 322,-1324 322,-1336 322,-1336 322,-1342 316,-1348 310,-1348"/>
<text xml:space="preserve" text-anchor="middle" x="240.5" y="-1324.55" font-family="Helvetica,sans-Serif" font-size="16.00">docs&#45;meta/python</text>
</g>
<!-- docs&#45;meta/python&#45;&gt;github&#45;repo&#45;traffic&#45;stats -->
<g id="edge32" class="edge">
<title>docs&#45;meta/python&#45;&gt;github&#45;repo&#45;traffic&#45;stats</title>
<path fill="none" stroke="black" d="M322.19,-1338.24C353.18,-1341.4 389.13,-1345.07 422.59,-1348.49"/>
<polygon fill="black" stroke="black" points="422.2,-1351.26 430.45,-1349.29 422.77,-1345.69 422.2,-1351.26"/>
</g>
<!-- docs&#45;meta/python&#45;&gt;dotemacs -->
<g id="edge31" class="edge">
<title>docs&#45;meta/python&#45;&gt;dotemacs</title>
<path fill="none" stroke="black" d="M322.19,-1321.49C372.16,-1316.22 435.06,-1309.58 479.55,-1304.89"/>
<polygon fill="black" stroke="black" points="479.58,-1307.7 487.25,-1304.08 479,-1302.13 479.58,-1307.7"/>
</g>
<!-- docs&#45;meta/latex -->
<g id="node34" class="node">
<title>docs&#45;meta/latex</title>
<path fill="none" stroke="black" d="M301.38,-1104C301.38,-1104 179.62,-1104 179.62,-1104 173.62,-1104 167.62,-1098 167.62,-1092 167.62,-1092 167.62,-1080 167.62,-1080 167.62,-1074 173.62,-1068 179.62,-1068 179.62,-1068 301.38,-1068 301.38,-1068 307.38,-1068 313.38,-1074 313.38,-1080 313.38,-1080 313.38,-1092 313.38,-1092 313.38,-1098 307.38,-1104 301.38,-1104"/>
<text xml:space="preserve" text-anchor="middle" x="240.5" y="-1080.55" font-family="Helvetica,sans-Serif" font-size="16.00">docs&#45;meta/latex</text>
</g>
<!-- docs&#45;meta/latex&#45;&gt;thesis&#45;review -->
<g id="edge30" class="edge">
<title>docs&#45;meta/latex&#45;&gt;thesis&#45;review</title>
<path fill="none" stroke="black" d="M256.44,-1104.24C279.82,-1131.47 327.84,-1182.29 380.25,-1208 406.69,-1220.97 438.24,-1228.34 465.96,-1232.52"/>
<polygon fill="black" stroke="black" points="465.39,-1235.27 473.7,-1233.61 466.17,-1229.73 465.39,-1235.27"/>
</g>
<!-- docs&#45;meta/latex&#45;&gt;retreat&#45;doc -->
<g id="edge29" class="edge">
<title>docs&#45;meta/latex&#45;&gt;retreat&#45;doc</title>
<path fill="none" stroke="black" d="M277.45,-1104.47C304.97,-1117.94 344.21,-1135.75 380.25,-1147 410.73,-1156.52 445.56,-1163.58 474.49,-1168.46"/>
<polygon fill="black" stroke="black" points="473.82,-1171.18 482.17,-1169.72 474.73,-1165.66 473.82,-1171.18"/>
</g>
<!-- docs&#45;meta/latex&#45;&gt;relat -->
<g id="edge28" class="edge">
<title>docs&#45;meta/latex&#45;&gt;relat</title>
<path fill="none" stroke="black" d="M313.77,-1093.38C372.79,-1099.4 453.7,-1107.66 499.65,-1112.35"/>
<polygon fill="black" stroke="black" points="499.16,-1115.12 507.4,-1113.14 499.73,-1109.55 499.16,-1115.12"/>
</g>
<!-- docs&#45;meta/latex&#45;&gt;phys_chem_versuch10 -->
<g id="edge27" class="edge">
<title>docs&#45;meta/latex&#45;&gt;phys_chem_versuch10</title>
<path fill="none" stroke="black" d="M313.77,-1078.38C347.45,-1074.82 388.27,-1070.52 425.64,-1066.58"/>
<polygon fill="black" stroke="black" points="425.9,-1069.36 433.56,-1065.74 425.31,-1063.8 425.9,-1069.36"/>
</g>
<!-- docs&#45;meta/latex&#45;&gt;kielhorn -->
<g id="edge26" class="edge">
<title>docs&#45;meta/latex&#45;&gt;kielhorn</title>
<path fill="none" stroke="black" d="M277.47,-1067.6C305,-1054.16 344.24,-1036.37 380.25,-1025 415.14,-1013.99 455.73,-1006.04 486.63,-1000.95"/>
<polygon fill="black" stroke="black" points="486.95,-1003.74 494.4,-999.71 486.06,-998.21 486.95,-1003.74"/>
</g>
<!-- docs&#45;meta/latex&#45;&gt;dokdok2012 -->
<g id="edge25" class="edge">
<title>docs&#45;meta/latex&#45;&gt;dokdok2012</title>
<path fill="none" stroke="black" d="M256.46,-1067.8C279.87,-1040.62 327.92,-989.88 380.25,-964 407.46,-950.55 440.08,-942.93 468.37,-938.62"/>
<polygon fill="black" stroke="black" points="468.76,-941.39 476.29,-937.5 467.98,-935.85 468.76,-941.39"/>
</g>
<!-- docs&#45;meta/latex&#45;&gt;clem&#45;sim -->
<g id="edge24" class="edge">
<title>docs&#45;meta/latex&#45;&gt;clem&#45;sim</title>
<path fill="none" stroke="black" d="M254.8,-1067.75C287.83,-1022.51 371.59,-908.42 380.25,-903 410.65,-883.96 450.41,-876.28 482.06,-873.32"/>
<polygon fill="black" stroke="black" points="481.93,-876.14 489.67,-872.7 481.47,-870.56 481.93,-876.14"/>
</g>
<!-- docs&#45;meta/elisp -->
<g id="node35" class="node">
<title>docs&#45;meta/elisp</title>
<path fill="none" stroke="black" d="M300.25,-951C300.25,-951 180.75,-951 180.75,-951 174.75,-951 168.75,-945 168.75,-939 168.75,-939 168.75,-927 168.75,-927 168.75,-921 174.75,-915 180.75,-915 180.75,-915 300.25,-915 300.25,-915 306.25,-915 312.25,-921 312.25,-927 312.25,-927 312.25,-939 312.25,-939 312.25,-945 306.25,-951 300.25,-951"/>
<text xml:space="preserve" text-anchor="middle" x="240.5" y="-927.55" font-family="Helvetica,sans-Serif" font-size="16.00">docs&#45;meta/elisp</text>
</g>
<!-- docs&#45;meta/elisp&#45;&gt;learn_emacs_completion -->
<g id="edge23" class="edge">
<title>docs&#45;meta/elisp&#45;&gt;learn_emacs_completion</title>
<path fill="none" stroke="black" d="M263.54,-914.64C289.71,-893.81 335.47,-860.35 380.25,-842 392.54,-836.97 405.71,-832.73 419.01,-829.16"/>
<polygon fill="black" stroke="black" points="419.7,-831.88 426.75,-827.18 418.31,-826.45 419.7,-831.88"/>
</g>
<!-- docs&#45;meta/docs -->
<g id="node36" class="node">
<title>docs&#45;meta/docs</title>
<path fill="none" stroke="black" d="M300.25,-494C300.25,-494 180.75,-494 180.75,-494 174.75,-494 168.75,-488 168.75,-482 168.75,-482 168.75,-470 168.75,-470 168.75,-464 174.75,-458 180.75,-458 180.75,-458 300.25,-458 300.25,-458 306.25,-458 312.25,-464 312.25,-470 312.25,-470 312.25,-482 312.25,-482 312.25,-488 306.25,-494 300.25,-494"/>
<text xml:space="preserve" text-anchor="middle" x="240.5" y="-470.55" font-family="Helvetica,sans-Serif" font-size="16.00">docs&#45;meta/docs</text>
</g>
<!-- docs&#45;meta/docs&#45;&gt;virology_2025 -->
<g id="edge22" class="edge">
<title>docs&#45;meta/docs&#45;&gt;virology_2025</title>
<path fill="none" stroke="black" d="M246.16,-494.26C258.94,-540.33 299.08,-661.76 380.25,-720 403.58,-736.74 433.76,-744.8 461.29,-748.49"/>
<polygon fill="black" stroke="black" points="460.74,-751.25 469.01,-749.4 461.4,-745.68 460.74,-751.25"/>
</g>
<!-- docs&#45;meta/docs&#45;&gt;try_gh_actions -->
<g id="edge21" class="edge">
<title>docs&#45;meta/docs&#45;&gt;try_gh_actions</title>
<path fill="none" stroke="black" d="M249.72,-494.35C267.58,-531.94 313.73,-617.61 380.25,-659 403.9,-673.71 433.19,-681.47 459.92,-685.48"/>
<polygon fill="black" stroke="black" points="459.46,-688.25 467.76,-686.55 460.21,-682.7 459.46,-688.25"/>
</g>
<!-- docs&#45;meta/docs&#45;&gt;sapkowski_in_english -->
<g id="edge20" class="edge">
<title>docs&#45;meta/docs&#45;&gt;sapkowski_in_english</title>
<path fill="none" stroke="black" d="M256.44,-494.24C279.82,-521.47 327.84,-572.29 380.25,-598 396.65,-606.05 415.02,-611.94 433.22,-616.25"/>
<polygon fill="black" stroke="black" points="432.23,-618.9 440.65,-617.91 433.46,-613.43 432.23,-618.9"/>
</g>
<!-- docs&#45;meta/docs&#45;&gt;plops.github.com -->
<g id="edge19" class="edge">
<title>docs&#45;meta/docs&#45;&gt;plops.github.com</title>
<path fill="none" stroke="black" d="M277.45,-494.47C304.97,-507.94 344.21,-525.75 380.25,-537 402,-543.79 425.96,-549.33 448.42,-553.72"/>
<polygon fill="black" stroke="black" points="447.73,-556.44 456.11,-555.19 448.78,-550.94 447.73,-556.44"/>
</g>
<!-- docs&#45;meta/docs&#45;&gt;phd_thesis_final -->
<g id="edge18" class="edge">
<title>docs&#45;meta/docs&#45;&gt;phd_thesis_final</title>
<path fill="none" stroke="black" d="M312.64,-483.26C355.22,-487.61 409.5,-493.15 453.81,-497.67"/>
<polygon fill="black" stroke="black" points="453.36,-500.44 461.6,-498.47 453.93,-494.87 453.36,-500.44"/>
</g>
<!-- docs&#45;meta/docs&#45;&gt;olisun_psych -->
<g id="edge17" class="edge">
<title>docs&#45;meta/docs&#45;&gt;olisun_psych</title>
<path fill="none" stroke="black" d="M312.64,-468.5C359.36,-463.57 420.16,-457.15 466.44,-452.27"/>
<polygon fill="black" stroke="black" points="466.62,-455.07 474.28,-451.44 466.03,-449.5 466.62,-455.07"/>
</g>
<!-- docs&#45;meta/docs&#45;&gt;mbti -->
<g id="edge16" class="edge">
<title>docs&#45;meta/docs&#45;&gt;mbti</title>
<path fill="none" stroke="black" d="M277.47,-457.6C305,-444.16 344.24,-426.37 380.25,-415 420.36,-402.34 468,-393.73 499.8,-388.86"/>
<polygon fill="black" stroke="black" points="500.14,-391.64 507.64,-387.69 499.32,-386.1 500.14,-391.64"/>
</g>
<!-- docs&#45;meta/docs&#45;&gt;hypermedia&#45;systems&#45;book&#45;summary -->
<g id="edge15" class="edge">
<title>docs&#45;meta/docs&#45;&gt;hypermedia&#45;systems&#45;book&#45;summary</title>
<path fill="none" stroke="black" d="M256.46,-457.8C279.87,-430.62 327.92,-379.88 380.25,-354 387.49,-350.42 395.12,-347.25 402.95,-344.45"/>
<polygon fill="black" stroke="black" points="403.75,-347.13 410.43,-341.92 401.96,-341.83 403.75,-347.13"/>
</g>
<!-- docs&#45;meta/docs&#45;&gt;diploma_thesis -->
<g id="edge14" class="edge">
<title>docs&#45;meta/docs&#45;&gt;diploma_thesis</title>
<path fill="none" stroke="black" d="M249.74,-457.68C267.64,-420.15 313.86,-334.59 380.25,-293 403.46,-278.46 432.14,-270.54 458.49,-266.3"/>
<polygon fill="black" stroke="black" points="458.7,-269.09 466.2,-265.16 457.88,-263.55 458.7,-269.09"/>
</g>
<!-- docs&#45;meta/docs&#45;&gt;chinesisch&#45;lernen -->
<g id="edge13" class="edge">
<title>docs&#45;meta/docs&#45;&gt;chinesisch&#45;lernen</title>
<path fill="none" stroke="black" d="M246.18,-457.77C259.01,-411.77 299.26,-290.49 380.25,-232 399.81,-217.88 424.21,-209.79 447.82,-205.27"/>
<polygon fill="black" stroke="black" points="448.28,-208.03 455.68,-203.91 447.32,-202.52 448.28,-208.03"/>
</g>
<!-- docs&#45;meta/docs&#45;&gt;BasicEnglishDeutschCesky -->
<g id="edge12" class="edge">
<title>docs&#45;meta/docs&#45;&gt;BasicEnglishDeutschCesky</title>
<path fill="none" stroke="black" d="M244,-457.73C252.33,-404.27 284.31,-247.1 380.25,-171 389.68,-163.52 400.43,-157.69 411.77,-153.17"/>
<polygon fill="black" stroke="black" points="412.57,-155.86 419.12,-150.48 410.64,-150.6 412.57,-155.86"/>
</g>
<!-- docs&#45;meta/ada -->
<g id="node37" class="node">
<title>docs&#45;meta/ada</title>
<path fill="none" stroke="black" d="M296.5,-97C296.5,-97 184.5,-97 184.5,-97 178.5,-97 172.5,-91 172.5,-85 172.5,-85 172.5,-73 172.5,-73 172.5,-67 178.5,-61 184.5,-61 184.5,-61 296.5,-61 296.5,-61 302.5,-61 308.5,-67 308.5,-73 308.5,-73 308.5,-85 308.5,-85 308.5,-91 302.5,-97 296.5,-97"/>
<text xml:space="preserve" text-anchor="middle" x="240.5" y="-73.55" font-family="Helvetica,sans-Serif" font-size="16.00">docs&#45;meta/ada</text>
</g>
<!-- docs&#45;meta/ada&#45;&gt;learn_ada_simple_task -->
<g id="edge11" class="edge">
<title>docs&#45;meta/ada&#45;&gt;learn_ada_simple_task</title>
<path fill="none" stroke="black" d="M308.92,-79C344.14,-79 388.08,-79 427.86,-79"/>
<polygon fill="black" stroke="black" points="427.83,-81.8 435.83,-79 427.83,-76.2 427.83,-81.8"/>
</g>
<!-- docs&#45;meta/ada&#45;&gt;ada_recall_fosdem2019 -->
<g id="edge10" class="edge">
<title>docs&#45;meta/ada&#45;&gt;ada_recall_fosdem2019</title>
<path fill="none" stroke="black" d="M308.85,-64.22C331.52,-59.3 356.97,-53.84 380.25,-49 397.19,-45.48 415.2,-41.81 432.71,-38.28"/>
<polygon fill="black" stroke="black" points="433.04,-41.07 440.33,-36.75 431.93,-35.58 433.04,-41.07"/>
</g>
<!-- docs&#45;meta -->
<g id="node38" class="node">
<title>docs&#45;meta</title>
<path fill="none" stroke="black" d="M88.75,-1348C88.75,-1348 12,-1348 12,-1348 6,-1348 0,-1342 0,-1336 0,-1336 0,-1324 0,-1324 0,-1318 6,-1312 12,-1312 12,-1312 88.75,-1312 88.75,-1312 94.75,-1312 100.75,-1318 100.75,-1324 100.75,-1324 100.75,-1336 100.75,-1336 100.75,-1342 94.75,-1348 88.75,-1348"/>
<text xml:space="preserve" text-anchor="middle" x="50.38" y="-1324.55" font-family="Helvetica,sans-Serif" font-size="16.00">docs&#45;meta</text>
</g>
<!-- docs&#45;meta&#45;&gt;docs&#45;meta/web -->
<g id="edge9" class="edge">
<title>docs&#45;meta&#45;&gt;docs&#45;meta/web</title>
<path fill="none" stroke="black" d="M53.84,-1348.18C60.78,-1392.47 84.49,-1507.03 150.75,-1571 154.61,-1574.73 158.94,-1578.05 163.54,-1580.99"/>
<polygon fill="black" stroke="black" points="161.88,-1583.27 170.21,-1584.85 164.69,-1578.42 161.88,-1583.27"/>
</g>
<!-- docs&#45;meta&#45;&gt;docs&#45;meta/unknown -->
<g id="edge8" class="edge">
<title>docs&#45;meta&#45;&gt;docs&#45;meta/unknown</title>
<path fill="none" stroke="black" d="M57.06,-1348.42C68.86,-1383.8 99.32,-1461.67 150.75,-1506 155.73,-1510.3 161.32,-1514.08 167.2,-1517.4"/>
<polygon fill="black" stroke="black" points="165.63,-1519.74 174.02,-1520.96 168.22,-1514.78 165.63,-1519.74"/>
</g>
<!-- docs&#45;meta&#45;&gt;docs&#45;meta/shell -->
<g id="edge7" class="edge">
<title>docs&#45;meta&#45;&gt;docs&#45;meta/shell</title>
<path fill="none" stroke="black" d="M64.63,-1348.49C82.11,-1371.76 114.89,-1411.75 150.75,-1437 159.04,-1442.84 168.37,-1448.04 177.78,-1452.57"/>
<polygon fill="black" stroke="black" points="176.6,-1455.12 185.04,-1455.92 178.95,-1450.03 176.6,-1455.12"/>
</g>
<!-- docs&#45;meta&#45;&gt;docs&#45;meta/rust -->
<g id="edge6" class="edge">
<title>docs&#45;meta&#45;&gt;docs&#45;meta/rust</title>
<path fill="none" stroke="black" d="M96.91,-1348.4C123.52,-1359.15 157.26,-1372.78 185.24,-1384.08"/>
<polygon fill="black" stroke="black" points="183.86,-1386.54 192.32,-1386.94 185.96,-1381.35 183.86,-1386.54"/>
</g>
<!-- docs&#45;meta&#45;&gt;docs&#45;meta/python -->
<g id="edge5" class="edge">
<title>docs&#45;meta&#45;&gt;docs&#45;meta/python</title>
<path fill="none" stroke="black" d="M100.8,-1330C115.77,-1330 132.71,-1330 149.48,-1330"/>
<polygon fill="black" stroke="black" points="149.25,-1332.8 157.25,-1330 149.25,-1327.2 149.25,-1332.8"/>
</g>
<!-- docs&#45;meta&#45;&gt;docs&#45;meta/latex -->
<g id="edge4" class="edge">
<title>docs&#45;meta&#45;&gt;docs&#45;meta/latex</title>
<path fill="none" stroke="black" d="M65.51,-1311.66C98.69,-1268.63 181.59,-1161.11 219.73,-1111.64"/>
<polygon fill="black" stroke="black" points="221.86,-1113.46 224.53,-1105.42 217.43,-1110.04 221.86,-1113.46"/>
</g>
<!-- docs&#45;meta&#45;&gt;docs&#45;meta/elisp -->
<g id="edge3" class="edge">
<title>docs&#45;meta&#45;&gt;docs&#45;meta/elisp</title>
<path fill="none" stroke="black" d="M56.12,-1311.64C68.21,-1266.48 102.61,-1147.03 150.75,-1056 169.86,-1019.87 198.42,-982.34 217.94,-958.39"/>
<polygon fill="black" stroke="black" points="220.06,-960.23 222.98,-952.27 215.73,-956.67 220.06,-960.23"/>
</g>
<!-- docs&#45;meta&#45;&gt;docs&#45;meta/docs -->
<g id="edge2" class="edge">
<title>docs&#45;meta&#45;&gt;docs&#45;meta/docs</title>
<path fill="none" stroke="black" d="M55.39,-1311.77C79.44,-1202.58 204.35,-635.56 233.44,-503.51"/>
<polygon fill="black" stroke="black" points="236.13,-504.32 235.12,-495.9 230.66,-503.11 236.13,-504.32"/>
</g>
<!-- docs&#45;meta&#45;&gt;docs&#45;meta/ada -->
<g id="edge1" class="edge">
<title>docs&#45;meta&#45;&gt;docs&#45;meta/ada</title>
<path fill="none" stroke="black" d="M52.59,-1311.52C58.88,-1218.34 89.91,-790.87 150.75,-446 173.45,-317.32 214.61,-166.52 231.72,-106.07"/>
<polygon fill="black" stroke="black" points="234.34,-107.08 233.84,-98.61 228.95,-105.54 234.34,-107.08"/>
</g>
</g>
</svg>
