<?xml version="1.0" encoding="UTF-8" standalone="no"?>
<!DOCTYPE svg PUBLIC "-//W3C//DTD SVG 1.1//EN"
 "http://www.w3.org/Graphics/SVG/1.1/DTD/svg11.dtd">
<!-- Generated by graphviz version 2.44.0 (0)
 -->
<!-- Pages: 1 -->
<svg width="4454pt" height="404pt"
 viewBox="0.00 0.00 4454.09 404.00" xmlns="http://www.w3.org/2000/svg" xmlns:xlink="http://www.w3.org/1999/xlink">
<g id="graph0" class="graph" transform="scale(1 1) rotate(0) translate(4 400)">
<polygon fill="white" stroke="transparent" points="-4,4 -4,-400 4450.09,-400 4450.09,4 -4,4"/>
<!-- concur_chan -->
<g id="node1" class="node">
<title>concur_chan</title>
<ellipse fill="none" stroke="black" cx="446.8" cy="-162" rx="67.69" ry="18"/>
<text text-anchor="middle" x="446.8" y="-158.3" font-family="Times-Roman" font-size="14.00">concur_chan</text>
</g>
<!-- gogrpc -->
<g id="node2" class="node">
<title>gogrpc</title>
<ellipse fill="none" stroke="black" cx="227.8" cy="-162" rx="42.49" ry="18"/>
<text text-anchor="middle" x="227.8" y="-158.3" font-family="Times-Roman" font-size="14.00">gogrpc</text>
</g>
<!-- fayne -->
<g id="node3" class="node">
<title>fayne</title>
<ellipse fill="none" stroke="black" cx="324.8" cy="-90" rx="36.29" ry="18"/>
<text text-anchor="middle" x="324.8" y="-86.3" font-family="Times-Roman" font-size="14.00">fayne</text>
</g>
<!-- gogui -->
<g id="node4" class="node">
<title>gogui</title>
<ellipse fill="none" stroke="black" cx="324.8" cy="-162" rx="36.29" ry="18"/>
<text text-anchor="middle" x="324.8" y="-158.3" font-family="Times-Roman" font-size="14.00">gogui</text>
</g>
<!-- gogui&#45;&gt;fayne -->
<g id="edge80" class="edge">
<title>gogui&#45;&gt;fayne</title>
<path fill="none" stroke="black" d="M324.8,-143.7C324.8,-135.98 324.8,-126.71 324.8,-118.11"/>
<polygon fill="black" stroke="black" points="328.3,-118.1 324.8,-108.1 321.3,-118.1 328.3,-118.1"/>
</g>
<!-- tensorflow -->
<g id="node5" class="node">
<title>tensorflow</title>
<ellipse fill="none" stroke="black" cx="1722.8" cy="-162" rx="57.69" ry="18"/>
<text text-anchor="middle" x="1722.8" y="-158.3" font-family="Times-Roman" font-size="14.00">tensorflow</text>
</g>
<!-- encrypt -->
<g id="node6" class="node">
<title>encrypt</title>
<ellipse fill="none" stroke="black" cx="2000.8" cy="-162" rx="45.49" ry="18"/>
<text text-anchor="middle" x="2000.8" y="-158.3" font-family="Times-Roman" font-size="14.00">encrypt</text>
</g>
<!-- compress -->
<g id="node7" class="node">
<title>compress</title>
<ellipse fill="none" stroke="black" cx="2117.8" cy="-162" rx="53.89" ry="18"/>
<text text-anchor="middle" x="2117.8" y="-158.3" font-family="Times-Roman" font-size="14.00">compress</text>
</g>
<!-- key_secure -->
<g id="node8" class="node">
<title>key_secure</title>
<ellipse fill="none" stroke="black" cx="2249.8" cy="-162" rx="60.39" ry="18"/>
<text text-anchor="middle" x="2249.8" y="-158.3" font-family="Times-Roman" font-size="14.00">key_secure</text>
</g>
<!-- gps -->
<g id="node9" class="node">
<title>gps</title>
<ellipse fill="none" stroke="black" cx="2355.8" cy="-162" rx="27.1" ry="18"/>
<text text-anchor="middle" x="2355.8" y="-158.3" font-family="Times-Roman" font-size="14.00">gps</text>
</g>
<!-- grpc -->
<g id="node10" class="node">
<title>grpc</title>
<ellipse fill="none" stroke="black" cx="2431.8" cy="-162" rx="31.4" ry="18"/>
<text text-anchor="middle" x="2431.8" y="-158.3" font-family="Times-Roman" font-size="14.00">grpc</text>
</g>
<!-- renderscript -->
<g id="node11" class="node">
<title>renderscript</title>
<ellipse fill="none" stroke="black" cx="2546.8" cy="-162" rx="65.79" ry="18"/>
<text text-anchor="middle" x="2546.8" y="-158.3" font-family="Times-Roman" font-size="14.00">renderscript</text>
</g>
<!-- camera -->
<g id="node12" class="node">
<title>camera</title>
<ellipse fill="none" stroke="black" cx="2674.8" cy="-162" rx="44.39" ry="18"/>
<text text-anchor="middle" x="2674.8" y="-158.3" font-family="Times-Roman" font-size="14.00">camera</text>
</g>
<!-- sensors -->
<g id="node13" class="node">
<title>sensors</title>
<ellipse fill="none" stroke="black" cx="2782.8" cy="-162" rx="46.29" ry="18"/>
<text text-anchor="middle" x="2782.8" y="-158.3" font-family="Times-Roman" font-size="14.00">sensors</text>
</g>
<!-- kot_opengles -->
<g id="node14" class="node">
<title>kot_opengles</title>
<ellipse fill="none" stroke="black" cx="1867.8" cy="-162" rx="69.59" ry="18"/>
<text text-anchor="middle" x="1867.8" y="-158.3" font-family="Times-Roman" font-size="14.00">kot_opengles</text>
</g>
<!-- electron -->
<g id="node15" class="node">
<title>electron</title>
<ellipse fill="none" stroke="black" cx="46.8" cy="-162" rx="46.59" ry="18"/>
<text text-anchor="middle" x="46.8" y="-158.3" font-family="Times-Roman" font-size="14.00">electron</text>
</g>
<!-- dask -->
<g id="node16" class="node">
<title>dask</title>
<ellipse fill="none" stroke="black" cx="3224.8" cy="-162" rx="32.49" ry="18"/>
<text text-anchor="middle" x="3224.8" y="-158.3" font-family="Times-Roman" font-size="14.00">dask</text>
</g>
<!-- cupy -->
<g id="node17" class="node">
<title>cupy</title>
<ellipse fill="none" stroke="black" cx="3307.8" cy="-162" rx="32.49" ry="18"/>
<text text-anchor="middle" x="3307.8" y="-158.3" font-family="Times-Roman" font-size="14.00">cupy</text>
</g>
<!-- pycuda -->
<g id="node18" class="node">
<title>pycuda</title>
<ellipse fill="none" stroke="black" cx="3402.8" cy="-162" rx="44.39" ry="18"/>
<text text-anchor="middle" x="3402.8" y="-158.3" font-family="Times-Roman" font-size="14.00">pycuda</text>
</g>
<!-- numba -->
<g id="node19" class="node">
<title>numba</title>
<ellipse fill="none" stroke="black" cx="3506.8" cy="-162" rx="42.49" ry="18"/>
<text text-anchor="middle" x="3506.8" y="-158.3" font-family="Times-Roman" font-size="14.00">numba</text>
</g>
<!-- pytorch -->
<g id="node20" class="node">
<title>pytorch</title>
<ellipse fill="none" stroke="black" cx="3731.8" cy="-90" rx="44.69" ry="18"/>
<text text-anchor="middle" x="3731.8" y="-86.3" font-family="Times-Roman" font-size="14.00">pytorch</text>
</g>
<!-- nlp -->
<g id="node21" class="node">
<title>nlp</title>
<ellipse fill="none" stroke="black" cx="3835.8" cy="-18" rx="27" ry="18"/>
<text text-anchor="middle" x="3835.8" y="-14.3" font-family="Times-Roman" font-size="14.00">nlp</text>
</g>
<!-- fastai2 -->
<g id="node22" class="node">
<title>fastai2</title>
<ellipse fill="none" stroke="black" cx="3835.8" cy="-90" rx="41.69" ry="18"/>
<text text-anchor="middle" x="3835.8" y="-86.3" font-family="Times-Roman" font-size="14.00">fastai2</text>
</g>
<!-- fastai2&#45;&gt;nlp -->
<g id="edge62" class="edge">
<title>fastai2&#45;&gt;nlp</title>
<path fill="none" stroke="black" d="M3835.8,-71.7C3835.8,-63.98 3835.8,-54.71 3835.8,-46.11"/>
<polygon fill="black" stroke="black" points="3839.3,-46.1 3835.8,-36.1 3832.3,-46.1 3839.3,-46.1"/>
</g>
<!-- fastai -->
<g id="node23" class="node">
<title>fastai</title>
<ellipse fill="none" stroke="black" cx="3506.8" cy="-90" rx="36" ry="18"/>
<text text-anchor="middle" x="3506.8" y="-86.3" font-family="Times-Roman" font-size="14.00">fastai</text>
</g>
<!-- megatron -->
<g id="node24" class="node">
<title>megatron</title>
<ellipse fill="none" stroke="black" cx="3614.8" cy="-90" rx="53.89" ry="18"/>
<text text-anchor="middle" x="3614.8" y="-86.3" font-family="Times-Roman" font-size="14.00">megatron</text>
</g>
<!-- waveguide -->
<g id="node25" class="node">
<title>waveguide</title>
<ellipse fill="none" stroke="black" cx="3626.8" cy="-162" rx="59.59" ry="18"/>
<text text-anchor="middle" x="3626.8" y="-158.3" font-family="Times-Roman" font-size="14.00">waveguide</text>
</g>
<!-- webengine -->
<g id="node26" class="node">
<title>webengine</title>
<ellipse fill="none" stroke="black" cx="1719.8" cy="-18" rx="59.59" ry="18"/>
<text text-anchor="middle" x="1719.8" y="-14.3" font-family="Times-Roman" font-size="14.00">webengine</text>
</g>
<!-- trellis -->
<g id="node27" class="node">
<title>trellis</title>
<ellipse fill="none" stroke="black" cx="1832.8" cy="-18" rx="35.19" ry="18"/>
<text text-anchor="middle" x="1832.8" y="-14.3" font-family="Times-Roman" font-size="14.00">trellis</text>
</g>
<!-- visdom -->
<g id="node28" class="node">
<title>visdom</title>
<ellipse fill="none" stroke="black" cx="4106.8" cy="-90" rx="43.59" ry="18"/>
<text text-anchor="middle" x="4106.8" y="-86.3" font-family="Times-Roman" font-size="14.00">visdom</text>
</g>
<!-- tkinter -->
<g id="node29" class="node">
<title>tkinter</title>
<ellipse fill="none" stroke="black" cx="4208.8" cy="-90" rx="40.09" ry="18"/>
<text text-anchor="middle" x="4208.8" y="-86.3" font-family="Times-Roman" font-size="14.00">tkinter</text>
</g>
<!-- glumpy -->
<g id="node30" class="node">
<title>glumpy</title>
<ellipse fill="none" stroke="black" cx="4311.8" cy="-90" rx="44.69" ry="18"/>
<text text-anchor="middle" x="4311.8" y="-86.3" font-family="Times-Roman" font-size="14.00">glumpy</text>
</g>
<!-- webkit -->
<g id="node31" class="node">
<title>webkit</title>
<ellipse fill="none" stroke="black" cx="4405.8" cy="-18" rx="40.09" ry="18"/>
<text text-anchor="middle" x="4405.8" y="-14.3" font-family="Times-Roman" font-size="14.00">webkit</text>
</g>
<!-- pyqt -->
<g id="node32" class="node">
<title>pyqt</title>
<ellipse fill="none" stroke="black" cx="4405.8" cy="-90" rx="31.4" ry="18"/>
<text text-anchor="middle" x="4405.8" y="-86.3" font-family="Times-Roman" font-size="14.00">pyqt</text>
</g>
<!-- pyqt&#45;&gt;webkit -->
<g id="edge52" class="edge">
<title>pyqt&#45;&gt;webkit</title>
<path fill="none" stroke="black" d="M4405.8,-71.7C4405.8,-63.98 4405.8,-54.71 4405.8,-46.11"/>
<polygon fill="black" stroke="black" points="4409.3,-46.1 4405.8,-36.1 4402.3,-46.1 4409.3,-46.1"/>
</g>
<!-- gtk3 -->
<g id="node33" class="node">
<title>gtk3</title>
<ellipse fill="none" stroke="black" cx="3926.8" cy="-90" rx="31.4" ry="18"/>
<text text-anchor="middle" x="3926.8" y="-86.3" font-family="Times-Roman" font-size="14.00">gtk3</text>
</g>
<!-- pywx -->
<g id="node34" class="node">
<title>pywx</title>
<ellipse fill="none" stroke="black" cx="4010.8" cy="-90" rx="34.39" ry="18"/>
<text text-anchor="middle" x="4010.8" y="-86.3" font-family="Times-Roman" font-size="14.00">pywx</text>
</g>
<!-- pygui -->
<g id="node35" class="node">
<title>pygui</title>
<ellipse fill="none" stroke="black" cx="4106.8" cy="-162" rx="36.29" ry="18"/>
<text text-anchor="middle" x="4106.8" y="-158.3" font-family="Times-Roman" font-size="14.00">pygui</text>
</g>
<!-- pygui&#45;&gt;visdom -->
<g id="edge55" class="edge">
<title>pygui&#45;&gt;visdom</title>
<path fill="none" stroke="black" d="M4106.8,-143.7C4106.8,-135.98 4106.8,-126.71 4106.8,-118.11"/>
<polygon fill="black" stroke="black" points="4110.3,-118.1 4106.8,-108.1 4103.3,-118.1 4110.3,-118.1"/>
</g>
<!-- pygui&#45;&gt;tkinter -->
<g id="edge54" class="edge">
<title>pygui&#45;&gt;tkinter</title>
<path fill="none" stroke="black" d="M4127.44,-146.83C4142.41,-136.56 4162.87,-122.52 4179.52,-111.09"/>
<polygon fill="black" stroke="black" points="4181.57,-113.93 4187.84,-105.38 4177.61,-108.16 4181.57,-113.93"/>
</g>
<!-- pygui&#45;&gt;glumpy -->
<g id="edge53" class="edge">
<title>pygui&#45;&gt;glumpy</title>
<path fill="none" stroke="black" d="M4136.17,-150.97C4170.97,-139.09 4229.24,-119.19 4269.05,-105.6"/>
<polygon fill="black" stroke="black" points="4270.41,-108.83 4278.74,-102.29 4268.15,-102.21 4270.41,-108.83"/>
</g>
<!-- pygui&#45;&gt;pyqt -->
<g id="edge51" class="edge">
<title>pygui&#45;&gt;pyqt</title>
<path fill="none" stroke="black" d="M4141.29,-156.19C4191.45,-148.7 4287.14,-132.49 4365.8,-108 4368.04,-107.3 4370.34,-106.52 4372.64,-105.68"/>
<polygon fill="black" stroke="black" points="4373.93,-108.94 4381.97,-102.04 4371.39,-102.41 4373.93,-108.94"/>
</g>
<!-- pygui&#45;&gt;gtk3 -->
<g id="edge50" class="edge">
<title>pygui&#45;&gt;gtk3</title>
<path fill="none" stroke="black" d="M4078.48,-150.48C4050.33,-139.95 4005.95,-123.18 3967.8,-108 3965.56,-107.11 3963.26,-106.19 3960.95,-105.25"/>
<polygon fill="black" stroke="black" points="3962.05,-101.91 3951.47,-101.36 3959.39,-108.39 3962.05,-101.91"/>
</g>
<!-- pygui&#45;&gt;pywx -->
<g id="edge49" class="edge">
<title>pygui&#45;&gt;pywx</title>
<path fill="none" stroke="black" d="M4086.9,-146.5C4072.82,-136.22 4053.74,-122.32 4038.21,-110.99"/>
<polygon fill="black" stroke="black" points="4040.15,-108.07 4030.01,-105.01 4036.02,-113.73 4040.15,-108.07"/>
</g>
<!-- selenium -->
<g id="node36" class="node">
<title>selenium</title>
<ellipse fill="none" stroke="black" cx="2961.8" cy="-90" rx="51.99" ry="18"/>
<text text-anchor="middle" x="2961.8" y="-86.3" font-family="Times-Roman" font-size="14.00">selenium</text>
</g>
<!-- helium -->
<g id="node37" class="node">
<title>helium</title>
<ellipse fill="none" stroke="black" cx="3073.8" cy="-90" rx="41.69" ry="18"/>
<text text-anchor="middle" x="3073.8" y="-86.3" font-family="Times-Roman" font-size="14.00">helium</text>
</g>
<!-- autoweb -->
<g id="node38" class="node">
<title>autoweb</title>
<ellipse fill="none" stroke="black" cx="3017.8" cy="-162" rx="49.29" ry="18"/>
<text text-anchor="middle" x="3017.8" y="-158.3" font-family="Times-Roman" font-size="14.00">autoweb</text>
</g>
<!-- autoweb&#45;&gt;selenium -->
<g id="edge47" class="edge">
<title>autoweb&#45;&gt;selenium</title>
<path fill="none" stroke="black" d="M3004.52,-144.41C2997.62,-135.78 2989.05,-125.06 2981.39,-115.5"/>
<polygon fill="black" stroke="black" points="2983.95,-113.09 2974.97,-107.47 2978.49,-117.47 2983.95,-113.09"/>
</g>
<!-- autoweb&#45;&gt;helium -->
<g id="edge46" class="edge">
<title>autoweb&#45;&gt;helium</title>
<path fill="none" stroke="black" d="M3031.07,-144.41C3037.97,-135.78 3046.55,-125.06 3054.2,-115.5"/>
<polygon fill="black" stroke="black" points="3057.11,-117.47 3060.62,-107.47 3051.64,-113.09 3057.11,-117.47"/>
</g>
<!-- pyvulkan -->
<g id="node39" class="node">
<title>pyvulkan</title>
<ellipse fill="none" stroke="black" cx="2898.8" cy="-162" rx="51.99" ry="18"/>
<text text-anchor="middle" x="2898.8" y="-158.3" font-family="Times-Roman" font-size="14.00">pyvulkan</text>
</g>
<!-- ai -->
<g id="node40" class="node">
<title>ai</title>
<ellipse fill="none" stroke="black" cx="3731.8" cy="-162" rx="27" ry="18"/>
<text text-anchor="middle" x="3731.8" y="-158.3" font-family="Times-Roman" font-size="14.00">ai</text>
</g>
<!-- ai&#45;&gt;pytorch -->
<g id="edge63" class="edge">
<title>ai&#45;&gt;pytorch</title>
<path fill="none" stroke="black" d="M3731.8,-143.7C3731.8,-135.98 3731.8,-126.71 3731.8,-118.11"/>
<polygon fill="black" stroke="black" points="3735.3,-118.1 3731.8,-108.1 3728.3,-118.1 3735.3,-118.1"/>
</g>
<!-- ai&#45;&gt;fastai2 -->
<g id="edge61" class="edge">
<title>ai&#45;&gt;fastai2</title>
<path fill="none" stroke="black" d="M3750.39,-148.49C3765.75,-138.14 3787.86,-123.26 3805.74,-111.23"/>
<polygon fill="black" stroke="black" points="3807.78,-114.07 3814.13,-105.59 3803.88,-108.27 3807.78,-114.07"/>
</g>
<!-- ai&#45;&gt;fastai -->
<g id="edge60" class="edge">
<title>ai&#45;&gt;fastai</title>
<path fill="none" stroke="black" d="M3710.77,-150.23C3705.93,-147.98 3700.74,-145.77 3695.8,-144 3633.67,-121.81 3614.76,-127.69 3551.8,-108 3549.2,-107.19 3546.53,-106.3 3543.85,-105.38"/>
<polygon fill="black" stroke="black" points="3544.82,-102.01 3534.23,-101.94 3542.46,-108.61 3544.82,-102.01"/>
</g>
<!-- ai&#45;&gt;megatron -->
<g id="edge59" class="edge">
<title>ai&#45;&gt;megatron</title>
<path fill="none" stroke="black" d="M3712.21,-149.28C3694.99,-138.98 3669.52,-123.74 3648.94,-111.43"/>
<polygon fill="black" stroke="black" points="3650.55,-108.31 3640.17,-106.18 3646.96,-114.32 3650.55,-108.31"/>
</g>
<!-- phx -->
<g id="node41" class="node">
<title>phx</title>
<ellipse fill="none" stroke="black" cx="139.8" cy="-162" rx="27.9" ry="18"/>
<text text-anchor="middle" x="139.8" y="-158.3" font-family="Times-Roman" font-size="14.00">phx</text>
</g>
<!-- termimg -->
<g id="node42" class="node">
<title>termimg</title>
<ellipse fill="none" stroke="black" cx="1243.8" cy="-162" rx="48.99" ry="18"/>
<text text-anchor="middle" x="1243.8" y="-158.3" font-family="Times-Roman" font-size="14.00">termimg</text>
</g>
<!-- python_in_cpp -->
<g id="node43" class="node">
<title>python_in_cpp</title>
<ellipse fill="none" stroke="black" cx="1511.8" cy="-18" rx="76.09" ry="18"/>
<text text-anchor="middle" x="1511.8" y="-14.3" font-family="Times-Roman" font-size="14.00">python_in_cpp</text>
</g>
<!-- pybind11 -->
<g id="node44" class="node">
<title>pybind11</title>
<ellipse fill="none" stroke="black" cx="1511.8" cy="-90" rx="53.89" ry="18"/>
<text text-anchor="middle" x="1511.8" y="-86.3" font-family="Times-Roman" font-size="14.00">pybind11</text>
</g>
<!-- pybind11&#45;&gt;python_in_cpp -->
<g id="edge40" class="edge">
<title>pybind11&#45;&gt;python_in_cpp</title>
<path fill="none" stroke="black" d="M1511.8,-71.7C1511.8,-63.98 1511.8,-54.71 1511.8,-46.11"/>
<polygon fill="black" stroke="black" points="1515.3,-46.1 1511.8,-36.1 1508.3,-46.1 1515.3,-46.1"/>
</g>
<!-- asio -->
<g id="node45" class="node">
<title>asio</title>
<ellipse fill="none" stroke="black" cx="1441.8" cy="-162" rx="28.7" ry="18"/>
<text text-anchor="middle" x="1441.8" y="-158.3" font-family="Times-Roman" font-size="14.00">asio</text>
</g>
<!-- wx -->
<g id="node46" class="node">
<title>wx</title>
<ellipse fill="none" stroke="black" cx="1916.8" cy="-90" rx="27" ry="18"/>
<text text-anchor="middle" x="1916.8" y="-86.3" font-family="Times-Roman" font-size="14.00">wx</text>
</g>
<!-- imgui -->
<g id="node47" class="node">
<title>imgui</title>
<ellipse fill="none" stroke="black" cx="1619.8" cy="-90" rx="36.29" ry="18"/>
<text text-anchor="middle" x="1619.8" y="-86.3" font-family="Times-Roman" font-size="14.00">imgui</text>
</g>
<!-- fltk -->
<g id="node48" class="node">
<title>fltk</title>
<ellipse fill="none" stroke="black" cx="1700.8" cy="-90" rx="27" ry="18"/>
<text text-anchor="middle" x="1700.8" y="-86.3" font-family="Times-Roman" font-size="14.00">fltk</text>
</g>
<!-- qt -->
<g id="node49" class="node">
<title>qt</title>
<ellipse fill="none" stroke="black" cx="1772.8" cy="-90" rx="27" ry="18"/>
<text text-anchor="middle" x="1772.8" y="-86.3" font-family="Times-Roman" font-size="14.00">qt</text>
</g>
<!-- qt&#45;&gt;webengine -->
<g id="edge57" class="edge">
<title>qt&#45;&gt;webengine</title>
<path fill="none" stroke="black" d="M1761.03,-73.46C1754.52,-64.87 1746.27,-53.97 1738.87,-44.19"/>
<polygon fill="black" stroke="black" points="1741.47,-41.82 1732.64,-35.96 1735.88,-46.05 1741.47,-41.82"/>
</g>
<!-- qt&#45;&gt;trellis -->
<g id="edge56" class="edge">
<title>qt&#45;&gt;trellis</title>
<path fill="none" stroke="black" d="M1785.81,-73.81C1793.65,-64.67 1803.78,-52.85 1812.63,-42.52"/>
<polygon fill="black" stroke="black" points="1815.54,-44.51 1819.39,-34.64 1810.22,-39.96 1815.54,-44.51"/>
</g>
<!-- gtk -->
<g id="node50" class="node">
<title>gtk</title>
<ellipse fill="none" stroke="black" cx="1844.8" cy="-90" rx="27" ry="18"/>
<text text-anchor="middle" x="1844.8" y="-86.3" font-family="Times-Roman" font-size="14.00">gtk</text>
</g>
<!-- gui -->
<g id="node51" class="node">
<title>gui</title>
<ellipse fill="none" stroke="black" cx="1619.8" cy="-162" rx="27" ry="18"/>
<text text-anchor="middle" x="1619.8" y="-158.3" font-family="Times-Roman" font-size="14.00">gui</text>
</g>
<!-- gui&#45;&gt;wx -->
<g id="edge36" class="edge">
<title>gui&#45;&gt;wx</title>
<path fill="none" stroke="black" d="M1640.34,-150.08C1645.29,-147.79 1650.65,-145.59 1655.8,-144 1752.55,-114.08 1784.04,-137.92 1880.8,-108 1882.73,-107.4 1884.69,-106.72 1886.64,-105.98"/>
<polygon fill="black" stroke="black" points="1888.41,-109.03 1896.26,-101.92 1885.68,-102.59 1888.41,-109.03"/>
</g>
<!-- gui&#45;&gt;imgui -->
<g id="edge35" class="edge">
<title>gui&#45;&gt;imgui</title>
<path fill="none" stroke="black" d="M1619.8,-143.7C1619.8,-135.98 1619.8,-126.71 1619.8,-118.11"/>
<polygon fill="black" stroke="black" points="1623.3,-118.1 1619.8,-108.1 1616.3,-118.1 1623.3,-118.1"/>
</g>
<!-- gui&#45;&gt;fltk -->
<g id="edge34" class="edge">
<title>gui&#45;&gt;fltk</title>
<path fill="none" stroke="black" d="M1635.8,-147.17C1647.56,-137.01 1663.73,-123.03 1677,-111.56"/>
<polygon fill="black" stroke="black" points="1679.55,-113.99 1684.83,-104.8 1674.97,-108.69 1679.55,-113.99"/>
</g>
<!-- gui&#45;&gt;qt -->
<g id="edge33" class="edge">
<title>gui&#45;&gt;qt</title>
<path fill="none" stroke="black" d="M1641.08,-150.85C1645.91,-148.58 1651.02,-146.19 1655.8,-144 1691.61,-127.59 1700.98,-124.41 1736.8,-108 1738.59,-107.18 1740.42,-106.33 1742.28,-105.47"/>
<polygon fill="black" stroke="black" points="1743.94,-108.56 1751.51,-101.15 1740.97,-102.22 1743.94,-108.56"/>
</g>
<!-- gui&#45;&gt;gtk -->
<g id="edge32" class="edge">
<title>gui&#45;&gt;gtk</title>
<path fill="none" stroke="black" d="M1640.42,-150.35C1645.38,-148.05 1650.71,-145.78 1655.8,-144 1721.74,-120.96 1742.85,-131.04 1808.8,-108 1810.7,-107.33 1812.65,-106.6 1814.59,-105.82"/>
<polygon fill="black" stroke="black" points="1816.39,-108.85 1824.17,-101.65 1813.6,-102.43 1816.39,-108.85"/>
</g>
<!-- stm32 -->
<g id="node52" class="node">
<title>stm32</title>
<ellipse fill="none" stroke="black" cx="1266.8" cy="-90" rx="39.79" ry="18"/>
<text text-anchor="middle" x="1266.8" y="-86.3" font-family="Times-Roman" font-size="14.00">stm32</text>
</g>
<!-- psoc -->
<g id="node53" class="node">
<title>psoc</title>
<ellipse fill="none" stroke="black" cx="1177.8" cy="-90" rx="31.7" ry="18"/>
<text text-anchor="middle" x="1177.8" y="-86.3" font-family="Times-Roman" font-size="14.00">psoc</text>
</g>
<!-- embed -->
<g id="node54" class="node">
<title>embed</title>
<ellipse fill="none" stroke="black" cx="1352.8" cy="-162" rx="42.49" ry="18"/>
<text text-anchor="middle" x="1352.8" y="-158.3" font-family="Times-Roman" font-size="14.00">embed</text>
</g>
<!-- embed&#45;&gt;stm32 -->
<g id="edge29" class="edge">
<title>embed&#45;&gt;stm32</title>
<path fill="none" stroke="black" d="M1334.14,-145.81C1322.19,-136.09 1306.51,-123.32 1293.28,-112.56"/>
<polygon fill="black" stroke="black" points="1295.39,-109.76 1285.42,-106.16 1290.97,-115.19 1295.39,-109.76"/>
</g>
<!-- embed&#45;&gt;psoc -->
<g id="edge28" class="edge">
<title>embed&#45;&gt;psoc</title>
<path fill="none" stroke="black" d="M1322.41,-149.35C1294.98,-138.76 1253.57,-122.62 1217.8,-108 1215.75,-107.17 1213.65,-106.3 1211.54,-105.42"/>
<polygon fill="black" stroke="black" points="1212.86,-102.18 1202.29,-101.54 1210.16,-108.63 1212.86,-102.18"/>
</g>
<!-- pluto -->
<g id="node75" class="node">
<title>pluto</title>
<ellipse fill="none" stroke="black" cx="666.8" cy="-90" rx="33.6" ry="18"/>
<text text-anchor="middle" x="666.8" y="-86.3" font-family="Times-Roman" font-size="14.00">pluto</text>
</g>
<!-- embed&#45;&gt;pluto -->
<g id="edge27" class="edge">
<title>embed&#45;&gt;pluto</title>
<path fill="none" stroke="black" d="M1322.1,-149.46C1315.48,-147.34 1308.47,-145.37 1301.8,-144 1083.09,-99.09 814.57,-92.05 710.7,-91.08"/>
<polygon fill="black" stroke="black" points="710.62,-87.58 700.59,-91 710.56,-94.58 710.62,-87.58"/>
</g>
<!-- tbb -->
<g id="node55" class="node">
<title>tbb</title>
<ellipse fill="none" stroke="black" cx="875.8" cy="-162" rx="27" ry="18"/>
<text text-anchor="middle" x="875.8" y="-158.3" font-family="Times-Roman" font-size="14.00">tbb</text>
</g>
<!-- lua_in_cpp -->
<g id="node56" class="node">
<title>lua_in_cpp</title>
<ellipse fill="none" stroke="black" cx="1381.8" cy="-90" rx="57.69" ry="18"/>
<text text-anchor="middle" x="1381.8" y="-86.3" font-family="Times-Roman" font-size="14.00">lua_in_cpp</text>
</g>
<!-- script -->
<g id="node57" class="node">
<title>script</title>
<ellipse fill="none" stroke="black" cx="1524.8" cy="-162" rx="36.29" ry="18"/>
<text text-anchor="middle" x="1524.8" y="-158.3" font-family="Times-Roman" font-size="14.00">script</text>
</g>
<!-- script&#45;&gt;pybind11 -->
<g id="edge39" class="edge">
<title>script&#45;&gt;pybind11</title>
<path fill="none" stroke="black" d="M1521.65,-144.05C1520.22,-136.35 1518.49,-127.03 1516.88,-118.36"/>
<polygon fill="black" stroke="black" points="1520.27,-117.47 1515,-108.28 1513.39,-118.75 1520.27,-117.47"/>
</g>
<!-- script&#45;&gt;lua_in_cpp -->
<g id="edge24" class="edge">
<title>script&#45;&gt;lua_in_cpp</title>
<path fill="none" stroke="black" d="M1499.89,-148.81C1478.03,-138.11 1445.89,-122.38 1420.66,-110.02"/>
<polygon fill="black" stroke="black" points="1421.88,-106.73 1411.36,-105.47 1418.8,-113.01 1421.88,-106.73"/>
</g>
<!-- vulkan -->
<g id="node58" class="node">
<title>vulkan</title>
<ellipse fill="none" stroke="black" cx="960.8" cy="-162" rx="40.09" ry="18"/>
<text text-anchor="middle" x="960.8" y="-158.3" font-family="Times-Roman" font-size="14.00">vulkan</text>
</g>
<!-- wasm -->
<g id="node59" class="node">
<title>wasm</title>
<ellipse fill="none" stroke="black" cx="1055.8" cy="-162" rx="37.09" ry="18"/>
<text text-anchor="middle" x="1055.8" y="-158.3" font-family="Times-Roman" font-size="14.00">wasm</text>
</g>
<!-- android -->
<g id="node60" class="node">
<title>android</title>
<ellipse fill="none" stroke="black" cx="772.8" cy="-306" rx="44.69" ry="18"/>
<text text-anchor="middle" x="772.8" y="-302.3" font-family="Times-Roman" font-size="14.00">android</text>
</g>
<!-- optix -->
<g id="node61" class="node">
<title>optix</title>
<ellipse fill="none" stroke="black" cx="1143.8" cy="-162" rx="33.29" ry="18"/>
<text text-anchor="middle" x="1143.8" y="-158.3" font-family="Times-Roman" font-size="14.00">optix</text>
</g>
<!-- uprof -->
<g id="node62" class="node">
<title>uprof</title>
<ellipse fill="none" stroke="black" cx="566.8" cy="-162" rx="34.39" ry="18"/>
<text text-anchor="middle" x="566.8" y="-158.3" font-family="Times-Roman" font-size="14.00">uprof</text>
</g>
<!-- cuda -->
<g id="node63" class="node">
<title>cuda</title>
<ellipse fill="none" stroke="black" cx="726.8" cy="-162" rx="32.49" ry="18"/>
<text text-anchor="middle" x="726.8" y="-158.3" font-family="Times-Roman" font-size="14.00">cuda</text>
</g>
<!-- finance -->
<g id="node64" class="node">
<title>finance</title>
<ellipse fill="none" stroke="black" cx="3129.8" cy="-162" rx="44.39" ry="18"/>
<text text-anchor="middle" x="3129.8" y="-158.3" font-family="Times-Roman" font-size="14.00">finance</text>
</g>
<!-- swift -->
<g id="node65" class="node">
<title>swift</title>
<ellipse fill="none" stroke="black" cx="1468.8" cy="-234" rx="31.7" ry="18"/>
<text text-anchor="middle" x="1468.8" y="-230.3" font-family="Times-Roman" font-size="14.00">swift</text>
</g>
<!-- swift&#45;&gt;tensorflow -->
<g id="edge78" class="edge">
<title>swift&#45;&gt;tensorflow</title>
<path fill="none" stroke="black" d="M1496.95,-225.24C1538.93,-213.67 1618.64,-191.71 1671.25,-177.21"/>
<polygon fill="black" stroke="black" points="1672.35,-180.53 1681.06,-174.5 1670.49,-173.78 1672.35,-180.53"/>
</g>
<!-- matlab -->
<g id="node66" class="node">
<title>matlab</title>
<ellipse fill="none" stroke="black" cx="205.8" cy="-234" rx="42.49" ry="18"/>
<text text-anchor="middle" x="205.8" y="-230.3" font-family="Times-Roman" font-size="14.00">matlab</text>
</g>
<!-- js -->
<g id="node67" class="node">
<title>js</title>
<ellipse fill="none" stroke="black" cx="292.8" cy="-234" rx="27" ry="18"/>
<text text-anchor="middle" x="292.8" y="-230.3" font-family="Times-Roman" font-size="14.00">js</text>
</g>
<!-- js&#45;&gt;electron -->
<g id="edge68" class="edge">
<title>js&#45;&gt;electron</title>
<path fill="none" stroke="black" d="M272.17,-222.35C267.22,-220.05 261.89,-217.77 256.8,-216 190.42,-192.86 170.68,-198.22 102.8,-180 99.2,-179.03 95.48,-178 91.76,-176.93"/>
<polygon fill="black" stroke="black" points="92.53,-173.51 81.95,-174.05 90.56,-180.22 92.53,-173.51"/>
</g>
<!-- go -->
<g id="node68" class="node">
<title>go</title>
<ellipse fill="none" stroke="black" cx="446.8" cy="-234" rx="27" ry="18"/>
<text text-anchor="middle" x="446.8" y="-230.3" font-family="Times-Roman" font-size="14.00">go</text>
</g>
<!-- go&#45;&gt;concur_chan -->
<g id="edge82" class="edge">
<title>go&#45;&gt;concur_chan</title>
<path fill="none" stroke="black" d="M446.8,-215.7C446.8,-207.98 446.8,-198.71 446.8,-190.11"/>
<polygon fill="black" stroke="black" points="450.3,-190.1 446.8,-180.1 443.3,-190.1 450.3,-190.1"/>
</g>
<!-- go&#45;&gt;gogrpc -->
<g id="edge81" class="edge">
<title>go&#45;&gt;gogrpc</title>
<path fill="none" stroke="black" d="M425.74,-222.31C420.9,-220.06 415.72,-217.82 410.8,-216 354.17,-195.03 337.62,-197.39 279.8,-180 276.47,-179 273.03,-177.94 269.57,-176.85"/>
<polygon fill="black" stroke="black" points="270.49,-173.47 259.9,-173.76 268.36,-180.14 270.49,-173.47"/>
</g>
<!-- go&#45;&gt;gogui -->
<g id="edge79" class="edge">
<title>go&#45;&gt;gogui</title>
<path fill="none" stroke="black" d="M426.92,-221.6C407.81,-210.63 378.63,-193.89 356.34,-181.1"/>
<polygon fill="black" stroke="black" points="357.98,-178.01 347.57,-176.07 354.5,-184.08 357.98,-178.01"/>
</g>
<!-- elixir -->
<g id="node69" class="node">
<title>elixir</title>
<ellipse fill="none" stroke="black" cx="369.8" cy="-234" rx="32.49" ry="18"/>
<text text-anchor="middle" x="369.8" y="-230.3" font-family="Times-Roman" font-size="14.00">elixir</text>
</g>
<!-- elixir&#45;&gt;phx -->
<g id="edge42" class="edge">
<title>elixir&#45;&gt;phx</title>
<path fill="none" stroke="black" d="M345.32,-222.1C339.94,-219.92 334.22,-217.75 328.8,-216 262.74,-194.64 242.44,-202.6 176.8,-180 174.89,-179.34 172.95,-178.62 171.01,-177.86"/>
<polygon fill="black" stroke="black" points="171.99,-174.47 161.41,-173.8 169.26,-180.92 171.99,-174.47"/>
</g>
<!-- rust -->
<g id="node70" class="node">
<title>rust</title>
<ellipse fill="none" stroke="black" cx="628.8" cy="-234" rx="28.7" ry="18"/>
<text text-anchor="middle" x="628.8" y="-230.3" font-family="Times-Roman" font-size="14.00">rust</text>
</g>
<!-- rust&#45;&gt;uprof -->
<g id="edge17" class="edge">
<title>rust&#45;&gt;uprof</title>
<path fill="none" stroke="black" d="M615.34,-217.81C607.17,-208.58 596.57,-196.61 587.36,-186.22"/>
<polygon fill="black" stroke="black" points="589.9,-183.81 580.65,-178.64 584.66,-188.45 589.9,-183.81"/>
</g>
<!-- rust&#45;&gt;cuda -->
<g id="edge15" class="edge">
<title>rust&#45;&gt;cuda</title>
<path fill="none" stroke="black" d="M647.23,-219.83C661.87,-209.38 682.56,-194.6 699.18,-182.73"/>
<polygon fill="black" stroke="black" points="701.34,-185.49 707.44,-176.83 697.27,-179.79 701.34,-185.49"/>
</g>
<!-- rust&#45;&gt;pluto -->
<g id="edge16" class="edge">
<title>rust&#45;&gt;pluto</title>
<path fill="none" stroke="black" d="M633.3,-216.15C639.78,-191.94 651.8,-147.05 659.53,-118.13"/>
<polygon fill="black" stroke="black" points="662.97,-118.83 662.17,-108.27 656.21,-117.02 662.97,-118.83"/>
</g>
<!-- kotlin -->
<g id="node71" class="node">
<title>kotlin</title>
<ellipse fill="none" stroke="black" cx="2302.8" cy="-234" rx="35.19" ry="18"/>
<text text-anchor="middle" x="2302.8" y="-230.3" font-family="Times-Roman" font-size="14.00">kotlin</text>
</g>
<!-- kotlin&#45;&gt;encrypt -->
<g id="edge77" class="edge">
<title>kotlin&#45;&gt;encrypt</title>
<path fill="none" stroke="black" d="M2270.07,-227.03C2222.4,-218.1 2131.21,-200.15 2054.8,-180 2051.41,-179.11 2047.93,-178.14 2044.44,-177.12"/>
<polygon fill="black" stroke="black" points="2045.23,-173.71 2034.64,-174.19 2043.22,-180.41 2045.23,-173.71"/>
</g>
<!-- kotlin&#45;&gt;compress -->
<g id="edge76" class="edge">
<title>kotlin&#45;&gt;compress</title>
<path fill="none" stroke="black" d="M2275.5,-222.67C2245.55,-211.34 2197.04,-192.99 2161.72,-179.62"/>
<polygon fill="black" stroke="black" points="2162.73,-176.26 2152.14,-175.99 2160.25,-182.81 2162.73,-176.26"/>
</g>
<!-- kotlin&#45;&gt;key_secure -->
<g id="edge75" class="edge">
<title>kotlin&#45;&gt;key_secure</title>
<path fill="none" stroke="black" d="M2290.5,-216.76C2283.98,-208.14 2275.81,-197.36 2268.52,-187.73"/>
<polygon fill="black" stroke="black" points="2271.22,-185.49 2262.39,-179.63 2265.64,-189.72 2271.22,-185.49"/>
</g>
<!-- kotlin&#45;&gt;gps -->
<g id="edge74" class="edge">
<title>kotlin&#45;&gt;gps</title>
<path fill="none" stroke="black" d="M2315.09,-216.76C2321.81,-207.89 2330.25,-196.74 2337.71,-186.89"/>
<polygon fill="black" stroke="black" points="2340.69,-188.75 2343.93,-178.67 2335.11,-184.53 2340.69,-188.75"/>
</g>
<!-- kotlin&#45;&gt;grpc -->
<g id="edge73" class="edge">
<title>kotlin&#45;&gt;grpc</title>
<path fill="none" stroke="black" d="M2326.16,-220.32C2347.09,-208.97 2377.94,-192.22 2400.9,-179.76"/>
<polygon fill="black" stroke="black" points="2402.78,-182.73 2409.9,-174.88 2399.44,-176.58 2402.78,-182.73"/>
</g>
<!-- kotlin&#45;&gt;renderscript -->
<g id="edge72" class="edge">
<title>kotlin&#45;&gt;renderscript</title>
<path fill="none" stroke="black" d="M2332.72,-224.42C2372.6,-212.97 2443.87,-192.53 2493.16,-178.39"/>
<polygon fill="black" stroke="black" points="2494.37,-181.68 2503.02,-175.56 2492.44,-174.95 2494.37,-181.68"/>
</g>
<!-- kotlin&#45;&gt;camera -->
<g id="edge71" class="edge">
<title>kotlin&#45;&gt;camera</title>
<path fill="none" stroke="black" d="M2336.65,-229.02C2395.26,-221.78 2519.21,-204.83 2621.8,-180 2625.23,-179.17 2628.77,-178.23 2632.31,-177.22"/>
<polygon fill="black" stroke="black" points="2633.63,-180.48 2642.21,-174.27 2631.63,-173.77 2633.63,-180.48"/>
</g>
<!-- kotlin&#45;&gt;sensors -->
<g id="edge70" class="edge">
<title>kotlin&#45;&gt;sensors</title>
<path fill="none" stroke="black" d="M2337.57,-230.74C2410.55,-225.55 2584.77,-210.77 2727.8,-180 2731.48,-179.21 2735.27,-178.28 2739.06,-177.27"/>
<polygon fill="black" stroke="black" points="2740.34,-180.55 2749.01,-174.46 2738.43,-173.81 2740.34,-180.55"/>
</g>
<!-- kotlin&#45;&gt;kot_opengles -->
<g id="edge69" class="edge">
<title>kotlin&#45;&gt;kot_opengles</title>
<path fill="none" stroke="black" d="M2268.81,-228.68C2205.33,-220.45 2064.53,-201.41 1946.8,-180 1940.96,-178.94 1934.9,-177.76 1928.84,-176.54"/>
<polygon fill="black" stroke="black" points="1929.2,-173.04 1918.7,-174.46 1927.79,-179.9 1929.2,-173.04"/>
</g>
<!-- python -->
<g id="node72" class="node">
<title>python</title>
<ellipse fill="none" stroke="black" cx="3307.8" cy="-234" rx="42.49" ry="18"/>
<text text-anchor="middle" x="3307.8" y="-230.3" font-family="Times-Roman" font-size="14.00">python</text>
</g>
<!-- python&#45;&gt;dask -->
<g id="edge67" class="edge">
<title>python&#45;&gt;dask</title>
<path fill="none" stroke="black" d="M3289.38,-217.46C3277.78,-207.68 3262.66,-194.93 3249.96,-184.22"/>
<polygon fill="black" stroke="black" points="3251.93,-181.31 3242.03,-177.54 3247.42,-186.66 3251.93,-181.31"/>
</g>
<!-- python&#45;&gt;cupy -->
<g id="edge66" class="edge">
<title>python&#45;&gt;cupy</title>
<path fill="none" stroke="black" d="M3307.8,-215.7C3307.8,-207.98 3307.8,-198.71 3307.8,-190.11"/>
<polygon fill="black" stroke="black" points="3311.3,-190.1 3307.8,-180.1 3304.3,-190.1 3311.3,-190.1"/>
</g>
<!-- python&#45;&gt;pycuda -->
<g id="edge65" class="edge">
<title>python&#45;&gt;pycuda</title>
<path fill="none" stroke="black" d="M3327.94,-218.15C3341.33,-208.29 3359.11,-195.19 3373.98,-184.23"/>
<polygon fill="black" stroke="black" points="3376.38,-186.81 3382.35,-178.07 3372.22,-181.18 3376.38,-186.81"/>
</g>
<!-- python&#45;&gt;numba -->
<g id="edge64" class="edge">
<title>python&#45;&gt;numba</title>
<path fill="none" stroke="black" d="M3339.33,-221.91C3373.43,-209.91 3427.95,-190.74 3465.46,-177.54"/>
<polygon fill="black" stroke="black" points="3466.81,-180.78 3475.08,-174.16 3464.49,-174.17 3466.81,-180.78"/>
</g>
<!-- python&#45;&gt;waveguide -->
<g id="edge58" class="edge">
<title>python&#45;&gt;waveguide</title>
<path fill="none" stroke="black" d="M3345.15,-225.48C3394.1,-215.53 3482.55,-197.24 3557.8,-180 3562.51,-178.92 3567.4,-177.77 3572.29,-176.6"/>
<polygon fill="black" stroke="black" points="3573.41,-179.94 3582.31,-174.19 3571.76,-173.13 3573.41,-179.94"/>
</g>
<!-- python&#45;&gt;pygui -->
<g id="edge48" class="edge">
<title>python&#45;&gt;pygui</title>
<path fill="none" stroke="black" d="M3348.79,-229.41C3484.55,-217.52 3918.84,-179.47 4061.16,-167"/>
<polygon fill="black" stroke="black" points="4061.63,-170.47 4071.29,-166.11 4061.02,-163.5 4061.63,-170.47"/>
</g>
<!-- python&#45;&gt;autoweb -->
<g id="edge45" class="edge">
<title>python&#45;&gt;autoweb</title>
<path fill="none" stroke="black" d="M3270.84,-225.18C3225.1,-215.34 3144.92,-197.61 3076.8,-180 3072.79,-178.96 3068.64,-177.85 3064.49,-176.71"/>
<polygon fill="black" stroke="black" points="3065.42,-173.34 3054.85,-174.01 3063.54,-180.08 3065.42,-173.34"/>
</g>
<!-- python&#45;&gt;pyvulkan -->
<g id="edge44" class="edge">
<title>python&#45;&gt;pyvulkan</title>
<path fill="none" stroke="black" d="M3267.58,-228.48C3202.49,-220.79 3070.19,-203.7 2959.8,-180 2955.62,-179.1 2951.31,-178.09 2947.01,-177.01"/>
<polygon fill="black" stroke="black" points="2947.58,-173.54 2937.02,-174.41 2945.81,-180.32 2947.58,-173.54"/>
</g>
<!-- python&#45;&gt;ai -->
<g id="edge43" class="edge">
<title>python&#45;&gt;ai</title>
<path fill="none" stroke="black" d="M3349.73,-231.45C3421.85,-227.87 3573.43,-216.31 3695.8,-180 3697.73,-179.42 3699.7,-178.76 3701.66,-178.03"/>
<polygon fill="black" stroke="black" points="3703.41,-181.09 3711.28,-174 3700.71,-174.64 3703.41,-181.09"/>
</g>
<!-- python&#45;&gt;finance -->
<g id="edge14" class="edge">
<title>python&#45;&gt;finance</title>
<path fill="none" stroke="black" d="M3277.6,-221.13C3248.03,-209.5 3202.77,-191.7 3170.13,-178.86"/>
<polygon fill="black" stroke="black" points="3171.03,-175.45 3160.44,-175.05 3168.46,-181.97 3171.03,-175.45"/>
</g>
<!-- cpp2 -->
<g id="node73" class="node">
<title>cpp2</title>
<g id="a_node73"><a xlink:href="https://github.com/plops/cl-cpp-generator2" xlink:title="cpp2">
<ellipse fill="none" stroke="black" cx="1143.8" cy="-234" rx="33.29" ry="18"/>
<text text-anchor="middle" x="1143.8" y="-230.3" font-family="Times-Roman" font-size="14.00">cpp2</text>
</a>
</g>
</g>
<!-- cpp2&#45;&gt;termimg -->
<g id="edge41" class="edge">
<title>cpp2&#45;&gt;termimg</title>
<path fill="none" stroke="black" d="M1163.55,-219.17C1177.77,-209.22 1197.21,-195.61 1213.39,-184.28"/>
<polygon fill="black" stroke="black" points="1215.81,-186.86 1222,-178.26 1211.8,-181.13 1215.81,-186.86"/>
</g>
<!-- cpp2&#45;&gt;asio -->
<g id="edge37" class="edge">
<title>cpp2&#45;&gt;asio</title>
<path fill="none" stroke="black" d="M1175.58,-228.82C1225.16,-221.79 1323.53,-205.79 1403.8,-180 1406.06,-179.27 1408.37,-178.45 1410.68,-177.57"/>
<polygon fill="black" stroke="black" points="1412.1,-180.77 1420.01,-173.73 1409.43,-174.3 1412.1,-180.77"/>
</g>
<!-- cpp2&#45;&gt;gui -->
<g id="edge31" class="edge">
<title>cpp2&#45;&gt;gui</title>
<path fill="none" stroke="black" d="M1176.79,-231.19C1248.9,-226.74 1425.61,-213.12 1569.8,-180 1575.58,-178.67 1581.63,-176.93 1587.45,-175.07"/>
<polygon fill="black" stroke="black" points="1588.57,-178.38 1596.93,-171.87 1586.33,-171.75 1588.57,-178.38"/>
</g>
<!-- cpp2&#45;&gt;embed -->
<g id="edge26" class="edge">
<title>cpp2&#45;&gt;embed</title>
<path fill="none" stroke="black" d="M1171.55,-223.7C1207.22,-211.76 1269.48,-190.9 1310.92,-177.02"/>
<polygon fill="black" stroke="black" points="1312.09,-180.32 1320.46,-173.83 1309.87,-173.69 1312.09,-180.32"/>
</g>
<!-- cpp2&#45;&gt;tbb -->
<g id="edge25" class="edge">
<title>cpp2&#45;&gt;tbb</title>
<path fill="none" stroke="black" d="M1112.43,-228.06C1067.27,-220.45 981.69,-204.17 911.8,-180 909.89,-179.34 907.94,-178.61 906,-177.83"/>
<polygon fill="black" stroke="black" points="906.98,-174.44 896.42,-173.67 904.2,-180.86 906.98,-174.44"/>
</g>
<!-- cpp2&#45;&gt;script -->
<g id="edge23" class="edge">
<title>cpp2&#45;&gt;script</title>
<path fill="none" stroke="black" d="M1176.06,-229.58C1235.36,-223.35 1364.61,-208.11 1470.8,-180 1475.4,-178.78 1480.18,-177.26 1484.94,-175.64"/>
<polygon fill="black" stroke="black" points="1486.33,-178.86 1494.59,-172.22 1484,-172.26 1486.33,-178.86"/>
</g>
<!-- cpp2&#45;&gt;script -->
<g id="edge38" class="edge">
<title>cpp2&#45;&gt;script</title>
<path fill="none" stroke="black" d="M1176.56,-230.55C1238.69,-225.03 1376.62,-209.7 1488.8,-180 1489.85,-179.72 1490.9,-179.43 1491.97,-179.12"/>
<polygon fill="black" stroke="black" points="1493.07,-182.44 1501.53,-176.06 1490.94,-175.78 1493.07,-182.44"/>
</g>
<!-- cpp2&#45;&gt;vulkan -->
<g id="edge22" class="edge">
<title>cpp2&#45;&gt;vulkan</title>
<path fill="none" stroke="black" d="M1117.58,-222.97C1086.77,-211.19 1035.37,-191.53 999.86,-177.94"/>
<polygon fill="black" stroke="black" points="1000.89,-174.59 990.3,-174.29 998.39,-181.13 1000.89,-174.59"/>
</g>
<!-- cpp2&#45;&gt;wasm -->
<g id="edge20" class="edge">
<title>cpp2&#45;&gt;wasm</title>
<path fill="none" stroke="black" d="M1125.56,-218.5C1113.02,-208.52 1096.17,-195.11 1082.17,-183.98"/>
<polygon fill="black" stroke="black" points="1084.31,-181.21 1074.31,-177.73 1079.96,-186.69 1084.31,-181.21"/>
</g>
<!-- cpp2&#45;&gt;optix -->
<g id="edge18" class="edge">
<title>cpp2&#45;&gt;optix</title>
<path fill="none" stroke="black" d="M1143.8,-215.7C1143.8,-207.98 1143.8,-198.71 1143.8,-190.11"/>
<polygon fill="black" stroke="black" points="1147.3,-190.1 1143.8,-180.1 1140.3,-190.1 1147.3,-190.1"/>
</g>
<!-- cpp2&#45;&gt;cuda -->
<g id="edge21" class="edge">
<title>cpp2&#45;&gt;cuda</title>
<path fill="none" stroke="black" d="M1111.05,-231.17C1045.06,-226.89 891.81,-213.86 767.8,-180 765.48,-179.37 763.11,-178.63 760.75,-177.84"/>
<polygon fill="black" stroke="black" points="761.75,-174.48 751.16,-174.28 759.32,-181.04 761.75,-174.48"/>
</g>
<!-- sar -->
<g id="node74" class="node">
<title>sar</title>
<ellipse fill="none" stroke="black" cx="803.8" cy="-162" rx="27" ry="18"/>
<text text-anchor="middle" x="803.8" y="-158.3" font-family="Times-Roman" font-size="14.00">sar</text>
</g>
<!-- cpp2&#45;&gt;sar -->
<g id="edge30" class="edge">
<title>cpp2&#45;&gt;sar</title>
<path fill="none" stroke="black" d="M1111.17,-230.21C1054.75,-224.75 935.81,-210.43 839.8,-180 837.87,-179.39 835.91,-178.7 833.96,-177.95"/>
<polygon fill="black" stroke="black" points="834.92,-174.56 824.35,-173.86 832.19,-181 834.92,-174.56"/>
</g>
<!-- sdr -->
<g id="node76" class="node">
<title>sdr</title>
<ellipse fill="none" stroke="black" cx="702.8" cy="-234" rx="27" ry="18"/>
<text text-anchor="middle" x="702.8" y="-230.3" font-family="Times-Roman" font-size="14.00">sdr</text>
</g>
<!-- sdr&#45;&gt;sar -->
<g id="edge4" class="edge">
<title>sdr&#45;&gt;sar</title>
<path fill="none" stroke="black" d="M720.85,-220.49C736.55,-209.6 759.51,-193.69 777.29,-181.37"/>
<polygon fill="black" stroke="black" points="779.33,-184.22 785.55,-175.64 775.34,-178.46 779.33,-184.22"/>
</g>
<!-- sdr&#45;&gt;pluto -->
<g id="edge3" class="edge">
<title>sdr&#45;&gt;pluto</title>
<path fill="none" stroke="black" d="M697.01,-216.42C693.5,-206.03 689.08,-192.33 685.8,-180 680.34,-159.52 675.38,-136.06 671.9,-118.37"/>
<polygon fill="black" stroke="black" points="675.27,-117.34 669.93,-108.18 668.39,-118.66 675.27,-117.34"/>
</g>
<!-- sexpr -->
<g id="node77" class="node">
<title>sexpr</title>
<ellipse fill="none" stroke="black" cx="633.8" cy="-306" rx="36.29" ry="18"/>
<text text-anchor="middle" x="633.8" y="-302.3" font-family="Times-Roman" font-size="14.00">sexpr</text>
</g>
<!-- sexpr&#45;&gt;swift -->
<g id="edge13" class="edge">
<title>sexpr&#45;&gt;swift</title>
<path fill="none" stroke="black" d="M666.33,-297.49C682.09,-294.1 701.35,-290.35 718.8,-288 789,-278.54 1279.38,-247.02 1426.9,-237.65"/>
<polygon fill="black" stroke="black" points="1427.57,-241.11 1437.32,-236.99 1427.12,-234.13 1427.57,-241.11"/>
</g>
<!-- sexpr&#45;&gt;matlab -->
<g id="edge12" class="edge">
<title>sexpr&#45;&gt;matlab</title>
<path fill="none" stroke="black" d="M598.05,-302.16C530.63,-296.32 380.34,-281.02 256.8,-252 253.42,-251.21 249.96,-250.29 246.49,-249.29"/>
<polygon fill="black" stroke="black" points="247.41,-245.91 236.82,-246.34 245.37,-252.61 247.41,-245.91"/>
</g>
<!-- sexpr&#45;&gt;js -->
<g id="edge11" class="edge">
<title>sexpr&#45;&gt;js</title>
<path fill="none" stroke="black" d="M598.3,-301.96C540.66,-296.32 423.59,-282.01 328.8,-252 326.87,-251.39 324.91,-250.7 322.96,-249.95"/>
<polygon fill="black" stroke="black" points="323.92,-246.56 313.35,-245.87 321.19,-253 323.92,-246.56"/>
</g>
<!-- sexpr&#45;&gt;go -->
<g id="edge10" class="edge">
<title>sexpr&#45;&gt;go</title>
<path fill="none" stroke="black" d="M605.39,-294.37C571.49,-281.68 514.92,-260.5 479.3,-247.17"/>
<polygon fill="black" stroke="black" points="480.44,-243.86 469.85,-243.63 477.99,-250.41 480.44,-243.86"/>
</g>
<!-- sexpr&#45;&gt;elixir -->
<g id="edge9" class="edge">
<title>sexpr&#45;&gt;elixir</title>
<path fill="none" stroke="black" d="M600.09,-298.74C556.02,-290.15 476.67,-273.33 410.8,-252 408.51,-251.26 406.17,-250.45 403.82,-249.59"/>
<polygon fill="black" stroke="black" points="404.86,-246.24 394.27,-245.9 402.34,-252.77 404.86,-246.24"/>
</g>
<!-- sexpr&#45;&gt;rust -->
<g id="edge8" class="edge">
<title>sexpr&#45;&gt;rust</title>
<path fill="none" stroke="black" d="M632.56,-287.7C632.01,-279.98 631.35,-270.71 630.73,-262.11"/>
<polygon fill="black" stroke="black" points="634.22,-261.83 630.02,-252.1 627.24,-262.33 634.22,-261.83"/>
</g>
<!-- sexpr&#45;&gt;kotlin -->
<g id="edge7" class="edge">
<title>sexpr&#45;&gt;kotlin</title>
<path fill="none" stroke="black" d="M665.89,-297.29C681.72,-293.82 701.16,-290.05 718.8,-288 875,-269.89 2015.32,-241.86 2257.62,-236.07"/>
<polygon fill="black" stroke="black" points="2257.91,-239.56 2267.82,-235.83 2257.74,-232.57 2257.91,-239.56"/>
</g>
<!-- sexpr&#45;&gt;python -->
<g id="edge6" class="edge">
<title>sexpr&#45;&gt;python</title>
<path fill="none" stroke="black" d="M665.88,-297.19C681.7,-293.69 701.14,-289.93 718.8,-288 784.17,-280.85 2894.37,-242.47 3255.48,-235.94"/>
<polygon fill="black" stroke="black" points="3255.71,-239.44 3265.65,-235.76 3255.59,-232.44 3255.71,-239.44"/>
</g>
<!-- sexpr&#45;&gt;cpp2 -->
<g id="edge5" class="edge">
<title>sexpr&#45;&gt;cpp2</title>
<path fill="none" stroke="black" d="M666.39,-297.9C682.17,-294.61 701.42,-290.82 718.8,-288 858.12,-265.41 1024.5,-247.18 1101.21,-239.27"/>
<polygon fill="black" stroke="black" points="1101.83,-242.72 1111.42,-238.22 1101.12,-235.76 1101.83,-242.72"/>
</g>
<!-- main -->
<g id="node78" class="node">
<title>main</title>
<ellipse fill="none" stroke="black" cx="699.8" cy="-378" rx="33.29" ry="18"/>
<text text-anchor="middle" x="699.8" y="-374.3" font-family="Times-Roman" font-size="14.00">main</text>
</g>
<!-- main&#45;&gt;android -->
<g id="edge19" class="edge">
<title>main&#45;&gt;android</title>
<path fill="none" stroke="black" d="M715.64,-361.81C725.38,-352.47 738.05,-340.31 748.99,-329.83"/>
<polygon fill="black" stroke="black" points="751.43,-332.34 756.23,-322.89 746.59,-327.28 751.43,-332.34"/>
</g>
<!-- main&#45;&gt;sdr -->
<g id="edge2" class="edge">
<title>main&#45;&gt;sdr</title>
<path fill="none" stroke="black" d="M700.16,-359.87C700.67,-335.67 701.61,-291.21 702.22,-262.39"/>
<polygon fill="black" stroke="black" points="705.72,-262.26 702.43,-252.19 698.72,-262.11 705.72,-262.26"/>
</g>
<!-- main&#45;&gt;sexpr -->
<g id="edge1" class="edge">
<title>main&#45;&gt;sexpr</title>
<path fill="none" stroke="black" d="M685.15,-361.46C676.43,-352.22 665.21,-340.32 655.48,-330"/>
<polygon fill="black" stroke="black" points="657.81,-327.37 648.4,-322.49 652.72,-332.17 657.81,-327.37"/>
</g>
</g>
</svg>
