<?xml version="1.0" encoding="UTF-8" standalone="no"?>
<!DOCTYPE svg PUBLIC "-//W3C//DTD SVG 1.1//EN"
 "http://www.w3.org/Graphics/SVG/1.1/DTD/svg11.dtd">
<!-- Generated by graphviz version 14.1.2 (0)
 -->
<!-- Pages: 1 -->
<svg width="5618pt" height="188pt"
 viewBox="0.00 0.00 5618.00 188.00" xmlns="http://www.w3.org/2000/svg" xmlns:xlink="http://www.w3.org/1999/xlink">
<g id="graph0" class="graph" transform="scale(1 1) rotate(0) translate(4 184)">
<polygon fill="white" stroke="none" points="-4,4 -4,-184 5614.43,-184 5614.43,4 -4,4"/>
<!-- nmr&#45;seminar -->
<g id="node1" class="node">
<title>nmr&#45;seminar</title>
<g id="a_node1"><a xlink:href="https://github.com/plops/nmr-seminar" xlink:title="nmr&#45;seminar">
<ellipse fill="none" stroke="blue" cx="75.41" cy="-18" rx="75.41" ry="18"/>
<text xml:space="preserve" text-anchor="middle" x="75.41" y="-13.32" font-family="Times,serif" font-size="14.00">nmr&#45;seminar</text>
</a>
</g>
</g>
<!-- cl_nbdev_test -->
<g id="node2" class="node">
<title>cl_nbdev_test</title>
<g id="a_node2"><a xlink:href="https://github.com/plops/cl_nbdev_test" xlink:title="cl_nbdev_test">
<ellipse fill="none" stroke="blue" cx="248.41" cy="-18" rx="79.09" ry="18"/>
<text xml:space="preserve" text-anchor="middle" x="248.41" y="-13.32" font-family="Times,serif" font-size="14.00">cl_nbdev_test</text>
</a>
</g>
</g>
<!-- right&#45;hand&#45;mirror&#45;keyboard -->
<g id="node3" class="node">
<title>right&#45;hand&#45;mirror&#45;keyboard</title>
<g id="a_node3"><a xlink:href="https://github.com/plops/right-hand-mirror-keyboard" xlink:title="right&#45;hand&#45;mirror&#45;keyboard">
<ellipse fill="none" stroke="blue" cx="494.41" cy="-18" rx="149.06" ry="18"/>
<text xml:space="preserve" text-anchor="middle" x="494.41" y="-13.32" font-family="Times,serif" font-size="14.00">right&#45;hand&#45;mirror&#45;keyboard</text>
</a>
</g>
</g>
<!-- pages -->
<g id="node4" class="node">
<title>pages</title>
<g id="a_node4"><a xlink:href="https://github.com/plops/pages" xlink:title="pages">
<ellipse fill="none" stroke="blue" cx="702.41" cy="-18" rx="40.69" ry="18"/>
<text xml:space="preserve" text-anchor="middle" x="702.41" y="-13.32" font-family="Times,serif" font-size="14.00">pages</text>
</a>
</g>
</g>
<!-- slide&#45;tag -->
<g id="node5" class="node">
<title>slide&#45;tag</title>
<g id="a_node5"><a xlink:href="https://github.com/plops/slide-tag" xlink:title="slide&#45;tag">
<ellipse fill="none" stroke="blue" cx="815.41" cy="-18" rx="54.36" ry="18"/>
<text xml:space="preserve" text-anchor="middle" x="815.41" y="-13.32" font-family="Times,serif" font-size="14.00">slide&#45;tag</text>
</a>
</g>
</g>
<!-- github&#45;repo&#45;traffic&#45;stats -->
<g id="node6" class="node">
<title>github&#45;repo&#45;traffic&#45;stats</title>
<g id="a_node6"><a xlink:href="https://github.com/plops/github-repo-traffic-stats" xlink:title="github&#45;repo&#45;traffic&#45;stats">
<ellipse fill="none" stroke="blue" cx="1018.41" cy="-18" rx="130.65" ry="18"/>
<text xml:space="preserve" text-anchor="middle" x="1018.41" y="-13.32" font-family="Times,serif" font-size="14.00">github&#45;repo&#45;traffic&#45;stats</text>
</a>
</g>
</g>
<!-- dotemacs -->
<g id="node7" class="node">
<title>dotemacs</title>
<g id="a_node7"><a xlink:href="https://github.com/plops/dotemacs" xlink:title="dotemacs">
<ellipse fill="none" stroke="blue" cx="1226.41" cy="-18" rx="59.1" ry="18"/>
<text xml:space="preserve" text-anchor="middle" x="1226.41" y="-13.32" font-family="Times,serif" font-size="14.00">dotemacs</text>
</a>
</g>
</g>
<!-- thesis&#45;review -->
<g id="node8" class="node">
<title>thesis&#45;review</title>
<g id="a_node8"><a xlink:href="https://github.com/plops/thesis-review" xlink:title="thesis&#45;review">
<ellipse fill="none" stroke="blue" cx="1381.41" cy="-18" rx="78.04" ry="18"/>
<text xml:space="preserve" text-anchor="middle" x="1381.41" y="-13.32" font-family="Times,serif" font-size="14.00">thesis&#45;review</text>
</a>
</g>
</g>
<!-- retreat&#45;doc -->
<g id="node9" class="node">
<title>retreat&#45;doc</title>
<g id="a_node9"><a xlink:href="https://github.com/plops/retreat-doc" xlink:title="retreat&#45;doc">
<ellipse fill="none" stroke="blue" cx="1544.41" cy="-18" rx="66.99" ry="18"/>
<text xml:space="preserve" text-anchor="middle" x="1544.41" y="-13.32" font-family="Times,serif" font-size="14.00">retreat&#45;doc</text>
</a>
</g>
</g>
<!-- relat -->
<g id="node10" class="node">
<title>relat</title>
<g id="a_node10"><a xlink:href="https://github.com/plops/relat" xlink:title="relat">
<ellipse fill="none" stroke="blue" cx="1664.41" cy="-18" rx="34.9" ry="18"/>
<text xml:space="preserve" text-anchor="middle" x="1664.41" y="-13.32" font-family="Times,serif" font-size="14.00">relat</text>
</a>
</g>
</g>
<!-- phys_chem_versuch10 -->
<g id="node11" class="node">
<title>phys_chem_versuch10</title>
<g id="a_node11"><a xlink:href="https://github.com/plops/phys_chem_versuch10" xlink:title="phys_chem_versuch10">
<ellipse fill="none" stroke="blue" cx="1840.41" cy="-18" rx="123.29" ry="18"/>
<text xml:space="preserve" text-anchor="middle" x="1840.41" y="-13.32" font-family="Times,serif" font-size="14.00">phys_chem_versuch10</text>
</a>
</g>
</g>
<!-- kielhorn -->
<g id="node12" class="node">
<title>kielhorn</title>
<g id="a_node12"><a xlink:href="https://github.com/plops/kielhorn" xlink:title="kielhorn">
<ellipse fill="none" stroke="blue" cx="2034.41" cy="-18" rx="52.26" ry="18"/>
<text xml:space="preserve" text-anchor="middle" x="2034.41" y="-13.32" font-family="Times,serif" font-size="14.00">kielhorn</text>
</a>
</g>
</g>
<!-- dokdok2012 -->
<g id="node13" class="node">
<title>dokdok2012</title>
<g id="a_node13"><a xlink:href="https://github.com/plops/dokdok2012" xlink:title="dokdok2012">
<ellipse fill="none" stroke="blue" cx="2177.41" cy="-18" rx="72.25" ry="18"/>
<text xml:space="preserve" text-anchor="middle" x="2177.41" y="-13.32" font-family="Times,serif" font-size="14.00">dokdok2012</text>
</a>
</g>
</g>
<!-- clem&#45;sim -->
<g id="node14" class="node">
<title>clem&#45;sim</title>
<g id="a_node14"><a xlink:href="https://github.com/plops/clem-sim" xlink:title="clem&#45;sim">
<ellipse fill="none" stroke="blue" cx="2323.41" cy="-18" rx="55.94" ry="18"/>
<text xml:space="preserve" text-anchor="middle" x="2323.41" y="-13.32" font-family="Times,serif" font-size="14.00">clem&#45;sim</text>
</a>
</g>
</g>
<!-- learn_emacs_completion -->
<g id="node15" class="node">
<title>learn_emacs_completion</title>
<g id="a_node15"><a xlink:href="https://github.com/plops/learn_emacs_completion" xlink:title="learn_emacs_completion">
<ellipse fill="none" stroke="blue" cx="2530.41" cy="-18" rx="133.28" ry="18"/>
<text xml:space="preserve" text-anchor="middle" x="2530.41" y="-13.32" font-family="Times,serif" font-size="14.00">learn_emacs_completion</text>
</a>
</g>
</g>
<!-- virology_2025 -->
<g id="node16" class="node">
<title>virology_2025</title>
<g id="a_node16"><a xlink:href="https://github.com/plops/virology_2025" xlink:title="virology_2025">
<ellipse fill="none" stroke="blue" cx="2763.41" cy="-18" rx="81.72" ry="18"/>
<text xml:space="preserve" text-anchor="middle" x="2763.41" y="-13.32" font-family="Times,serif" font-size="14.00">virology_2025</text>
</a>
</g>
</g>
<!-- try_gh_actions -->
<g id="node17" class="node">
<title>try_gh_actions</title>
<g id="a_node17"><a xlink:href="https://github.com/plops/try_gh_actions" xlink:title="try_gh_actions">
<ellipse fill="none" stroke="blue" cx="2947.41" cy="-18" rx="83.83" ry="18"/>
<text xml:space="preserve" text-anchor="middle" x="2947.41" y="-13.32" font-family="Times,serif" font-size="14.00">try_gh_actions</text>
</a>
</g>
</g>
<!-- sapkowski_in_english -->
<g id="node18" class="node">
<title>sapkowski_in_english</title>
<g id="a_node18"><a xlink:href="https://github.com/plops/sapkowski_in_english" xlink:title="sapkowski_in_english">
<ellipse fill="none" stroke="blue" cx="3167.41" cy="-18" rx="118.02" ry="18"/>
<text xml:space="preserve" text-anchor="middle" x="3167.41" y="-13.32" font-family="Times,serif" font-size="14.00">sapkowski_in_english</text>
</a>
</g>
</g>
<!-- plops.github.com -->
<g id="node19" class="node">
<title>plops.github.com</title>
<g id="a_node19"><a xlink:href="https://github.com/plops/plops.github.com" xlink:title="plops.github.com">
<ellipse fill="none" stroke="blue" cx="3401.41" cy="-18" rx="97.51" ry="18"/>
<text xml:space="preserve" text-anchor="middle" x="3401.41" y="-13.32" font-family="Times,serif" font-size="14.00">plops.github.com</text>
</a>
</g>
</g>
<!-- phd_thesis_final -->
<g id="node20" class="node">
<title>phd_thesis_final</title>
<g id="a_node20"><a xlink:href="https://github.com/plops/phd_thesis_final" xlink:title="phd_thesis_final">
<ellipse fill="none" stroke="blue" cx="3608.41" cy="-18" rx="91.19" ry="18"/>
<text xml:space="preserve" text-anchor="middle" x="3608.41" y="-13.32" font-family="Times,serif" font-size="14.00">phd_thesis_final</text>
</a>
</g>
</g>
<!-- olisun_psych -->
<g id="node21" class="node">
<title>olisun_psych</title>
<g id="a_node21"><a xlink:href="https://github.com/plops/olisun_psych" xlink:title="olisun_psych">
<ellipse fill="none" stroke="blue" cx="3792.41" cy="-18" rx="74.88" ry="18"/>
<text xml:space="preserve" text-anchor="middle" x="3792.41" y="-13.32" font-family="Times,serif" font-size="14.00">olisun_psych</text>
</a>
</g>
</g>
<!-- mbti -->
<g id="node22" class="node">
<title>mbti</title>
<g id="a_node22"><a xlink:href="https://github.com/plops/mbti" xlink:title="mbti">
<ellipse fill="none" stroke="blue" cx="3919.41" cy="-18" rx="34.37" ry="18"/>
<text xml:space="preserve" text-anchor="middle" x="3919.41" y="-13.32" font-family="Times,serif" font-size="14.00">mbti</text>
</a>
</g>
</g>
<!-- hypermedia&#45;systems&#45;book&#45;summary -->
<g id="node23" class="node">
<title>hypermedia&#45;systems&#45;book&#45;summary</title>
<g id="a_node23"><a xlink:href="https://github.com/plops/hypermedia-systems-book-summary" xlink:title="hypermedia&#45;systems&#45;book&#45;summary">
<ellipse fill="none" stroke="blue" cx="4163.41" cy="-18" rx="191.68" ry="18"/>
<text xml:space="preserve" text-anchor="middle" x="4163.41" y="-13.32" font-family="Times,serif" font-size="14.00">hypermedia&#45;systems&#45;book&#45;summary</text>
</a>
</g>
</g>
<!-- diploma_thesis -->
<g id="node24" class="node">
<title>diploma_thesis</title>
<g id="a_node24"><a xlink:href="https://github.com/plops/diploma_thesis" xlink:title="diploma_thesis">
<ellipse fill="none" stroke="blue" cx="4459.41" cy="-18" rx="85.93" ry="18"/>
<text xml:space="preserve" text-anchor="middle" x="4459.41" y="-13.32" font-family="Times,serif" font-size="14.00">diploma_thesis</text>
</a>
</g>
</g>
<!-- chinesisch&#45;lernen -->
<g id="node25" class="node">
<title>chinesisch&#45;lernen</title>
<g id="a_node25"><a xlink:href="https://github.com/plops/chinesisch-lernen" xlink:title="chinesisch&#45;lernen">
<ellipse fill="none" stroke="blue" cx="4661.41" cy="-18" rx="98.56" ry="18"/>
<text xml:space="preserve" text-anchor="middle" x="4661.41" y="-13.32" font-family="Times,serif" font-size="14.00">chinesisch&#45;lernen</text>
</a>
</g>
</g>
<!-- BasicEnglishDeutschCesky -->
<g id="node26" class="node">
<title>BasicEnglishDeutschCesky</title>
<g id="a_node26"><a xlink:href="https://github.com/plops/BasicEnglishDeutschCesky" xlink:title="BasicEnglishDeutschCesky">
<ellipse fill="none" stroke="blue" cx="4925.41" cy="-18" rx="146.96" ry="18"/>
<text xml:space="preserve" text-anchor="middle" x="4925.41" y="-13.32" font-family="Times,serif" font-size="14.00">BasicEnglishDeutschCesky</text>
</a>
</g>
</g>
<!-- learn_ada_simple_task -->
<g id="node27" class="node">
<title>learn_ada_simple_task</title>
<g id="a_node27"><a xlink:href="https://github.com/plops/learn_ada_simple_task" xlink:title="learn_ada_simple_task">
<ellipse fill="none" stroke="blue" cx="5213.41" cy="-18" rx="123.29" ry="18"/>
<text xml:space="preserve" text-anchor="middle" x="5213.41" y="-13.32" font-family="Times,serif" font-size="14.00">learn_ada_simple_task</text>
</a>
</g>
</g>
<!-- ada_recall_fosdem2019 -->
<g id="node28" class="node">
<title>ada_recall_fosdem2019</title>
<g id="a_node28"><a xlink:href="https://github.com/plops/ada_recall_fosdem2019" xlink:title="ada_recall_fosdem2019">
<ellipse fill="none" stroke="blue" cx="5482.41" cy="-18" rx="128.02" ry="18"/>
<text xml:space="preserve" text-anchor="middle" x="5482.41" y="-13.32" font-family="Times,serif" font-size="14.00">ada_recall_fosdem2019</text>
</a>
</g>
</g>
<!-- docs&#45;meta/web -->
<g id="node29" class="node">
<title>docs&#45;meta/web</title>
<ellipse fill="none" stroke="black" cx="248.41" cy="-90" rx="85.93" ry="18"/>
<text xml:space="preserve" text-anchor="middle" x="248.41" y="-85.33" font-family="Times,serif" font-size="14.00">docs&#45;meta/web</text>
</g>
<!-- docs&#45;meta/web&#45;&gt;nmr&#45;seminar -->
<g id="edge37" class="edge">
<title>docs&#45;meta/web&#45;&gt;nmr&#45;seminar</title>
<path fill="none" stroke="black" d="M210.01,-73.46C184.35,-63.08 150.41,-49.35 123.03,-38.27"/>
<polygon fill="black" stroke="black" points="124.49,-35.09 113.91,-34.58 121.87,-41.57 124.49,-35.09"/>
</g>
<!-- docs&#45;meta/web&#45;&gt;cl_nbdev_test -->
<g id="edge36" class="edge">
<title>docs&#45;meta/web&#45;&gt;cl_nbdev_test</title>
<path fill="none" stroke="black" d="M248.41,-71.7C248.41,-64.41 248.41,-55.73 248.41,-47.54"/>
<polygon fill="black" stroke="black" points="251.91,-47.62 248.41,-37.62 244.91,-47.62 251.91,-47.62"/>
</g>
<!-- docs&#45;meta/unknown -->
<g id="node30" class="node">
<title>docs&#45;meta/unknown</title>
<ellipse fill="none" stroke="black" cx="501.41" cy="-90" rx="110.66" ry="18"/>
<text xml:space="preserve" text-anchor="middle" x="501.41" y="-85.33" font-family="Times,serif" font-size="14.00">docs&#45;meta/unknown</text>
</g>
<!-- docs&#45;meta/unknown&#45;&gt;right&#45;hand&#45;mirror&#45;keyboard -->
<g id="edge35" class="edge">
<title>docs&#45;meta/unknown&#45;&gt;right&#45;hand&#45;mirror&#45;keyboard</title>
<path fill="none" stroke="black" d="M499.68,-71.7C498.95,-64.41 498.08,-55.73 497.26,-47.54"/>
<polygon fill="black" stroke="black" points="500.75,-47.21 496.27,-37.61 493.78,-47.91 500.75,-47.21"/>
</g>
<!-- docs&#45;meta/shell -->
<g id="node31" class="node">
<title>docs&#45;meta/shell</title>
<ellipse fill="none" stroke="black" cx="777.41" cy="-90" rx="89.09" ry="18"/>
<text xml:space="preserve" text-anchor="middle" x="777.41" y="-85.33" font-family="Times,serif" font-size="14.00">docs&#45;meta/shell</text>
</g>
<!-- docs&#45;meta/shell&#45;&gt;pages -->
<g id="edge34" class="edge">
<title>docs&#45;meta/shell&#45;&gt;pages</title>
<path fill="none" stroke="black" d="M759.25,-72.05C749.77,-63.2 738.01,-52.23 727.66,-42.57"/>
<polygon fill="black" stroke="black" points="730.17,-40.13 720.48,-35.86 725.4,-45.24 730.17,-40.13"/>
</g>
<!-- docs&#45;meta/rust -->
<g id="node32" class="node">
<title>docs&#45;meta/rust</title>
<ellipse fill="none" stroke="black" cx="999.41" cy="-90" rx="85.93" ry="18"/>
<text xml:space="preserve" text-anchor="middle" x="999.41" y="-85.33" font-family="Times,serif" font-size="14.00">docs&#45;meta/rust</text>
</g>
<!-- docs&#45;meta/rust&#45;&gt;slide&#45;tag -->
<g id="edge33" class="edge">
<title>docs&#45;meta/rust&#45;&gt;slide&#45;tag</title>
<path fill="none" stroke="black" d="M959.48,-73.81C930.49,-62.78 891.21,-47.84 860.98,-36.34"/>
<polygon fill="black" stroke="black" points="862.3,-33.09 851.71,-32.81 859.81,-39.64 862.3,-33.09"/>
</g>
<!-- docs&#45;meta/python -->
<g id="node33" class="node">
<title>docs&#45;meta/python</title>
<ellipse fill="none" stroke="black" cx="1218.41" cy="-90" rx="100.14" ry="18"/>
<text xml:space="preserve" text-anchor="middle" x="1218.41" y="-85.33" font-family="Times,serif" font-size="14.00">docs&#45;meta/python</text>
</g>
<!-- docs&#45;meta/python&#45;&gt;github&#45;repo&#45;traffic&#45;stats -->
<g id="edge32" class="edge">
<title>docs&#45;meta/python&#45;&gt;github&#45;repo&#45;traffic&#45;stats</title>
<path fill="none" stroke="black" d="M1174.02,-73.46C1144.99,-63.3 1106.79,-49.93 1075.51,-38.98"/>
<polygon fill="black" stroke="black" points="1076.78,-35.72 1066.19,-35.72 1074.47,-42.33 1076.78,-35.72"/>
</g>
<!-- docs&#45;meta/python&#45;&gt;dotemacs -->
<g id="edge31" class="edge">
<title>docs&#45;meta/python&#45;&gt;dotemacs</title>
<path fill="none" stroke="black" d="M1220.39,-71.7C1221.22,-64.41 1222.21,-55.73 1223.15,-47.54"/>
<polygon fill="black" stroke="black" points="1226.62,-47.94 1224.28,-37.61 1219.67,-47.15 1226.62,-47.94"/>
</g>
<!-- docs&#45;meta/latex -->
<g id="node34" class="node">
<title>docs&#45;meta/latex</title>
<ellipse fill="none" stroke="black" cx="1752.41" cy="-90" rx="90.14" ry="18"/>
<text xml:space="preserve" text-anchor="middle" x="1752.41" y="-85.33" font-family="Times,serif" font-size="14.00">docs&#45;meta/latex</text>
</g>
<!-- docs&#45;meta/latex&#45;&gt;thesis&#45;review -->
<g id="edge30" class="edge">
<title>docs&#45;meta/latex&#45;&gt;thesis&#45;review</title>
<path fill="none" stroke="black" d="M1687.81,-77.1C1630.22,-66.46 1543.66,-50.37 1468.41,-36 1462.55,-34.88 1456.47,-33.71 1450.38,-32.53"/>
<polygon fill="black" stroke="black" points="1451.39,-29.16 1440.91,-30.7 1450.06,-36.04 1451.39,-29.16"/>
</g>
<!-- docs&#45;meta/latex&#45;&gt;retreat&#45;doc -->
<g id="edge29" class="edge">
<title>docs&#45;meta/latex&#45;&gt;retreat&#45;doc</title>
<path fill="none" stroke="black" d="M1707.79,-73.98C1674.94,-62.93 1630.2,-47.87 1595.84,-36.31"/>
<polygon fill="black" stroke="black" points="1597.11,-33.04 1586.51,-33.17 1594.87,-39.68 1597.11,-33.04"/>
</g>
<!-- docs&#45;meta/latex&#45;&gt;relat -->
<g id="edge28" class="edge">
<title>docs&#45;meta/latex&#45;&gt;relat</title>
<path fill="none" stroke="black" d="M1731.11,-72.05C1719.24,-62.61 1704.33,-50.76 1691.62,-40.65"/>
<polygon fill="black" stroke="black" points="1694.02,-38.08 1684.02,-34.6 1689.67,-43.56 1694.02,-38.08"/>
</g>
<!-- docs&#45;meta/latex&#45;&gt;phys_chem_versuch10 -->
<g id="edge27" class="edge">
<title>docs&#45;meta/latex&#45;&gt;phys_chem_versuch10</title>
<path fill="none" stroke="black" d="M1773.71,-72.05C1784.66,-63.35 1798.18,-52.59 1810.18,-43.04"/>
<polygon fill="black" stroke="black" points="1812.17,-45.94 1817.81,-36.97 1807.81,-40.46 1812.17,-45.94"/>
</g>
<!-- docs&#45;meta/latex&#45;&gt;kielhorn -->
<g id="edge26" class="edge">
<title>docs&#45;meta/latex&#45;&gt;kielhorn</title>
<path fill="none" stroke="black" d="M1809.51,-75.76C1853.99,-65.32 1917.24,-50.2 1972.41,-36 1976.14,-35.04 1980,-34.03 1983.87,-33"/>
<polygon fill="black" stroke="black" points="1984.56,-36.44 1993.31,-30.46 1982.74,-29.68 1984.56,-36.44"/>
</g>
<!-- docs&#45;meta/latex&#45;&gt;dokdok2012 -->
<g id="edge25" class="edge">
<title>docs&#45;meta/latex&#45;&gt;dokdok2012</title>
<path fill="none" stroke="black" d="M1824.86,-78.9C1894.4,-68.95 2002.32,-52.83 2095.41,-36 2101.08,-34.98 2106.95,-33.86 2112.84,-32.71"/>
<polygon fill="black" stroke="black" points="2113.51,-36.14 2122.63,-30.76 2112.14,-29.28 2113.51,-36.14"/>
</g>
<!-- docs&#45;meta/latex&#45;&gt;clem&#45;sim -->
<g id="edge24" class="edge">
<title>docs&#45;meta/latex&#45;&gt;clem&#45;sim</title>
<path fill="none" stroke="black" d="M1838.02,-84C1939.1,-77.18 2111.98,-62.66 2258.41,-36 2262.74,-35.21 2267.21,-34.29 2271.67,-33.28"/>
<polygon fill="black" stroke="black" points="2272.32,-36.73 2281.23,-31 2270.69,-29.92 2272.32,-36.73"/>
</g>
<!-- docs&#45;meta/elisp -->
<g id="node35" class="node">
<title>docs&#45;meta/elisp</title>
<ellipse fill="none" stroke="black" cx="2196.41" cy="-90" rx="89.09" ry="18"/>
<text xml:space="preserve" text-anchor="middle" x="2196.41" y="-85.33" font-family="Times,serif" font-size="14.00">docs&#45;meta/elisp</text>
</g>
<!-- docs&#45;meta/elisp&#45;&gt;learn_emacs_completion -->
<g id="edge23" class="edge">
<title>docs&#45;meta/elisp&#45;&gt;learn_emacs_completion</title>
<path fill="none" stroke="black" d="M2256.51,-76.4C2310.23,-65.14 2389.43,-48.55 2448.86,-36.09"/>
<polygon fill="black" stroke="black" points="2449.54,-39.52 2458.61,-34.05 2448.1,-32.67 2449.54,-39.52"/>
</g>
<!-- docs&#45;meta/docs -->
<g id="node36" class="node">
<title>docs&#45;meta/docs</title>
<ellipse fill="none" stroke="black" cx="3700.41" cy="-90" rx="88.04" ry="18"/>
<text xml:space="preserve" text-anchor="middle" x="3700.41" y="-85.33" font-family="Times,serif" font-size="14.00">docs&#45;meta/docs</text>
</g>
<!-- docs&#45;meta/docs&#45;&gt;virology_2025 -->
<g id="edge22" class="edge">
<title>docs&#45;meta/docs&#45;&gt;virology_2025</title>
<path fill="none" stroke="black" d="M3613.31,-87.05C3459.57,-82.82 3130.24,-70.27 2854.41,-36 2847.4,-35.13 2840.11,-34.06 2832.85,-32.87"/>
<polygon fill="black" stroke="black" points="2833.44,-29.42 2822.99,-31.2 2832.26,-36.33 2833.44,-29.42"/>
</g>
<!-- docs&#45;meta/docs&#45;&gt;try_gh_actions -->
<g id="edge21" class="edge">
<title>docs&#45;meta/docs&#45;&gt;try_gh_actions</title>
<path fill="none" stroke="black" d="M3615.47,-84.92C3489.53,-78.25 3245.99,-62.97 3040.41,-36 3033.28,-35.06 3025.86,-33.95 3018.47,-32.75"/>
<polygon fill="black" stroke="black" points="3019.24,-29.33 3008.8,-31.12 3018.07,-36.23 3019.24,-29.33"/>
</g>
<!-- docs&#45;meta/docs&#45;&gt;sapkowski_in_english -->
<g id="edge20" class="edge">
<title>docs&#45;meta/docs&#45;&gt;sapkowski_in_english</title>
<path fill="none" stroke="black" d="M3627.42,-79.55C3546.14,-69 3410.86,-51.4 3294.41,-36 3284.88,-34.74 3274.94,-33.42 3265.01,-32.1"/>
<polygon fill="black" stroke="black" points="3265.7,-28.66 3255.32,-30.81 3264.77,-35.6 3265.7,-28.66"/>
</g>
<!-- docs&#45;meta/docs&#45;&gt;plops.github.com -->
<g id="edge19" class="edge">
<title>docs&#45;meta/docs&#45;&gt;plops.github.com</title>
<path fill="none" stroke="black" d="M3644.17,-75.83C3595.13,-64.35 3523.8,-47.65 3471.15,-35.33"/>
<polygon fill="black" stroke="black" points="3472.22,-31.98 3461.68,-33.11 3470.62,-38.8 3472.22,-31.98"/>
</g>
<!-- docs&#45;meta/docs&#45;&gt;phd_thesis_final -->
<g id="edge18" class="edge">
<title>docs&#45;meta/docs&#45;&gt;phd_thesis_final</title>
<path fill="none" stroke="black" d="M3678.61,-72.41C3666.89,-63.5 3652.25,-52.36 3639.37,-42.56"/>
<polygon fill="black" stroke="black" points="3641.66,-39.9 3631.58,-36.63 3637.42,-45.47 3641.66,-39.9"/>
</g>
<!-- docs&#45;meta/docs&#45;&gt;olisun_psych -->
<g id="edge17" class="edge">
<title>docs&#45;meta/docs&#45;&gt;olisun_psych</title>
<path fill="none" stroke="black" d="M3722.21,-72.41C3734.01,-63.43 3748.78,-52.19 3761.73,-42.34"/>
<polygon fill="black" stroke="black" points="3763.72,-45.23 3769.56,-36.39 3759.48,-39.66 3763.72,-45.23"/>
</g>
<!-- docs&#45;meta/docs&#45;&gt;mbti -->
<g id="edge16" class="edge">
<title>docs&#45;meta/docs&#45;&gt;mbti</title>
<path fill="none" stroke="black" d="M3751.22,-74.92C3786.57,-64.83 3834.66,-50.51 3876.41,-36 3878.46,-35.29 3880.55,-34.54 3882.66,-33.76"/>
<polygon fill="black" stroke="black" points="3883.64,-37.14 3891.75,-30.32 3881.15,-30.59 3883.64,-37.14"/>
</g>
<!-- docs&#45;meta/docs&#45;&gt;hypermedia&#45;systems&#45;book&#45;summary -->
<g id="edge15" class="edge">
<title>docs&#45;meta/docs&#45;&gt;hypermedia&#45;systems&#45;book&#45;summary</title>
<path fill="none" stroke="black" d="M3769.72,-78.52C3844.89,-67.16 3965.88,-48.86 4053.92,-35.55"/>
<polygon fill="black" stroke="black" points="4054.44,-39.01 4063.8,-34.06 4053.39,-32.09 4054.44,-39.01"/>
</g>
<!-- docs&#45;meta/docs&#45;&gt;diploma_thesis -->
<g id="edge14" class="edge">
<title>docs&#45;meta/docs&#45;&gt;diploma_thesis</title>
<path fill="none" stroke="black" d="M3785.32,-84.88C3911.86,-78.13 4157.24,-62.74 4364.41,-36 4371.58,-35.07 4379.04,-33.98 4386.47,-32.79"/>
<polygon fill="black" stroke="black" points="4386.92,-36.27 4396.22,-31.19 4385.78,-29.36 4386.92,-36.27"/>
</g>
<!-- docs&#45;meta/docs&#45;&gt;chinesisch&#45;lernen -->
<g id="edge13" class="edge">
<title>docs&#45;meta/docs&#45;&gt;chinesisch&#45;lernen</title>
<path fill="none" stroke="black" d="M3787.01,-86.36C3941.53,-81.04 4274.79,-66.82 4554.41,-36 4562.79,-35.08 4571.52,-33.95 4580.22,-32.73"/>
<polygon fill="black" stroke="black" points="4580.72,-36.2 4590.11,-31.29 4579.71,-29.27 4580.72,-36.2"/>
</g>
<!-- docs&#45;meta/docs&#45;&gt;BasicEnglishDeutschCesky -->
<g id="edge12" class="edge">
<title>docs&#45;meta/docs&#45;&gt;BasicEnglishDeutschCesky</title>
<path fill="none" stroke="black" d="M3787.12,-86.44C3969.27,-80.67 4404.95,-64.87 4769.41,-36 4782.8,-34.94 4796.83,-33.66 4810.74,-32.28"/>
<polygon fill="black" stroke="black" points="4810.75,-35.79 4820.35,-31.3 4810.05,-28.83 4810.75,-35.79"/>
</g>
<!-- docs&#45;meta/ada -->
<g id="node37" class="node">
<title>docs&#45;meta/ada</title>
<ellipse fill="none" stroke="black" cx="5213.41" cy="-90" rx="83.3" ry="18"/>
<text xml:space="preserve" text-anchor="middle" x="5213.41" y="-85.33" font-family="Times,serif" font-size="14.00">docs&#45;meta/ada</text>
</g>
<!-- docs&#45;meta/ada&#45;&gt;learn_ada_simple_task -->
<g id="edge11" class="edge">
<title>docs&#45;meta/ada&#45;&gt;learn_ada_simple_task</title>
<path fill="none" stroke="black" d="M5213.41,-71.7C5213.41,-64.41 5213.41,-55.73 5213.41,-47.54"/>
<polygon fill="black" stroke="black" points="5216.91,-47.62 5213.41,-37.62 5209.91,-47.62 5216.91,-47.62"/>
</g>
<!-- docs&#45;meta/ada&#45;&gt;ada_recall_fosdem2019 -->
<g id="edge10" class="edge">
<title>docs&#45;meta/ada&#45;&gt;ada_recall_fosdem2019</title>
<path fill="none" stroke="black" d="M5265.27,-75.5C5307.02,-64.64 5366.11,-49.26 5412.12,-37.29"/>
<polygon fill="black" stroke="black" points="5412.95,-40.69 5421.74,-34.79 5411.19,-33.92 5412.95,-40.69"/>
</g>
<!-- docs&#45;meta -->
<g id="node38" class="node">
<title>docs&#45;meta</title>
<ellipse fill="none" stroke="black" cx="1218.41" cy="-162" rx="62.26" ry="18"/>
<text xml:space="preserve" text-anchor="middle" x="1218.41" y="-157.32" font-family="Times,serif" font-size="14.00">docs&#45;meta</text>
</g>
<!-- docs&#45;meta&#45;&gt;docs&#45;meta/web -->
<g id="edge9" class="edge">
<title>docs&#45;meta&#45;&gt;docs&#45;meta/web</title>
<path fill="none" stroke="black" d="M1156.87,-158.45C1018.23,-152.42 670.94,-135.64 381.41,-108 364.59,-106.39 346.61,-104.33 329.48,-102.2"/>
<polygon fill="black" stroke="black" points="330.24,-98.77 319.88,-100.99 329.36,-105.71 330.24,-98.77"/>
</g>
<!-- docs&#45;meta&#45;&gt;docs&#45;meta/unknown -->
<g id="edge8" class="edge">
<title>docs&#45;meta&#45;&gt;docs&#45;meta/unknown</title>
<path fill="none" stroke="black" d="M1160.04,-155.3C1038.85,-143.47 758.55,-116.1 605.59,-101.17"/>
<polygon fill="black" stroke="black" points="606.15,-97.71 595.86,-100.22 605.47,-104.68 606.15,-97.71"/>
</g>
<!-- docs&#45;meta&#45;&gt;docs&#45;meta/shell -->
<g id="edge7" class="edge">
<title>docs&#45;meta&#45;&gt;docs&#45;meta/shell</title>
<path fill="none" stroke="black" d="M1164.77,-152.49C1087.95,-140.29 946.04,-117.77 856.96,-103.63"/>
<polygon fill="black" stroke="black" points="857.75,-100.21 847.33,-102.1 856.66,-107.12 857.75,-100.21"/>
</g>
<!-- docs&#45;meta&#45;&gt;docs&#45;meta/rust -->
<g id="edge6" class="edge">
<title>docs&#45;meta&#45;&gt;docs&#45;meta/rust</title>
<path fill="none" stroke="black" d="M1177.73,-148C1143.5,-137.06 1094.19,-121.3 1056.1,-109.12"/>
<polygon fill="black" stroke="black" points="1057.2,-105.8 1046.61,-106.09 1055.07,-112.47 1057.2,-105.8"/>
</g>
<!-- docs&#45;meta&#45;&gt;docs&#45;meta/python -->
<g id="edge5" class="edge">
<title>docs&#45;meta&#45;&gt;docs&#45;meta/python</title>
<path fill="none" stroke="black" d="M1218.41,-143.7C1218.41,-136.41 1218.41,-127.73 1218.41,-119.54"/>
<polygon fill="black" stroke="black" points="1221.91,-119.62 1218.41,-109.62 1214.91,-119.62 1221.91,-119.62"/>
</g>
<!-- docs&#45;meta&#45;&gt;docs&#45;meta/latex -->
<g id="edge4" class="edge">
<title>docs&#45;meta&#45;&gt;docs&#45;meta/latex</title>
<path fill="none" stroke="black" d="M1274.3,-153.67C1367.93,-141.4 1557.07,-116.61 1667.32,-102.15"/>
<polygon fill="black" stroke="black" points="1667.76,-105.63 1677.22,-100.86 1666.85,-98.69 1667.76,-105.63"/>
</g>
<!-- docs&#45;meta&#45;&gt;docs&#45;meta/elisp -->
<g id="edge3" class="edge">
<title>docs&#45;meta&#45;&gt;docs&#45;meta/elisp</title>
<path fill="none" stroke="black" d="M1278.48,-156.7C1443.18,-144.91 1902.87,-112.01 2102.21,-97.74"/>
<polygon fill="black" stroke="black" points="2102.29,-101.25 2112.01,-97.04 2101.79,-94.26 2102.29,-101.25"/>
</g>
<!-- docs&#45;meta&#45;&gt;docs&#45;meta/docs -->
<g id="edge2" class="edge">
<title>docs&#45;meta&#45;&gt;docs&#45;meta/docs</title>
<path fill="none" stroke="black" d="M1280.38,-159.25C1613.45,-149.86 3191.09,-105.36 3602.24,-93.77"/>
<polygon fill="black" stroke="black" points="3602.07,-97.27 3611.97,-93.49 3601.88,-90.28 3602.07,-97.27"/>
</g>
<!-- docs&#45;meta&#45;&gt;docs&#45;meta/ada -->
<g id="edge1" class="edge">
<title>docs&#45;meta&#45;&gt;docs&#45;meta/ada</title>
<path fill="none" stroke="black" d="M1280.76,-159.91C1737.56,-151.9 4565.39,-102.35 5119.33,-92.65"/>
<polygon fill="black" stroke="black" points="5118.99,-96.15 5128.93,-92.48 5118.87,-89.16 5118.99,-96.15"/>
</g>
</g>
</svg>
