<?xml version="1.0" encoding="UTF-8" standalone="no"?>
<!DOCTYPE svg PUBLIC "-//W3C//DTD SVG 1.1//EN"
 "http://www.w3.org/Graphics/SVG/1.1/DTD/svg11.dtd">
<!-- Generated by graphviz version 2.44.0 (0)
 -->
<!-- Title: G Pages: 1 -->
<svg width="4010pt" height="404pt"
 viewBox="0.00 0.00 4009.76 404.00" xmlns="http://www.w3.org/2000/svg" xmlns:xlink="http://www.w3.org/1999/xlink">
<g id="graph0" class="graph" transform="scale(1 1) rotate(0) translate(4 400)">
<title>G</title>
<polygon fill="white" stroke="transparent" points="-4,4 -4,-400 4005.76,-400 4005.76,4 -4,4"/>
<!-- main -->
<g id="node1" class="node">
<title>main</title>
<ellipse fill="none" stroke="black" cx="3049.91" cy="-378" rx="33.29" ry="18"/>
<text text-anchor="middle" x="3049.91" y="-374.3" font-family="Times-Roman" font-size="14.00">main</text>
</g>
<!-- sexpr -->
<g id="node2" class="node">
<title>sexpr</title>
<ellipse fill="none" stroke="black" cx="3049.91" cy="-306" rx="36.29" ry="18"/>
<text text-anchor="middle" x="3049.91" y="-302.3" font-family="Times-Roman" font-size="14.00">sexpr</text>
</g>
<!-- main&#45;&gt;sexpr -->
<g id="edge1" class="edge">
<title>main&#45;&gt;sexpr</title>
<path fill="none" stroke="black" d="M3049.91,-359.7C3049.91,-351.98 3049.91,-342.71 3049.91,-334.11"/>
<polygon fill="black" stroke="black" points="3053.41,-334.1 3049.91,-324.1 3046.41,-334.1 3053.41,-334.1"/>
</g>
<!-- sdr -->
<g id="node3" class="node">
<title>sdr</title>
<ellipse fill="none" stroke="black" cx="40.91" cy="-234" rx="27" ry="18"/>
<text text-anchor="middle" x="40.91" y="-230.3" font-family="Times-Roman" font-size="14.00">sdr</text>
</g>
<!-- main&#45;&gt;sdr -->
<g id="edge2" class="edge">
<title>main&#45;&gt;sdr</title>
<path fill="none" stroke="black" d="M3016.66,-376.76C2780.6,-374.8 1333.89,-358.69 162.91,-252 133.97,-249.36 101.38,-244.74 77.17,-240.97"/>
<polygon fill="black" stroke="black" points="77.43,-237.47 67.01,-239.37 76.34,-244.39 77.43,-237.47"/>
</g>
<!-- android -->
<g id="node19" class="node">
<title>android</title>
<ellipse fill="none" stroke="black" cx="3148.91" cy="-306" rx="44.69" ry="18"/>
<text text-anchor="middle" x="3148.91" y="-302.3" font-family="Times-Roman" font-size="14.00">android</text>
</g>
<!-- main&#45;&gt;android -->
<g id="edge19" class="edge">
<title>main&#45;&gt;android</title>
<path fill="none" stroke="black" d="M3069.47,-363.17C3083.64,-353.15 3103.05,-339.43 3119.14,-328.05"/>
<polygon fill="black" stroke="black" points="3121.54,-330.64 3127.68,-322.01 3117.49,-324.93 3121.54,-330.64"/>
</g>
<!-- cpp2 -->
<g id="node6" class="node">
<title>cpp2</title>
<ellipse fill="none" stroke="black" cx="706.91" cy="-234" rx="33.29" ry="18"/>
<text text-anchor="middle" x="706.91" y="-230.3" font-family="Times-Roman" font-size="14.00">cpp2</text>
</g>
<!-- sexpr&#45;&gt;cpp2 -->
<g id="edge5" class="edge">
<title>sexpr&#45;&gt;cpp2</title>
<path fill="none" stroke="black" d="M3013.58,-303.91C2743.07,-295.83 1045.39,-245.11 750.54,-236.3"/>
<polygon fill="black" stroke="black" points="750.36,-232.8 740.26,-236 750.15,-239.79 750.36,-232.8"/>
</g>
<!-- python -->
<g id="node7" class="node">
<title>python</title>
<ellipse fill="none" stroke="black" cx="1852.91" cy="-234" rx="42.49" ry="18"/>
<text text-anchor="middle" x="1852.91" y="-230.3" font-family="Times-Roman" font-size="14.00">python</text>
</g>
<!-- sexpr&#45;&gt;python -->
<g id="edge6" class="edge">
<title>sexpr&#45;&gt;python</title>
<path fill="none" stroke="black" d="M3013.76,-302.89C2841.85,-292.83 2106.99,-249.86 1904.66,-238.03"/>
<polygon fill="black" stroke="black" points="1904.78,-234.53 1894.59,-237.44 1904.37,-241.52 1904.78,-234.53"/>
</g>
<!-- kotlin -->
<g id="node8" class="node">
<title>kotlin</title>
<ellipse fill="none" stroke="black" cx="2897.91" cy="-234" rx="35.19" ry="18"/>
<text text-anchor="middle" x="2897.91" y="-230.3" font-family="Times-Roman" font-size="14.00">kotlin</text>
</g>
<!-- sexpr&#45;&gt;kotlin -->
<g id="edge7" class="edge">
<title>sexpr&#45;&gt;kotlin</title>
<path fill="none" stroke="black" d="M3024.13,-293.13C2998.9,-281.51 2960.3,-263.73 2932.43,-250.9"/>
<polygon fill="black" stroke="black" points="2933.61,-247.59 2923.06,-246.58 2930.68,-253.95 2933.61,-247.59"/>
</g>
<!-- rust -->
<g id="node9" class="node">
<title>rust</title>
<ellipse fill="none" stroke="black" cx="200.91" cy="-234" rx="28.7" ry="18"/>
<text text-anchor="middle" x="200.91" y="-230.3" font-family="Times-Roman" font-size="14.00">rust</text>
</g>
<!-- sexpr&#45;&gt;rust -->
<g id="edge8" class="edge">
<title>sexpr&#45;&gt;rust</title>
<path fill="none" stroke="black" d="M3013.48,-304.39C2793.62,-300.65 1621.22,-280.14 664.91,-252 507.02,-247.35 318.99,-239.86 239.46,-236.6"/>
<polygon fill="black" stroke="black" points="239.55,-233.1 229.42,-236.19 239.27,-240.1 239.55,-233.1"/>
</g>
<!-- elixir -->
<g id="node10" class="node">
<title>elixir</title>
<ellipse fill="none" stroke="black" cx="3163.91" cy="-234" rx="32.49" ry="18"/>
<text text-anchor="middle" x="3163.91" y="-230.3" font-family="Times-Roman" font-size="14.00">elixir</text>
</g>
<!-- sexpr&#45;&gt;elixir -->
<g id="edge9" class="edge">
<title>sexpr&#45;&gt;elixir</title>
<path fill="none" stroke="black" d="M3071.89,-291.5C3089.62,-280.62 3114.73,-265.2 3134.25,-253.22"/>
<polygon fill="black" stroke="black" points="3136.08,-256.2 3142.77,-247.98 3132.42,-250.23 3136.08,-256.2"/>
</g>
<!-- go -->
<g id="node11" class="node">
<title>go</title>
<ellipse fill="none" stroke="black" cx="3463.91" cy="-234" rx="27" ry="18"/>
<text text-anchor="middle" x="3463.91" y="-230.3" font-family="Times-Roman" font-size="14.00">go</text>
</g>
<!-- sexpr&#45;&gt;go -->
<g id="edge10" class="edge">
<title>sexpr&#45;&gt;go</title>
<path fill="none" stroke="black" d="M3076.73,-293.78C3082.64,-291.61 3088.93,-289.54 3094.91,-288 3214.2,-257.3 3360.06,-242.95 3427.06,-237.61"/>
<polygon fill="black" stroke="black" points="3427.42,-241.1 3437.12,-236.83 3426.88,-234.12 3427.42,-241.1"/>
</g>
<!-- js -->
<g id="node12" class="node">
<title>js</title>
<ellipse fill="none" stroke="black" cx="3535.91" cy="-234" rx="27" ry="18"/>
<text text-anchor="middle" x="3535.91" y="-230.3" font-family="Times-Roman" font-size="14.00">js</text>
</g>
<!-- sexpr&#45;&gt;js -->
<g id="edge11" class="edge">
<title>sexpr&#45;&gt;js</title>
<path fill="none" stroke="black" d="M3076.67,-293.53C3082.59,-291.38 3088.89,-289.38 3094.91,-288 3271.07,-247.69 3325.51,-299.32 3499.91,-252 3501.86,-251.47 3503.84,-250.84 3505.81,-250.14"/>
<polygon fill="black" stroke="black" points="3507.53,-253.22 3515.45,-246.18 3504.87,-246.74 3507.53,-253.22"/>
</g>
<!-- matlab -->
<g id="node13" class="node">
<title>matlab</title>
<ellipse fill="none" stroke="black" cx="3622.91" cy="-234" rx="42.49" ry="18"/>
<text text-anchor="middle" x="3622.91" y="-230.3" font-family="Times-Roman" font-size="14.00">matlab</text>
</g>
<!-- sexpr&#45;&gt;matlab -->
<g id="edge12" class="edge">
<title>sexpr&#45;&gt;matlab</title>
<path fill="none" stroke="black" d="M3076.66,-293.47C3082.57,-291.32 3088.88,-289.34 3094.91,-288 3302.47,-241.96 3363.49,-293.93 3571.91,-252 3575.51,-251.28 3579.2,-250.37 3582.88,-249.36"/>
<polygon fill="black" stroke="black" points="3583.92,-252.71 3592.5,-246.49 3581.92,-246 3583.92,-252.71"/>
</g>
<!-- swift -->
<g id="node14" class="node">
<title>swift</title>
<ellipse fill="none" stroke="black" cx="3828.91" cy="-234" rx="31.7" ry="18"/>
<text text-anchor="middle" x="3828.91" y="-230.3" font-family="Times-Roman" font-size="14.00">swift</text>
</g>
<!-- sexpr&#45;&gt;swift -->
<g id="edge13" class="edge">
<title>sexpr&#45;&gt;swift</title>
<path fill="none" stroke="black" d="M3076.64,-293.41C3082.56,-291.27 3088.87,-289.3 3094.91,-288 3346.99,-233.84 3417.03,-274.06 3673.91,-252 3712.68,-248.67 3756.79,-243.72 3788.01,-240.02"/>
<polygon fill="black" stroke="black" points="3788.56,-243.48 3798.08,-238.82 3787.73,-236.53 3788.56,-243.48"/>
</g>
<!-- pluto -->
<g id="node4" class="node">
<title>pluto</title>
<ellipse fill="none" stroke="black" cx="95.91" cy="-90" rx="33.6" ry="18"/>
<text text-anchor="middle" x="95.91" y="-86.3" font-family="Times-Roman" font-size="14.00">pluto</text>
</g>
<!-- sdr&#45;&gt;pluto -->
<g id="edge3" class="edge">
<title>sdr&#45;&gt;pluto</title>
<path fill="none" stroke="black" d="M26.94,-218.25C11.54,-200.12 -9.29,-168.71 4.91,-144 16.21,-124.34 37.93,-111.29 57.31,-103.06"/>
<polygon fill="black" stroke="black" points="58.85,-106.21 66.87,-99.29 56.29,-99.7 58.85,-106.21"/>
</g>
<!-- sar -->
<g id="node5" class="node">
<title>sar</title>
<ellipse fill="none" stroke="black" cx="40.91" cy="-162" rx="27" ry="18"/>
<text text-anchor="middle" x="40.91" y="-158.3" font-family="Times-Roman" font-size="14.00">sar</text>
</g>
<!-- sdr&#45;&gt;sar -->
<g id="edge4" class="edge">
<title>sdr&#45;&gt;sar</title>
<path fill="none" stroke="black" d="M40.91,-215.7C40.91,-207.98 40.91,-198.71 40.91,-190.11"/>
<polygon fill="black" stroke="black" points="44.41,-190.1 40.91,-180.1 37.41,-190.1 44.41,-190.1"/>
</g>
<!-- cpp2&#45;&gt;sar -->
<g id="edge30" class="edge">
<title>cpp2&#45;&gt;sar</title>
<path fill="none" stroke="black" d="M673.99,-231.63C583.97,-227.55 326.38,-213.59 114.91,-180 102,-177.95 87.98,-174.93 75.65,-172.01"/>
<polygon fill="black" stroke="black" points="76.3,-168.57 65.75,-169.6 74.64,-175.37 76.3,-168.57"/>
</g>
<!-- cuda -->
<g id="node16" class="node">
<title>cuda</title>
<ellipse fill="none" stroke="black" cx="242.91" cy="-162" rx="32.49" ry="18"/>
<text text-anchor="middle" x="242.91" y="-158.3" font-family="Times-Roman" font-size="14.00">cuda</text>
</g>
<!-- cpp2&#45;&gt;cuda -->
<g id="edge21" class="edge">
<title>cpp2&#45;&gt;cuda</title>
<path fill="none" stroke="black" d="M673.8,-231.76C601.91,-228.43 426.57,-216.89 284.91,-180 282.29,-179.32 279.61,-178.51 276.95,-177.63"/>
<polygon fill="black" stroke="black" points="278.02,-174.29 267.42,-174.16 275.62,-180.87 278.02,-174.29"/>
</g>
<!-- optix -->
<g id="node18" class="node">
<title>optix</title>
<ellipse fill="none" stroke="black" cx="428.91" cy="-162" rx="33.29" ry="18"/>
<text text-anchor="middle" x="428.91" y="-158.3" font-family="Times-Roman" font-size="14.00">optix</text>
</g>
<!-- cpp2&#45;&gt;optix -->
<g id="edge18" class="edge">
<title>cpp2&#45;&gt;optix</title>
<path fill="none" stroke="black" d="M675.56,-227.65C629.94,-219.49 542.86,-202.47 470.91,-180 468.48,-179.24 465.99,-178.4 463.5,-177.51"/>
<polygon fill="black" stroke="black" points="464.58,-174.18 453.99,-173.93 462.11,-180.73 464.58,-174.18"/>
</g>
<!-- wasm -->
<g id="node20" class="node">
<title>wasm</title>
<ellipse fill="none" stroke="black" cx="516.91" cy="-162" rx="37.09" ry="18"/>
<text text-anchor="middle" x="516.91" y="-158.3" font-family="Times-Roman" font-size="14.00">wasm</text>
</g>
<!-- cpp2&#45;&gt;wasm -->
<g id="edge20" class="edge">
<title>cpp2&#45;&gt;wasm</title>
<path fill="none" stroke="black" d="M680.1,-223.14C651.18,-212.51 603.78,-195.07 562.91,-180 560.38,-179.07 557.77,-178.1 555.13,-177.13"/>
<polygon fill="black" stroke="black" points="556.21,-173.8 545.62,-173.62 553.79,-180.36 556.21,-173.8"/>
</g>
<!-- vulkan -->
<g id="node21" class="node">
<title>vulkan</title>
<ellipse fill="none" stroke="black" cx="611.91" cy="-162" rx="40.09" ry="18"/>
<text text-anchor="middle" x="611.91" y="-158.3" font-family="Times-Roman" font-size="14.00">vulkan</text>
</g>
<!-- cpp2&#45;&gt;vulkan -->
<g id="edge22" class="edge">
<title>cpp2&#45;&gt;vulkan</title>
<path fill="none" stroke="black" d="M687.69,-218.83C674.06,-208.79 655.54,-195.15 640.22,-183.86"/>
<polygon fill="black" stroke="black" points="642.22,-180.98 632.09,-177.87 638.07,-186.62 642.22,-180.98"/>
</g>
<!-- script -->
<g id="node22" class="node">
<title>script</title>
<ellipse fill="none" stroke="black" cx="706.91" cy="-162" rx="36.29" ry="18"/>
<text text-anchor="middle" x="706.91" y="-158.3" font-family="Times-Roman" font-size="14.00">script</text>
</g>
<!-- cpp2&#45;&gt;script -->
<g id="edge23" class="edge">
<title>cpp2&#45;&gt;script</title>
<path fill="none" stroke="black" d="M701.03,-216.05C700.2,-208.23 699.97,-198.75 700.32,-189.98"/>
<polygon fill="black" stroke="black" points="703.83,-190.01 701.05,-179.79 696.85,-189.51 703.83,-190.01"/>
</g>
<!-- cpp2&#45;&gt;script -->
<g id="edge38" class="edge">
<title>cpp2&#45;&gt;script</title>
<path fill="none" stroke="black" d="M712.79,-216.05C713.62,-208.23 713.86,-198.75 713.5,-189.98"/>
<polygon fill="black" stroke="black" points="716.98,-189.51 712.77,-179.79 710,-190.01 716.98,-189.51"/>
</g>
<!-- tbb -->
<g id="node24" class="node">
<title>tbb</title>
<ellipse fill="none" stroke="black" cx="787.91" cy="-162" rx="27" ry="18"/>
<text text-anchor="middle" x="787.91" y="-158.3" font-family="Times-Roman" font-size="14.00">tbb</text>
</g>
<!-- cpp2&#45;&gt;tbb -->
<g id="edge25" class="edge">
<title>cpp2&#45;&gt;tbb</title>
<path fill="none" stroke="black" d="M724.09,-218.15C735.86,-207.98 751.61,-194.37 764.52,-183.21"/>
<polygon fill="black" stroke="black" points="766.85,-185.82 772.13,-176.64 762.28,-180.53 766.85,-185.82"/>
</g>
<!-- embed -->
<g id="node25" class="node">
<title>embed</title>
<ellipse fill="none" stroke="black" cx="335.91" cy="-162" rx="42.49" ry="18"/>
<text text-anchor="middle" x="335.91" y="-158.3" font-family="Times-Roman" font-size="14.00">embed</text>
</g>
<!-- cpp2&#45;&gt;embed -->
<g id="edge26" class="edge">
<title>cpp2&#45;&gt;embed</title>
<path fill="none" stroke="black" d="M674.78,-229.38C616.73,-222.47 490.76,-205.74 386.91,-180 383.55,-179.17 380.09,-178.22 376.63,-177.2"/>
<polygon fill="black" stroke="black" points="377.56,-173.83 366.97,-174.22 375.49,-180.51 377.56,-173.83"/>
</g>
<!-- gui -->
<g id="node28" class="node">
<title>gui</title>
<ellipse fill="none" stroke="black" cx="859.91" cy="-162" rx="27" ry="18"/>
<text text-anchor="middle" x="859.91" y="-158.3" font-family="Times-Roman" font-size="14.00">gui</text>
</g>
<!-- cpp2&#45;&gt;gui -->
<g id="edge31" class="edge">
<title>cpp2&#45;&gt;gui</title>
<path fill="none" stroke="black" d="M731.62,-221.95C755.33,-211.3 792.14,-194.7 823.91,-180 825.7,-179.17 827.54,-178.32 829.39,-177.46"/>
<polygon fill="black" stroke="black" points="831.05,-180.54 838.62,-173.12 828.08,-174.2 831.05,-180.54"/>
</g>
<!-- asio -->
<g id="node34" class="node">
<title>asio</title>
<ellipse fill="none" stroke="black" cx="933.91" cy="-162" rx="28.7" ry="18"/>
<text text-anchor="middle" x="933.91" y="-158.3" font-family="Times-Roman" font-size="14.00">asio</text>
</g>
<!-- cpp2&#45;&gt;asio -->
<g id="edge37" class="edge">
<title>cpp2&#45;&gt;asio</title>
<path fill="none" stroke="black" d="M736.8,-226.06C774.42,-217.01 840.79,-199.94 895.91,-180 898.01,-179.24 900.16,-178.42 902.31,-177.56"/>
<polygon fill="black" stroke="black" points="903.78,-180.73 911.63,-173.62 901.06,-174.28 903.78,-180.73"/>
</g>
<!-- termimg -->
<g id="node37" class="node">
<title>termimg</title>
<ellipse fill="none" stroke="black" cx="1028.91" cy="-162" rx="48.99" ry="18"/>
<text text-anchor="middle" x="1028.91" y="-158.3" font-family="Times-Roman" font-size="14.00">termimg</text>
</g>
<!-- cpp2&#45;&gt;termimg -->
<g id="edge41" class="edge">
<title>cpp2&#45;&gt;termimg</title>
<path fill="none" stroke="black" d="M738.13,-227.72C787.89,-219.09 888.13,-200.82 971.91,-180 975.53,-179.1 979.27,-178.12 983.01,-177.09"/>
<polygon fill="black" stroke="black" points="984.2,-180.39 992.87,-174.3 982.29,-173.65 984.2,-180.39"/>
</g>
<!-- finance -->
<g id="node15" class="node">
<title>finance</title>
<ellipse fill="none" stroke="black" cx="1277.91" cy="-162" rx="44.39" ry="18"/>
<text text-anchor="middle" x="1277.91" y="-158.3" font-family="Times-Roman" font-size="14.00">finance</text>
</g>
<!-- python&#45;&gt;finance -->
<g id="edge14" class="edge">
<title>python&#45;&gt;finance</title>
<path fill="none" stroke="black" d="M1810.84,-231.71C1721.54,-228.32 1506.8,-216.71 1330.91,-180 1327.29,-179.24 1323.57,-178.34 1319.86,-177.34"/>
<polygon fill="black" stroke="black" points="1320.72,-173.94 1310.14,-174.52 1318.77,-180.66 1320.72,-173.94"/>
</g>
<!-- ai -->
<g id="node39" class="node">
<title>ai</title>
<ellipse fill="none" stroke="black" cx="1366.91" cy="-162" rx="27" ry="18"/>
<text text-anchor="middle" x="1366.91" y="-158.3" font-family="Times-Roman" font-size="14.00">ai</text>
</g>
<!-- python&#45;&gt;ai -->
<g id="edge43" class="edge">
<title>python&#45;&gt;ai</title>
<path fill="none" stroke="black" d="M1812.69,-228.43C1740.73,-220.08 1585.29,-201.25 1454.91,-180 1437.53,-177.17 1418.31,-173.51 1402.28,-170.32"/>
<polygon fill="black" stroke="black" points="1402.75,-166.85 1392.26,-168.3 1401.37,-173.71 1402.75,-166.85"/>
</g>
<!-- pyvulkan -->
<g id="node40" class="node">
<title>pyvulkan</title>
<ellipse fill="none" stroke="black" cx="1515.91" cy="-162" rx="51.99" ry="18"/>
<text text-anchor="middle" x="1515.91" y="-158.3" font-family="Times-Roman" font-size="14.00">pyvulkan</text>
</g>
<!-- python&#45;&gt;pyvulkan -->
<g id="edge44" class="edge">
<title>python&#45;&gt;pyvulkan</title>
<path fill="none" stroke="black" d="M1814.3,-226.62C1760.74,-217.53 1660.99,-199.75 1576.91,-180 1572.82,-179.04 1568.59,-177.98 1564.35,-176.89"/>
<polygon fill="black" stroke="black" points="1565.08,-173.46 1554.51,-174.27 1563.28,-180.22 1565.08,-173.46"/>
</g>
<!-- autoweb -->
<g id="node41" class="node">
<title>autoweb</title>
<ellipse fill="none" stroke="black" cx="1634.91" cy="-162" rx="49.29" ry="18"/>
<text text-anchor="middle" x="1634.91" y="-158.3" font-family="Times-Roman" font-size="14.00">autoweb</text>
</g>
<!-- python&#45;&gt;autoweb -->
<g id="edge45" class="edge">
<title>python&#45;&gt;autoweb</title>
<path fill="none" stroke="black" d="M1820.28,-222.52C1783.11,-210.59 1722.13,-191.01 1680.34,-177.59"/>
<polygon fill="black" stroke="black" points="1681.27,-174.21 1670.68,-174.48 1679.13,-180.87 1681.27,-174.21"/>
</g>
<!-- pygui -->
<g id="node44" class="node">
<title>pygui</title>
<ellipse fill="none" stroke="black" cx="1738.91" cy="-162" rx="36.29" ry="18"/>
<text text-anchor="middle" x="1738.91" y="-158.3" font-family="Times-Roman" font-size="14.00">pygui</text>
</g>
<!-- python&#45;&gt;pygui -->
<g id="edge48" class="edge">
<title>python&#45;&gt;pygui</title>
<path fill="none" stroke="black" d="M1829.84,-218.83C1812.43,-208.14 1788.38,-193.37 1769.38,-181.71"/>
<polygon fill="black" stroke="black" points="1771.14,-178.68 1760.79,-176.43 1767.48,-184.65 1771.14,-178.68"/>
</g>
<!-- waveguide -->
<g id="node54" class="node">
<title>waveguide</title>
<ellipse fill="none" stroke="black" cx="1852.91" cy="-162" rx="59.59" ry="18"/>
<text text-anchor="middle" x="1852.91" y="-158.3" font-family="Times-Roman" font-size="14.00">waveguide</text>
</g>
<!-- python&#45;&gt;waveguide -->
<g id="edge58" class="edge">
<title>python&#45;&gt;waveguide</title>
<path fill="none" stroke="black" d="M1852.91,-215.7C1852.91,-207.98 1852.91,-198.71 1852.91,-190.11"/>
<polygon fill="black" stroke="black" points="1856.41,-190.1 1852.91,-180.1 1849.41,-190.1 1856.41,-190.1"/>
</g>
<!-- numba -->
<g id="node60" class="node">
<title>numba</title>
<ellipse fill="none" stroke="black" cx="1972.91" cy="-162" rx="42.49" ry="18"/>
<text text-anchor="middle" x="1972.91" y="-158.3" font-family="Times-Roman" font-size="14.00">numba</text>
</g>
<!-- python&#45;&gt;numba -->
<g id="edge64" class="edge">
<title>python&#45;&gt;numba</title>
<path fill="none" stroke="black" d="M1876.91,-219C1895.06,-208.42 1920.18,-193.76 1940.18,-182.1"/>
<polygon fill="black" stroke="black" points="1942.08,-185.04 1948.96,-176.97 1938.56,-178.99 1942.08,-185.04"/>
</g>
<!-- pycuda -->
<g id="node61" class="node">
<title>pycuda</title>
<ellipse fill="none" stroke="black" cx="2076.91" cy="-162" rx="44.39" ry="18"/>
<text text-anchor="middle" x="2076.91" y="-158.3" font-family="Times-Roman" font-size="14.00">pycuda</text>
</g>
<!-- python&#45;&gt;pycuda -->
<g id="edge65" class="edge">
<title>python&#45;&gt;pycuda</title>
<path fill="none" stroke="black" d="M1886.36,-222.74C1920.86,-212.13 1976.19,-195.05 2023.91,-180 2027.05,-179.01 2030.28,-177.99 2033.54,-176.95"/>
<polygon fill="black" stroke="black" points="2034.82,-180.22 2043.28,-173.84 2032.69,-173.55 2034.82,-180.22"/>
</g>
<!-- cupy -->
<g id="node62" class="node">
<title>cupy</title>
<ellipse fill="none" stroke="black" cx="2171.91" cy="-162" rx="32.49" ry="18"/>
<text text-anchor="middle" x="2171.91" y="-158.3" font-family="Times-Roman" font-size="14.00">cupy</text>
</g>
<!-- python&#45;&gt;cupy -->
<g id="edge66" class="edge">
<title>python&#45;&gt;cupy</title>
<path fill="none" stroke="black" d="M1892.94,-227.85C1947.33,-220.29 2047.26,-204.38 2129.91,-180 2132.51,-179.23 2135.17,-178.37 2137.83,-177.44"/>
<polygon fill="black" stroke="black" points="2139.18,-180.67 2147.32,-173.89 2136.73,-174.11 2139.18,-180.67"/>
</g>
<!-- dask -->
<g id="node63" class="node">
<title>dask</title>
<ellipse fill="none" stroke="black" cx="2254.91" cy="-162" rx="32.49" ry="18"/>
<text text-anchor="middle" x="2254.91" y="-158.3" font-family="Times-Roman" font-size="14.00">dask</text>
</g>
<!-- python&#45;&gt;dask -->
<g id="edge67" class="edge">
<title>python&#45;&gt;dask</title>
<path fill="none" stroke="black" d="M1894.33,-230.13C1961.98,-224.72 2099.98,-210.69 2212.91,-180 2215.53,-179.29 2218.2,-178.46 2220.86,-177.56"/>
<polygon fill="black" stroke="black" points="2222.2,-180.8 2230.38,-174.07 2219.78,-174.23 2222.2,-180.8"/>
</g>
<!-- kot_opengles -->
<g id="node65" class="node">
<title>kot_opengles</title>
<ellipse fill="none" stroke="black" cx="2374.91" cy="-162" rx="69.59" ry="18"/>
<text text-anchor="middle" x="2374.91" y="-158.3" font-family="Times-Roman" font-size="14.00">kot_opengles</text>
</g>
<!-- kotlin&#45;&gt;kot_opengles -->
<g id="edge69" class="edge">
<title>kotlin&#45;&gt;kot_opengles</title>
<path fill="none" stroke="black" d="M2863.5,-229.99C2788.68,-223.22 2605.71,-205.34 2453.91,-180 2447.83,-178.98 2441.5,-177.82 2435.2,-176.58"/>
<polygon fill="black" stroke="black" points="2435.85,-173.14 2425.35,-174.59 2434.46,-180 2435.85,-173.14"/>
</g>
<!-- sensors -->
<g id="node66" class="node">
<title>sensors</title>
<ellipse fill="none" stroke="black" cx="2508.91" cy="-162" rx="46.29" ry="18"/>
<text text-anchor="middle" x="2508.91" y="-158.3" font-family="Times-Roman" font-size="14.00">sensors</text>
</g>
<!-- kotlin&#45;&gt;sensors -->
<g id="edge70" class="edge">
<title>kotlin&#45;&gt;sensors</title>
<path fill="none" stroke="black" d="M2863.94,-229.23C2803.23,-222.14 2672.28,-205.21 2563.91,-180 2560.24,-179.15 2556.46,-178.17 2552.67,-177.14"/>
<polygon fill="black" stroke="black" points="2553.32,-173.68 2542.74,-174.28 2551.38,-180.41 2553.32,-173.68"/>
</g>
<!-- camera -->
<g id="node67" class="node">
<title>camera</title>
<ellipse fill="none" stroke="black" cx="2616.91" cy="-162" rx="44.39" ry="18"/>
<text text-anchor="middle" x="2616.91" y="-158.3" font-family="Times-Roman" font-size="14.00">camera</text>
</g>
<!-- kotlin&#45;&gt;camera -->
<g id="edge71" class="edge">
<title>kotlin&#45;&gt;camera</title>
<path fill="none" stroke="black" d="M2865.98,-226.44C2821.7,-217.15 2739.25,-199.14 2669.91,-180 2666.55,-179.07 2663.08,-178.07 2659.61,-177.03"/>
<polygon fill="black" stroke="black" points="2660.45,-173.63 2649.87,-174.03 2658.39,-180.32 2660.45,-173.63"/>
</g>
<!-- renderscript -->
<g id="node68" class="node">
<title>renderscript</title>
<ellipse fill="none" stroke="black" cx="2744.91" cy="-162" rx="65.79" ry="18"/>
<text text-anchor="middle" x="2744.91" y="-158.3" font-family="Times-Roman" font-size="14.00">renderscript</text>
</g>
<!-- kotlin&#45;&gt;renderscript -->
<g id="edge72" class="edge">
<title>kotlin&#45;&gt;renderscript</title>
<path fill="none" stroke="black" d="M2872.65,-221.44C2849.26,-210.74 2814.06,-194.64 2786.52,-182.04"/>
<polygon fill="black" stroke="black" points="2787.69,-178.72 2777.14,-177.74 2784.77,-185.09 2787.69,-178.72"/>
</g>
<!-- grpc -->
<g id="node69" class="node">
<title>grpc</title>
<ellipse fill="none" stroke="black" cx="2859.91" cy="-162" rx="31.4" ry="18"/>
<text text-anchor="middle" x="2859.91" y="-158.3" font-family="Times-Roman" font-size="14.00">grpc</text>
</g>
<!-- kotlin&#45;&gt;grpc -->
<g id="edge73" class="edge">
<title>kotlin&#45;&gt;grpc</title>
<path fill="none" stroke="black" d="M2888.91,-216.41C2884.36,-208.04 2878.75,-197.71 2873.68,-188.37"/>
<polygon fill="black" stroke="black" points="2876.7,-186.59 2868.85,-179.47 2870.55,-189.93 2876.7,-186.59"/>
</g>
<!-- gps -->
<g id="node70" class="node">
<title>gps</title>
<ellipse fill="none" stroke="black" cx="2935.91" cy="-162" rx="27.1" ry="18"/>
<text text-anchor="middle" x="2935.91" y="-158.3" font-family="Times-Roman" font-size="14.00">gps</text>
</g>
<!-- kotlin&#45;&gt;gps -->
<g id="edge74" class="edge">
<title>kotlin&#45;&gt;gps</title>
<path fill="none" stroke="black" d="M2906.92,-216.41C2911.46,-208.04 2917.07,-197.71 2922.14,-188.37"/>
<polygon fill="black" stroke="black" points="2925.28,-189.93 2926.97,-179.47 2919.12,-186.59 2925.28,-189.93"/>
</g>
<!-- key_secure -->
<g id="node71" class="node">
<title>key_secure</title>
<ellipse fill="none" stroke="black" cx="3041.91" cy="-162" rx="60.39" ry="18"/>
<text text-anchor="middle" x="3041.91" y="-158.3" font-family="Times-Roman" font-size="14.00">key_secure</text>
</g>
<!-- kotlin&#45;&gt;key_secure -->
<g id="edge75" class="edge">
<title>kotlin&#45;&gt;key_secure</title>
<path fill="none" stroke="black" d="M2922.67,-220.97C2944.65,-210.28 2977.16,-194.47 3002.69,-182.07"/>
<polygon fill="black" stroke="black" points="3004.28,-185.19 3011.74,-177.67 3001.22,-178.89 3004.28,-185.19"/>
</g>
<!-- compress -->
<g id="node72" class="node">
<title>compress</title>
<ellipse fill="none" stroke="black" cx="3173.91" cy="-162" rx="53.89" ry="18"/>
<text text-anchor="middle" x="3173.91" y="-158.3" font-family="Times-Roman" font-size="14.00">compress</text>
</g>
<!-- kotlin&#45;&gt;compress -->
<g id="edge76" class="edge">
<title>kotlin&#45;&gt;compress</title>
<path fill="none" stroke="black" d="M2929,-225.47C2970.53,-215.36 3046.36,-196.74 3110.91,-180 3115.04,-178.93 3119.33,-177.8 3123.62,-176.67"/>
<polygon fill="black" stroke="black" points="3124.85,-179.96 3133.61,-174 3123.05,-173.2 3124.85,-179.96"/>
</g>
<!-- encrypt -->
<g id="node73" class="node">
<title>encrypt</title>
<ellipse fill="none" stroke="black" cx="3290.91" cy="-162" rx="45.49" ry="18"/>
<text text-anchor="middle" x="3290.91" y="-158.3" font-family="Times-Roman" font-size="14.00">encrypt</text>
</g>
<!-- kotlin&#45;&gt;encrypt -->
<g id="edge77" class="edge">
<title>kotlin&#45;&gt;encrypt</title>
<path fill="none" stroke="black" d="M2931.92,-229.39C2993.35,-222.5 3126.71,-205.81 3236.91,-180 3240.52,-179.15 3244.24,-178.19 3247.96,-177.16"/>
<polygon fill="black" stroke="black" points="3249.1,-180.47 3257.71,-174.31 3247.13,-173.75 3249.1,-180.47"/>
</g>
<!-- rust&#45;&gt;pluto -->
<g id="edge16" class="edge">
<title>rust&#45;&gt;pluto</title>
<path fill="none" stroke="black" d="M176.69,-224.32C157,-216 130.08,-201.5 114.91,-180 102.21,-162 97.71,-137.21 96.24,-118.36"/>
<polygon fill="black" stroke="black" points="99.74,-118.12 95.7,-108.32 92.75,-118.49 99.74,-118.12"/>
</g>
<!-- rust&#45;&gt;cuda -->
<g id="edge15" class="edge">
<title>rust&#45;&gt;cuda</title>
<path fill="none" stroke="black" d="M210.65,-216.76C215.72,-208.32 222.03,-197.8 227.72,-188.31"/>
<polygon fill="black" stroke="black" points="230.79,-190.01 232.93,-179.63 224.79,-186.41 230.79,-190.01"/>
</g>
<!-- uprof -->
<g id="node17" class="node">
<title>uprof</title>
<ellipse fill="none" stroke="black" cx="157.91" cy="-162" rx="34.39" ry="18"/>
<text text-anchor="middle" x="157.91" y="-158.3" font-family="Times-Roman" font-size="14.00">uprof</text>
</g>
<!-- rust&#45;&gt;uprof -->
<g id="edge17" class="edge">
<title>rust&#45;&gt;uprof</title>
<path fill="none" stroke="black" d="M190.94,-216.76C185.75,-208.32 179.29,-197.8 173.46,-188.31"/>
<polygon fill="black" stroke="black" points="176.35,-186.32 168.13,-179.63 170.38,-189.99 176.35,-186.32"/>
</g>
<!-- phx -->
<g id="node38" class="node">
<title>phx</title>
<ellipse fill="none" stroke="black" cx="3381.91" cy="-162" rx="27.9" ry="18"/>
<text text-anchor="middle" x="3381.91" y="-158.3" font-family="Times-Roman" font-size="14.00">phx</text>
</g>
<!-- elixir&#45;&gt;phx -->
<g id="edge42" class="edge">
<title>elixir&#45;&gt;phx</title>
<path fill="none" stroke="black" d="M3193.18,-225.84C3229.33,-216.67 3292.47,-199.61 3344.91,-180 3346.8,-179.29 3348.72,-178.54 3350.66,-177.74"/>
<polygon fill="black" stroke="black" points="3352.43,-180.79 3360.22,-173.6 3349.66,-174.36 3352.43,-180.79"/>
</g>
<!-- gogui -->
<g id="node75" class="node">
<title>gogui</title>
<ellipse fill="none" stroke="black" cx="3463.91" cy="-162" rx="36.29" ry="18"/>
<text text-anchor="middle" x="3463.91" y="-158.3" font-family="Times-Roman" font-size="14.00">gogui</text>
</g>
<!-- go&#45;&gt;gogui -->
<g id="edge79" class="edge">
<title>go&#45;&gt;gogui</title>
<path fill="none" stroke="black" d="M3463.91,-215.7C3463.91,-207.98 3463.91,-198.71 3463.91,-190.11"/>
<polygon fill="black" stroke="black" points="3467.41,-190.1 3463.91,-180.1 3460.41,-190.1 3467.41,-190.1"/>
</g>
<!-- gogrpc -->
<g id="node77" class="node">
<title>gogrpc</title>
<ellipse fill="none" stroke="black" cx="3560.91" cy="-162" rx="42.49" ry="18"/>
<text text-anchor="middle" x="3560.91" y="-158.3" font-family="Times-Roman" font-size="14.00">gogrpc</text>
</g>
<!-- go&#45;&gt;gogrpc -->
<g id="edge81" class="edge">
<title>go&#45;&gt;gogrpc</title>
<path fill="none" stroke="black" d="M3481.7,-220.16C3495.77,-210.01 3515.69,-195.64 3532.03,-183.84"/>
<polygon fill="black" stroke="black" points="3534.14,-186.63 3540.2,-177.94 3530.05,-180.96 3534.14,-186.63"/>
</g>
<!-- concur_chan -->
<g id="node78" class="node">
<title>concur_chan</title>
<ellipse fill="none" stroke="black" cx="3688.91" cy="-162" rx="67.69" ry="18"/>
<text text-anchor="middle" x="3688.91" y="-158.3" font-family="Times-Roman" font-size="14.00">concur_chan</text>
</g>
<!-- go&#45;&gt;concur_chan -->
<g id="edge82" class="edge">
<title>go&#45;&gt;concur_chan</title>
<path fill="none" stroke="black" d="M3484.98,-222.33C3489.82,-220.08 3494.99,-217.84 3499.91,-216 3542.55,-200.08 3592.15,-186.35 3629.83,-176.85"/>
<polygon fill="black" stroke="black" points="3630.78,-180.22 3639.64,-174.41 3629.09,-173.43 3630.78,-180.22"/>
</g>
<!-- electron -->
<g id="node64" class="node">
<title>electron</title>
<ellipse fill="none" stroke="black" cx="3820.91" cy="-162" rx="46.59" ry="18"/>
<text text-anchor="middle" x="3820.91" y="-158.3" font-family="Times-Roman" font-size="14.00">electron</text>
</g>
<!-- js&#45;&gt;electron -->
<g id="edge68" class="edge">
<title>js&#45;&gt;electron</title>
<path fill="none" stroke="black" d="M3556.48,-222.18C3561.44,-219.88 3566.78,-217.66 3571.91,-216 3655.36,-189.05 3680.77,-200.98 3765.91,-180 3769.47,-179.12 3773.14,-178.15 3776.81,-177.12"/>
<polygon fill="black" stroke="black" points="3777.84,-180.47 3786.46,-174.32 3775.88,-173.75 3777.84,-180.47"/>
</g>
<!-- tensorflow -->
<g id="node74" class="node">
<title>tensorflow</title>
<ellipse fill="none" stroke="black" cx="3943.91" cy="-162" rx="57.69" ry="18"/>
<text text-anchor="middle" x="3943.91" y="-158.3" font-family="Times-Roman" font-size="14.00">tensorflow</text>
</g>
<!-- swift&#45;&gt;tensorflow -->
<g id="edge78" class="edge">
<title>swift&#45;&gt;tensorflow</title>
<path fill="none" stroke="black" d="M3849.74,-220.32C3866.58,-210.07 3890.62,-195.44 3910.19,-183.52"/>
<polygon fill="black" stroke="black" points="3912.11,-186.46 3918.83,-178.27 3908.47,-180.48 3912.11,-186.46"/>
</g>
<!-- lua_in_cpp -->
<g id="node23" class="node">
<title>lua_in_cpp</title>
<ellipse fill="none" stroke="black" cx="477.91" cy="-90" rx="57.69" ry="18"/>
<text text-anchor="middle" x="477.91" y="-86.3" font-family="Times-Roman" font-size="14.00">lua_in_cpp</text>
</g>
<!-- script&#45;&gt;lua_in_cpp -->
<g id="edge24" class="edge">
<title>script&#45;&gt;lua_in_cpp</title>
<path fill="none" stroke="black" d="M678.81,-150.25C672.92,-148.1 666.73,-145.92 660.91,-144 617.26,-129.63 567.09,-115.25 530.33,-105.1"/>
<polygon fill="black" stroke="black" points="530.9,-101.63 520.33,-102.35 529.05,-108.38 530.9,-101.63"/>
</g>
<!-- pybind11 -->
<g id="node35" class="node">
<title>pybind11</title>
<ellipse fill="none" stroke="black" cx="607.91" cy="-90" rx="53.89" ry="18"/>
<text text-anchor="middle" x="607.91" y="-86.3" font-family="Times-Roman" font-size="14.00">pybind11</text>
</g>
<!-- script&#45;&gt;pybind11 -->
<g id="edge39" class="edge">
<title>script&#45;&gt;pybind11</title>
<path fill="none" stroke="black" d="M686.88,-146.83C672.96,-136.99 654.15,-123.69 638.38,-112.54"/>
<polygon fill="black" stroke="black" points="640.17,-109.52 629.98,-106.61 636.13,-115.24 640.17,-109.52"/>
</g>
<!-- embed&#45;&gt;pluto -->
<g id="edge27" class="edge">
<title>embed&#45;&gt;pluto</title>
<path fill="none" stroke="black" d="M303.8,-150.27C297.24,-148.14 290.36,-145.96 283.91,-144 232.69,-128.41 173.14,-111.89 135.01,-101.52"/>
<polygon fill="black" stroke="black" points="135.9,-98.13 125.33,-98.89 134.06,-104.89 135.9,-98.13"/>
</g>
<!-- psoc -->
<g id="node26" class="node">
<title>psoc</title>
<ellipse fill="none" stroke="black" cx="255.91" cy="-90" rx="31.7" ry="18"/>
<text text-anchor="middle" x="255.91" y="-86.3" font-family="Times-Roman" font-size="14.00">psoc</text>
</g>
<!-- embed&#45;&gt;psoc -->
<g id="edge28" class="edge">
<title>embed&#45;&gt;psoc</title>
<path fill="none" stroke="black" d="M318.16,-145.46C306.98,-135.68 292.41,-122.93 280.17,-112.22"/>
<polygon fill="black" stroke="black" points="282.36,-109.49 272.52,-105.54 277.75,-114.76 282.36,-109.49"/>
</g>
<!-- stm32 -->
<g id="node27" class="node">
<title>stm32</title>
<ellipse fill="none" stroke="black" cx="344.91" cy="-90" rx="39.79" ry="18"/>
<text text-anchor="middle" x="344.91" y="-86.3" font-family="Times-Roman" font-size="14.00">stm32</text>
</g>
<!-- embed&#45;&gt;stm32 -->
<g id="edge29" class="edge">
<title>embed&#45;&gt;stm32</title>
<path fill="none" stroke="black" d="M338.14,-143.7C339.13,-135.98 340.32,-126.71 341.43,-118.11"/>
<polygon fill="black" stroke="black" points="344.91,-118.47 342.71,-108.1 337.97,-117.58 344.91,-118.47"/>
</g>
<!-- gtk -->
<g id="node29" class="node">
<title>gtk</title>
<ellipse fill="none" stroke="black" cx="706.91" cy="-90" rx="27" ry="18"/>
<text text-anchor="middle" x="706.91" y="-86.3" font-family="Times-Roman" font-size="14.00">gtk</text>
</g>
<!-- gui&#45;&gt;gtk -->
<g id="edge32" class="edge">
<title>gui&#45;&gt;gtk</title>
<path fill="none" stroke="black" d="M838.63,-150.85C833.8,-148.58 828.69,-146.19 823.91,-144 788.1,-127.59 778.73,-124.41 742.91,-108 741.12,-107.18 739.28,-106.33 737.43,-105.47"/>
<polygon fill="black" stroke="black" points="738.74,-102.22 728.19,-101.15 735.77,-108.56 738.74,-102.22"/>
</g>
<!-- qt -->
<g id="node30" class="node">
<title>qt</title>
<ellipse fill="none" stroke="black" cx="778.91" cy="-90" rx="27" ry="18"/>
<text text-anchor="middle" x="778.91" y="-86.3" font-family="Times-Roman" font-size="14.00">qt</text>
</g>
<!-- gui&#45;&gt;qt -->
<g id="edge33" class="edge">
<title>gui&#45;&gt;qt</title>
<path fill="none" stroke="black" d="M843.91,-147.17C832.15,-137.01 815.98,-123.03 802.7,-111.56"/>
<polygon fill="black" stroke="black" points="804.74,-108.69 794.88,-104.8 800.16,-113.99 804.74,-108.69"/>
</g>
<!-- fltk -->
<g id="node31" class="node">
<title>fltk</title>
<ellipse fill="none" stroke="black" cx="850.91" cy="-90" rx="27" ry="18"/>
<text text-anchor="middle" x="850.91" y="-86.3" font-family="Times-Roman" font-size="14.00">fltk</text>
</g>
<!-- gui&#45;&gt;fltk -->
<g id="edge34" class="edge">
<title>gui&#45;&gt;fltk</title>
<path fill="none" stroke="black" d="M857.73,-144.05C856.74,-136.35 855.54,-127.03 854.43,-118.36"/>
<polygon fill="black" stroke="black" points="857.88,-117.75 853.13,-108.28 850.94,-118.64 857.88,-117.75"/>
</g>
<!-- imgui -->
<g id="node32" class="node">
<title>imgui</title>
<ellipse fill="none" stroke="black" cx="931.91" cy="-90" rx="36.29" ry="18"/>
<text text-anchor="middle" x="931.91" y="-86.3" font-family="Times-Roman" font-size="14.00">imgui</text>
</g>
<!-- gui&#45;&gt;imgui -->
<g id="edge35" class="edge">
<title>gui&#45;&gt;imgui</title>
<path fill="none" stroke="black" d="M874.48,-146.83C884.3,-137.29 897.46,-124.5 908.7,-113.57"/>
<polygon fill="black" stroke="black" points="911.38,-115.84 916.11,-106.36 906.5,-110.82 911.38,-115.84"/>
</g>
<!-- wx -->
<g id="node33" class="node">
<title>wx</title>
<ellipse fill="none" stroke="black" cx="1012.91" cy="-90" rx="27" ry="18"/>
<text text-anchor="middle" x="1012.91" y="-86.3" font-family="Times-Roman" font-size="14.00">wx</text>
</g>
<!-- gui&#45;&gt;wx -->
<g id="edge36" class="edge">
<title>gui&#45;&gt;wx</title>
<path fill="none" stroke="black" d="M881.19,-150.85C886.02,-148.58 891.14,-146.19 895.91,-144 931.73,-127.59 941.1,-124.41 976.91,-108 978.7,-107.18 980.54,-106.33 982.39,-105.47"/>
<polygon fill="black" stroke="black" points="984.06,-108.56 991.63,-101.15 981.09,-102.22 984.06,-108.56"/>
</g>
<!-- trellis -->
<g id="node52" class="node">
<title>trellis</title>
<ellipse fill="none" stroke="black" cx="757.91" cy="-18" rx="35.19" ry="18"/>
<text text-anchor="middle" x="757.91" y="-14.3" font-family="Times-Roman" font-size="14.00">trellis</text>
</g>
<!-- qt&#45;&gt;trellis -->
<g id="edge56" class="edge">
<title>qt&#45;&gt;trellis</title>
<path fill="none" stroke="black" d="M773.83,-72.05C771.49,-64.26 768.66,-54.82 766.04,-46.08"/>
<polygon fill="black" stroke="black" points="769.32,-44.85 763.09,-36.28 762.62,-46.86 769.32,-44.85"/>
</g>
<!-- webengine -->
<g id="node53" class="node">
<title>webengine</title>
<ellipse fill="none" stroke="black" cx="870.91" cy="-18" rx="59.59" ry="18"/>
<text text-anchor="middle" x="870.91" y="-14.3" font-family="Times-Roman" font-size="14.00">webengine</text>
</g>
<!-- qt&#45;&gt;webengine -->
<g id="edge57" class="edge">
<title>qt&#45;&gt;webengine</title>
<path fill="none" stroke="black" d="M796.22,-75.83C809.04,-66.08 826.82,-52.55 841.81,-41.14"/>
<polygon fill="black" stroke="black" points="843.97,-43.9 849.81,-35.06 839.73,-38.33 843.97,-43.9"/>
</g>
<!-- python_in_cpp -->
<g id="node36" class="node">
<title>python_in_cpp</title>
<ellipse fill="none" stroke="black" cx="607.91" cy="-18" rx="76.09" ry="18"/>
<text text-anchor="middle" x="607.91" y="-14.3" font-family="Times-Roman" font-size="14.00">python_in_cpp</text>
</g>
<!-- pybind11&#45;&gt;python_in_cpp -->
<g id="edge40" class="edge">
<title>pybind11&#45;&gt;python_in_cpp</title>
<path fill="none" stroke="black" d="M607.91,-71.7C607.91,-63.98 607.91,-54.71 607.91,-46.11"/>
<polygon fill="black" stroke="black" points="611.41,-46.1 607.91,-36.1 604.41,-46.1 611.41,-46.1"/>
</g>
<!-- megatron -->
<g id="node55" class="node">
<title>megatron</title>
<ellipse fill="none" stroke="black" cx="1111.91" cy="-90" rx="53.89" ry="18"/>
<text text-anchor="middle" x="1111.91" y="-86.3" font-family="Times-Roman" font-size="14.00">megatron</text>
</g>
<!-- ai&#45;&gt;megatron -->
<g id="edge59" class="edge">
<title>ai&#45;&gt;megatron</title>
<path fill="none" stroke="black" d="M1346.29,-150.34C1341.34,-148.04 1336.01,-145.77 1330.91,-144 1263.69,-120.67 1243.94,-125.27 1174.91,-108 1170.77,-106.96 1166.48,-105.86 1162.18,-104.74"/>
<polygon fill="black" stroke="black" points="1162.75,-101.27 1152.18,-102.1 1160.96,-108.04 1162.75,-101.27"/>
</g>
<!-- fastai -->
<g id="node56" class="node">
<title>fastai</title>
<ellipse fill="none" stroke="black" cx="1219.91" cy="-90" rx="36" ry="18"/>
<text text-anchor="middle" x="1219.91" y="-86.3" font-family="Times-Roman" font-size="14.00">fastai</text>
</g>
<!-- ai&#45;&gt;fastai -->
<g id="edge60" class="edge">
<title>ai&#45;&gt;fastai</title>
<path fill="none" stroke="black" d="M1345.54,-150.82C1321.57,-139.41 1282.37,-120.74 1254.13,-107.29"/>
<polygon fill="black" stroke="black" points="1255.54,-104.09 1245.01,-102.95 1252.53,-110.41 1255.54,-104.09"/>
</g>
<!-- fastai2 -->
<g id="node57" class="node">
<title>fastai2</title>
<ellipse fill="none" stroke="black" cx="1314.91" cy="-90" rx="41.69" ry="18"/>
<text text-anchor="middle" x="1314.91" y="-86.3" font-family="Times-Roman" font-size="14.00">fastai2</text>
</g>
<!-- ai&#45;&gt;fastai2 -->
<g id="edge61" class="edge">
<title>ai&#45;&gt;fastai2</title>
<path fill="none" stroke="black" d="M1355.37,-145.46C1348.89,-136.74 1340.66,-125.65 1333.31,-115.76"/>
<polygon fill="black" stroke="black" points="1335.92,-113.41 1327.14,-107.47 1330.3,-117.58 1335.92,-113.41"/>
</g>
<!-- pytorch -->
<g id="node59" class="node">
<title>pytorch</title>
<ellipse fill="none" stroke="black" cx="1418.91" cy="-90" rx="44.69" ry="18"/>
<text text-anchor="middle" x="1418.91" y="-86.3" font-family="Times-Roman" font-size="14.00">pytorch</text>
</g>
<!-- ai&#45;&gt;pytorch -->
<g id="edge63" class="edge">
<title>ai&#45;&gt;pytorch</title>
<path fill="none" stroke="black" d="M1378.45,-145.46C1384.93,-136.74 1393.17,-125.65 1400.52,-115.76"/>
<polygon fill="black" stroke="black" points="1403.53,-117.58 1406.68,-107.47 1397.91,-113.41 1403.53,-117.58"/>
</g>
<!-- helium -->
<g id="node42" class="node">
<title>helium</title>
<ellipse fill="none" stroke="black" cx="1522.91" cy="-90" rx="41.69" ry="18"/>
<text text-anchor="middle" x="1522.91" y="-86.3" font-family="Times-Roman" font-size="14.00">helium</text>
</g>
<!-- autoweb&#45;&gt;helium -->
<g id="edge46" class="edge">
<title>autoweb&#45;&gt;helium</title>
<path fill="none" stroke="black" d="M1611.16,-146.15C1594.76,-135.9 1572.75,-122.15 1554.82,-110.94"/>
<polygon fill="black" stroke="black" points="1556.2,-107.68 1545.86,-105.35 1552.49,-113.61 1556.2,-107.68"/>
</g>
<!-- selenium -->
<g id="node43" class="node">
<title>selenium</title>
<ellipse fill="none" stroke="black" cx="1634.91" cy="-90" rx="51.99" ry="18"/>
<text text-anchor="middle" x="1634.91" y="-86.3" font-family="Times-Roman" font-size="14.00">selenium</text>
</g>
<!-- autoweb&#45;&gt;selenium -->
<g id="edge47" class="edge">
<title>autoweb&#45;&gt;selenium</title>
<path fill="none" stroke="black" d="M1634.91,-143.7C1634.91,-135.98 1634.91,-126.71 1634.91,-118.11"/>
<polygon fill="black" stroke="black" points="1638.41,-118.1 1634.91,-108.1 1631.41,-118.1 1638.41,-118.1"/>
</g>
<!-- pywx -->
<g id="node45" class="node">
<title>pywx</title>
<ellipse fill="none" stroke="black" cx="1738.91" cy="-90" rx="34.39" ry="18"/>
<text text-anchor="middle" x="1738.91" y="-86.3" font-family="Times-Roman" font-size="14.00">pywx</text>
</g>
<!-- pygui&#45;&gt;pywx -->
<g id="edge49" class="edge">
<title>pygui&#45;&gt;pywx</title>
<path fill="none" stroke="black" d="M1738.91,-143.7C1738.91,-135.98 1738.91,-126.71 1738.91,-118.11"/>
<polygon fill="black" stroke="black" points="1742.41,-118.1 1738.91,-108.1 1735.41,-118.1 1742.41,-118.1"/>
</g>
<!-- gtk3 -->
<g id="node46" class="node">
<title>gtk3</title>
<ellipse fill="none" stroke="black" cx="1822.91" cy="-90" rx="31.4" ry="18"/>
<text text-anchor="middle" x="1822.91" y="-86.3" font-family="Times-Roman" font-size="14.00">gtk3</text>
</g>
<!-- pygui&#45;&gt;gtk3 -->
<g id="edge50" class="edge">
<title>pygui&#45;&gt;gtk3</title>
<path fill="none" stroke="black" d="M1756.73,-146.15C1768.69,-136.18 1784.63,-122.9 1797.86,-111.87"/>
<polygon fill="black" stroke="black" points="1800.26,-114.44 1805.7,-105.35 1795.78,-109.06 1800.26,-114.44"/>
</g>
<!-- pyqt -->
<g id="node47" class="node">
<title>pyqt</title>
<ellipse fill="none" stroke="black" cx="1902.91" cy="-90" rx="31.4" ry="18"/>
<text text-anchor="middle" x="1902.91" y="-86.3" font-family="Times-Roman" font-size="14.00">pyqt</text>
</g>
<!-- pygui&#45;&gt;pyqt -->
<g id="edge51" class="edge">
<title>pygui&#45;&gt;pyqt</title>
<path fill="none" stroke="black" d="M1765.63,-149.6C1793.88,-137.54 1838.53,-118.48 1869.19,-105.39"/>
<polygon fill="black" stroke="black" points="1870.79,-108.51 1878.62,-101.37 1868.05,-102.08 1870.79,-108.51"/>
</g>
<!-- glumpy -->
<g id="node49" class="node">
<title>glumpy</title>
<ellipse fill="none" stroke="black" cx="1996.91" cy="-90" rx="44.69" ry="18"/>
<text text-anchor="middle" x="1996.91" y="-86.3" font-family="Times-Roman" font-size="14.00">glumpy</text>
</g>
<!-- pygui&#45;&gt;glumpy -->
<g id="edge53" class="edge">
<title>pygui&#45;&gt;glumpy</title>
<path fill="none" stroke="black" d="M1766.31,-149.96C1772.07,-147.83 1778.15,-145.73 1783.91,-144 1853.3,-123.15 1872.96,-126.89 1942.91,-108 1946.44,-107.05 1950.08,-106.01 1953.73,-104.94"/>
<polygon fill="black" stroke="black" points="1954.77,-108.28 1963.34,-102.04 1952.75,-101.58 1954.77,-108.28"/>
</g>
<!-- tkinter -->
<g id="node50" class="node">
<title>tkinter</title>
<ellipse fill="none" stroke="black" cx="2099.91" cy="-90" rx="40.09" ry="18"/>
<text text-anchor="middle" x="2099.91" y="-86.3" font-family="Times-Roman" font-size="14.00">tkinter</text>
</g>
<!-- pygui&#45;&gt;tkinter -->
<g id="edge54" class="edge">
<title>pygui&#45;&gt;tkinter</title>
<path fill="none" stroke="black" d="M1765.72,-149.74C1771.63,-147.57 1777.92,-145.51 1783.91,-144 1900,-114.65 1934.43,-135.76 2050.91,-108 2054.11,-107.24 2057.39,-106.35 2060.67,-105.38"/>
<polygon fill="black" stroke="black" points="2061.92,-108.66 2070.4,-102.31 2059.81,-101.98 2061.92,-108.66"/>
</g>
<!-- visdom -->
<g id="node51" class="node">
<title>visdom</title>
<ellipse fill="none" stroke="black" cx="2201.91" cy="-90" rx="43.59" ry="18"/>
<text text-anchor="middle" x="2201.91" y="-86.3" font-family="Times-Roman" font-size="14.00">visdom</text>
</g>
<!-- pygui&#45;&gt;visdom -->
<g id="edge55" class="edge">
<title>pygui&#45;&gt;visdom</title>
<path fill="none" stroke="black" d="M1765.68,-149.57C1771.6,-147.42 1777.89,-145.41 1783.91,-144 1942.64,-106.88 1989.29,-141.08 2148.91,-108 2152.58,-107.24 2156.36,-106.32 2160.12,-105.31"/>
<polygon fill="black" stroke="black" points="2161.34,-108.59 2169.97,-102.45 2159.39,-101.87 2161.34,-108.59"/>
</g>
<!-- webkit -->
<g id="node48" class="node">
<title>webkit</title>
<ellipse fill="none" stroke="black" cx="1902.91" cy="-18" rx="40.09" ry="18"/>
<text text-anchor="middle" x="1902.91" y="-14.3" font-family="Times-Roman" font-size="14.00">webkit</text>
</g>
<!-- pyqt&#45;&gt;webkit -->
<g id="edge52" class="edge">
<title>pyqt&#45;&gt;webkit</title>
<path fill="none" stroke="black" d="M1902.91,-71.7C1902.91,-63.98 1902.91,-54.71 1902.91,-46.11"/>
<polygon fill="black" stroke="black" points="1906.41,-46.1 1902.91,-36.1 1899.41,-46.1 1906.41,-46.1"/>
</g>
<!-- nlp -->
<g id="node58" class="node">
<title>nlp</title>
<ellipse fill="none" stroke="black" cx="1314.91" cy="-18" rx="27" ry="18"/>
<text text-anchor="middle" x="1314.91" y="-14.3" font-family="Times-Roman" font-size="14.00">nlp</text>
</g>
<!-- fastai2&#45;&gt;nlp -->
<g id="edge62" class="edge">
<title>fastai2&#45;&gt;nlp</title>
<path fill="none" stroke="black" d="M1314.91,-71.7C1314.91,-63.98 1314.91,-54.71 1314.91,-46.11"/>
<polygon fill="black" stroke="black" points="1318.41,-46.1 1314.91,-36.1 1311.41,-46.1 1318.41,-46.1"/>
</g>
<!-- fayne -->
<g id="node76" class="node">
<title>fayne</title>
<ellipse fill="none" stroke="black" cx="3463.91" cy="-90" rx="36.29" ry="18"/>
<text text-anchor="middle" x="3463.91" y="-86.3" font-family="Times-Roman" font-size="14.00">fayne</text>
</g>
<!-- gogui&#45;&gt;fayne -->
<g id="edge80" class="edge">
<title>gogui&#45;&gt;fayne</title>
<path fill="none" stroke="black" d="M3463.91,-143.7C3463.91,-135.98 3463.91,-126.71 3463.91,-118.11"/>
<polygon fill="black" stroke="black" points="3467.41,-118.1 3463.91,-108.1 3460.41,-118.1 3467.41,-118.1"/>
</g>
</g>
</svg>
