<?xml version="1.0" encoding="UTF-8" standalone="no"?>
<!DOCTYPE svg PUBLIC "-//W3C//DTD SVG 1.1//EN"
 "http://www.w3.org/Graphics/SVG/1.1/DTD/svg11.dtd">
<!-- Generated by graphviz version 14.1.2 (0)
 -->
<!-- Pages: 1 -->
<svg width="3336pt" height="188pt"
 viewBox="0.00 0.00 3336.00 188.00" xmlns="http://www.w3.org/2000/svg" xmlns:xlink="http://www.w3.org/1999/xlink">
<g id="graph0" class="graph" transform="scale(1 1) rotate(0) translate(4 184)">
<polygon fill="white" stroke="none" points="-4,4 -4,-184 3332.15,-184 3332.15,4 -4,4"/>
<!-- plops&#45;pages -->
<g id="node1" class="node">
<title>plops&#45;pages</title>
<g id="a_node1"><a xlink:href="https://github.com/plops/plops-pages" xlink:title="plops&#45;pages">
<ellipse fill="none" stroke="blue" cx="70.67" cy="-18" rx="70.67" ry="18"/>
<text xml:space="preserve" text-anchor="middle" x="70.67" y="-13.32" font-family="Times,serif" font-size="14.00">plops&#45;pages</text>
</a>
</g>
</g>
<!-- mosh&#45;tcp -->
<g id="node2" class="node">
<title>mosh&#45;tcp</title>
<g id="a_node2"><a xlink:href="https://github.com/plops/mosh-tcp" xlink:title="mosh&#45;tcp">
<ellipse fill="none" stroke="blue" cx="216.67" cy="-18" rx="57" ry="18"/>
<text xml:space="preserve" text-anchor="middle" x="216.67" y="-13.32" font-family="Times,serif" font-size="14.00">mosh&#45;tcp</text>
</a>
</g>
</g>
<!-- try_py_selenium -->
<g id="node3" class="node">
<title>try_py_selenium</title>
<g id="a_node3"><a xlink:href="https://github.com/plops/try_py_selenium" xlink:title="try_py_selenium">
<ellipse fill="none" stroke="blue" cx="384.67" cy="-18" rx="92.77" ry="18"/>
<text xml:space="preserve" text-anchor="middle" x="384.67" y="-13.32" font-family="Times,serif" font-size="14.00">try_py_selenium</text>
</a>
</g>
</g>
<!-- cl_ctl_linkedin -->
<g id="node4" class="node">
<title>cl_ctl_linkedin</title>
<g id="a_node4"><a xlink:href="https://github.com/plops/cl_ctl_linkedin" xlink:title="cl_ctl_linkedin">
<ellipse fill="none" stroke="blue" cx="576.67" cy="-18" rx="81.72" ry="18"/>
<text xml:space="preserve" text-anchor="middle" x="576.67" y="-13.32" font-family="Times,serif" font-size="14.00">cl_ctl_linkedin</text>
</a>
</g>
</g>
<!-- sb&#45;httpd&#45;nonblock -->
<g id="node5" class="node">
<title>sb&#45;httpd&#45;nonblock</title>
<g id="a_node5"><a xlink:href="https://github.com/plops/sb-httpd-nonblock" xlink:title="sb&#45;httpd&#45;nonblock">
<ellipse fill="none" stroke="blue" cx="777.67" cy="-18" rx="101.19" ry="18"/>
<text xml:space="preserve" text-anchor="middle" x="777.67" y="-13.32" font-family="Times,serif" font-size="14.00">sb&#45;httpd&#45;nonblock</text>
</a>
</g>
</g>
<!-- py_scrape_stuff -->
<g id="node6" class="node">
<title>py_scrape_stuff</title>
<g id="a_node6"><a xlink:href="https://github.com/plops/py_scrape_stuff" xlink:title="py_scrape_stuff">
<ellipse fill="none" stroke="blue" cx="985.67" cy="-18" rx="88.56" ry="18"/>
<text xml:space="preserve" text-anchor="middle" x="985.67" y="-13.32" font-family="Times,serif" font-size="14.00">py_scrape_stuff</text>
</a>
</g>
</g>
<!-- py_scrape_leb -->
<g id="node7" class="node">
<title>py_scrape_leb</title>
<g id="a_node7"><a xlink:href="https://github.com/plops/py_scrape_leb" xlink:title="py_scrape_leb">
<ellipse fill="none" stroke="blue" cx="1173.67" cy="-18" rx="81.2" ry="18"/>
<text xml:space="preserve" text-anchor="middle" x="1173.67" y="-13.32" font-family="Times,serif" font-size="14.00">py_scrape_leb</text>
</a>
</g>
</g>
<!-- lisp&#45;http -->
<g id="node8" class="node">
<title>lisp&#45;http</title>
<g id="a_node8"><a xlink:href="https://github.com/plops/lisp-http" xlink:title="lisp&#45;http">
<ellipse fill="none" stroke="blue" cx="1326.67" cy="-18" rx="53.31" ry="18"/>
<text xml:space="preserve" text-anchor="middle" x="1326.67" y="-13.32" font-family="Times,serif" font-size="14.00">lisp&#45;http</text>
</a>
</g>
</g>
<!-- http&#45;jq&#45;raw&#45;png -->
<g id="node9" class="node">
<title>http&#45;jq&#45;raw&#45;png</title>
<g id="a_node9"><a xlink:href="https://github.com/plops/http-jq-raw-png" xlink:title="http&#45;jq&#45;raw&#45;png">
<ellipse fill="none" stroke="blue" cx="1486.67" cy="-18" rx="89.09" ry="18"/>
<text xml:space="preserve" text-anchor="middle" x="1486.67" y="-13.32" font-family="Times,serif" font-size="14.00">http&#45;jq&#45;raw&#45;png</text>
</a>
</g>
</g>
<!-- cl_ctl_colab -->
<g id="node10" class="node">
<title>cl_ctl_colab</title>
<g id="a_node10"><a xlink:href="https://github.com/plops/cl_ctl_colab" xlink:title="cl_ctl_colab">
<ellipse fill="none" stroke="blue" cx="1661.67" cy="-18" rx="68.04" ry="18"/>
<text xml:space="preserve" text-anchor="middle" x="1661.67" y="-13.32" font-family="Times,serif" font-size="14.00">cl_ctl_colab</text>
</a>
</g>
</g>
<!-- cl&#45;web&#45;ui -->
<g id="node11" class="node">
<title>cl&#45;web&#45;ui</title>
<g id="a_node11"><a xlink:href="https://github.com/plops/cl-web-ui" xlink:title="cl&#45;web&#45;ui">
<ellipse fill="none" stroke="blue" cx="1803.67" cy="-18" rx="55.94" ry="18"/>
<text xml:space="preserve" text-anchor="middle" x="1803.67" y="-13.32" font-family="Times,serif" font-size="14.00">cl&#45;web&#45;ui</text>
</a>
</g>
</g>
<!-- cl&#45;grab&#45;web -->
<g id="node12" class="node">
<title>cl&#45;grab&#45;web</title>
<g id="a_node12"><a xlink:href="https://github.com/plops/cl-grab-web" xlink:title="cl&#45;grab&#45;web">
<ellipse fill="none" stroke="blue" cx="1947.67" cy="-18" rx="69.62" ry="18"/>
<text xml:space="preserve" text-anchor="middle" x="1947.67" y="-13.32" font-family="Times,serif" font-size="14.00">cl&#45;grab&#45;web</text>
</a>
</g>
</g>
<!-- cl&#45;gen&#45;cpp&#45;wasm -->
<g id="node13" class="node">
<title>cl&#45;gen&#45;cpp&#45;wasm</title>
<g id="a_node13"><a xlink:href="https://github.com/plops/cl-gen-cpp-wasm" xlink:title="cl&#45;gen&#45;cpp&#45;wasm">
<ellipse fill="none" stroke="blue" cx="2129.67" cy="-18" rx="94.35" ry="18"/>
<text xml:space="preserve" text-anchor="middle" x="2129.67" y="-13.32" font-family="Times,serif" font-size="14.00">cl&#45;gen&#45;cpp&#45;wasm</text>
</a>
</g>
</g>
<!-- c_net -->
<g id="node14" class="node">
<title>c_net</title>
<g id="a_node14"><a xlink:href="https://github.com/plops/c_net" xlink:title="c_net">
<ellipse fill="none" stroke="blue" cx="2279.67" cy="-18" rx="37.53" ry="18"/>
<text xml:space="preserve" text-anchor="middle" x="2279.67" y="-13.32" font-family="Times,serif" font-size="14.00">c_net</text>
</a>
</g>
</g>
<!-- plops.github.io -->
<g id="node15" class="node">
<title>plops.github.io</title>
<g id="a_node15"><a xlink:href="https://github.com/plops/plops.github.io" xlink:title="plops.github.io">
<ellipse fill="none" stroke="blue" cx="2420.67" cy="-18" rx="85.93" ry="18"/>
<text xml:space="preserve" text-anchor="middle" x="2420.67" y="-13.32" font-family="Times,serif" font-size="14.00">plops.github.io</text>
</a>
</g>
</g>
<!-- cl&#45;try&#45;websocket&#45;webrtc&#45;datachannel -->
<g id="node16" class="node">
<title>cl&#45;try&#45;websocket&#45;webrtc&#45;datachannel</title>
<g id="a_node16"><a xlink:href="https://github.com/plops/cl-try-websocket-webrtc-datachannel" xlink:title="cl&#45;try&#45;websocket&#45;webrtc&#45;datachannel">
<ellipse fill="none" stroke="blue" cx="2719.67" cy="-18" rx="195.36" ry="18"/>
<text xml:space="preserve" text-anchor="middle" x="2719.67" y="-13.32" font-family="Times,serif" font-size="14.00">cl&#45;try&#45;websocket&#45;webrtc&#45;datachannel</text>
</a>
</g>
</g>
<!-- cl&#45;try&#45;matrix&#45;js -->
<g id="node17" class="node">
<title>cl&#45;try&#45;matrix&#45;js</title>
<g id="a_node17"><a xlink:href="https://github.com/plops/cl-try-matrix-js" xlink:title="cl&#45;try&#45;matrix&#45;js">
<ellipse fill="none" stroke="blue" cx="3017.67" cy="-18" rx="84.88" ry="18"/>
<text xml:space="preserve" text-anchor="middle" x="3017.67" y="-13.32" font-family="Times,serif" font-size="14.00">cl&#45;try&#45;matrix&#45;js</text>
</a>
</g>
</g>
<!-- cl&#45;aframe -->
<g id="node18" class="node">
<title>cl&#45;aframe</title>
<g id="a_node18"><a xlink:href="https://github.com/plops/cl-aframe" xlink:title="cl&#45;aframe">
<ellipse fill="none" stroke="blue" cx="3178.67" cy="-18" rx="58.05" ry="18"/>
<text xml:space="preserve" text-anchor="middle" x="3178.67" y="-13.32" font-family="Times,serif" font-size="14.00">cl&#45;aframe</text>
</a>
</g>
</g>
<!-- hbbp -->
<g id="node19" class="node">
<title>hbbp</title>
<g id="a_node19"><a xlink:href="https://github.com/plops/hbbp" xlink:title="hbbp">
<ellipse fill="none" stroke="blue" cx="3291.67" cy="-18" rx="36.48" ry="18"/>
<text xml:space="preserve" text-anchor="middle" x="3291.67" y="-13.32" font-family="Times,serif" font-size="14.00">hbbp</text>
</a>
</g>
</g>
<!-- web&#45;net/web -->
<g id="node20" class="node">
<title>web&#45;net/web</title>
<ellipse fill="none" stroke="black" cx="109.67" cy="-90" rx="74.88" ry="18"/>
<text xml:space="preserve" text-anchor="middle" x="109.67" y="-85.33" font-family="Times,serif" font-size="14.00">web&#45;net/web</text>
</g>
<!-- web&#45;net/web&#45;&gt;plops&#45;pages -->
<g id="edge25" class="edge">
<title>web&#45;net/web&#45;&gt;plops&#45;pages</title>
<path fill="none" stroke="black" d="M100.03,-71.7C95.74,-63.98 90.57,-54.71 85.78,-46.11"/>
<polygon fill="black" stroke="black" points="88.86,-44.46 80.94,-37.43 82.75,-47.87 88.86,-44.46"/>
</g>
<!-- web&#45;net/rust -->
<g id="node21" class="node">
<title>web&#45;net/rust</title>
<ellipse fill="none" stroke="black" cx="355.67" cy="-90" rx="74.88" ry="18"/>
<text xml:space="preserve" text-anchor="middle" x="355.67" y="-85.33" font-family="Times,serif" font-size="14.00">web&#45;net/rust</text>
</g>
<!-- web&#45;net/rust&#45;&gt;mosh&#45;tcp -->
<g id="edge24" class="edge">
<title>web&#45;net/rust&#45;&gt;mosh&#45;tcp</title>
<path fill="none" stroke="black" d="M324.48,-73.29C304.26,-63.11 277.74,-49.75 256.07,-38.84"/>
<polygon fill="black" stroke="black" points="257.72,-35.75 247.22,-34.38 254.57,-42 257.72,-35.75"/>
</g>
<!-- web&#45;net/python -->
<g id="node22" class="node">
<title>web&#45;net/python</title>
<ellipse fill="none" stroke="black" cx="576.67" cy="-90" rx="89.09" ry="18"/>
<text xml:space="preserve" text-anchor="middle" x="576.67" y="-85.33" font-family="Times,serif" font-size="14.00">web&#45;net/python</text>
</g>
<!-- web&#45;net/python&#45;&gt;try_py_selenium -->
<g id="edge23" class="edge">
<title>web&#45;net/python&#45;&gt;try_py_selenium</title>
<path fill="none" stroke="black" d="M535.01,-73.81C506.4,-63.38 468.19,-49.45 437.45,-38.24"/>
<polygon fill="black" stroke="black" points="438.93,-35.06 428.34,-34.92 436.54,-41.63 438.93,-35.06"/>
</g>
<!-- web&#45;net/python&#45;&gt;cl_ctl_linkedin -->
<g id="edge22" class="edge">
<title>web&#45;net/python&#45;&gt;cl_ctl_linkedin</title>
<path fill="none" stroke="black" d="M576.67,-71.7C576.67,-64.41 576.67,-55.73 576.67,-47.54"/>
<polygon fill="black" stroke="black" points="580.17,-47.62 576.67,-37.62 573.17,-47.62 580.17,-47.62"/>
</g>
<!-- web&#45;net/lisp -->
<g id="node23" class="node">
<title>web&#45;net/lisp</title>
<ellipse fill="none" stroke="black" cx="1486.67" cy="-90" rx="72.25" ry="18"/>
<text xml:space="preserve" text-anchor="middle" x="1486.67" y="-85.33" font-family="Times,serif" font-size="14.00">web&#45;net/lisp</text>
</g>
<!-- web&#45;net/lisp&#45;&gt;sb&#45;httpd&#45;nonblock -->
<g id="edge21" class="edge">
<title>web&#45;net/lisp&#45;&gt;sb&#45;httpd&#45;nonblock</title>
<path fill="none" stroke="black" d="M1417.8,-84.37C1306.23,-76.54 1079.15,-59.24 887.67,-36 879.18,-34.97 870.33,-33.79 861.5,-32.53"/>
<polygon fill="black" stroke="black" points="862.26,-29.11 851.86,-31.13 861.25,-36.03 862.26,-29.11"/>
</g>
<!-- web&#45;net/lisp&#45;&gt;py_scrape_stuff -->
<g id="edge20" class="edge">
<title>web&#45;net/lisp&#45;&gt;py_scrape_stuff</title>
<path fill="none" stroke="black" d="M1422.35,-81.37C1342.7,-71.72 1202.97,-54.18 1083.67,-36 1076.53,-34.91 1069.11,-33.72 1061.68,-32.5"/>
<polygon fill="black" stroke="black" points="1062.39,-29.07 1051.94,-30.87 1061.23,-35.97 1062.39,-29.07"/>
</g>
<!-- web&#45;net/lisp&#45;&gt;py_scrape_leb -->
<g id="edge19" class="edge">
<title>web&#45;net/lisp&#45;&gt;py_scrape_leb</title>
<path fill="none" stroke="black" d="M1434.28,-77.28C1380.99,-65.36 1298.2,-46.85 1240.28,-33.9"/>
<polygon fill="black" stroke="black" points="1241.4,-30.56 1230.88,-31.79 1239.88,-37.39 1241.4,-30.56"/>
</g>
<!-- web&#45;net/lisp&#45;&gt;lisp&#45;http -->
<g id="edge18" class="edge">
<title>web&#45;net/lisp&#45;&gt;lisp&#45;http</title>
<path fill="none" stroke="black" d="M1451.96,-73.81C1427.48,-63.1 1394.57,-48.71 1368.63,-37.35"/>
<polygon fill="black" stroke="black" points="1370.29,-34.26 1359.72,-33.46 1367.48,-40.67 1370.29,-34.26"/>
</g>
<!-- web&#45;net/lisp&#45;&gt;http&#45;jq&#45;raw&#45;png -->
<g id="edge17" class="edge">
<title>web&#45;net/lisp&#45;&gt;http&#45;jq&#45;raw&#45;png</title>
<path fill="none" stroke="black" d="M1486.67,-71.7C1486.67,-64.41 1486.67,-55.73 1486.67,-47.54"/>
<polygon fill="black" stroke="black" points="1490.17,-47.62 1486.67,-37.62 1483.17,-47.62 1490.17,-47.62"/>
</g>
<!-- web&#45;net/lisp&#45;&gt;cl_ctl_colab -->
<g id="edge16" class="edge">
<title>web&#45;net/lisp&#45;&gt;cl_ctl_colab</title>
<path fill="none" stroke="black" d="M1523.79,-74.15C1550.3,-63.55 1586.17,-49.2 1614.68,-37.8"/>
<polygon fill="black" stroke="black" points="1615.82,-41.11 1623.81,-34.15 1613.22,-34.61 1615.82,-41.11"/>
</g>
<!-- web&#45;net/lisp&#45;&gt;cl&#45;web&#45;ui -->
<g id="edge15" class="edge">
<title>web&#45;net/lisp&#45;&gt;cl&#45;web&#45;ui</title>
<path fill="none" stroke="black" d="M1541.9,-78.19C1593.07,-67.98 1671.23,-51.9 1738.67,-36 1742.65,-35.06 1746.76,-34.06 1750.89,-33.03"/>
<polygon fill="black" stroke="black" points="1751.49,-36.49 1760.32,-30.64 1749.77,-29.71 1751.49,-36.49"/>
</g>
<!-- web&#45;net/lisp&#45;&gt;cl&#45;grab&#45;web -->
<g id="edge14" class="edge">
<title>web&#45;net/lisp&#45;&gt;cl&#45;grab&#45;web</title>
<path fill="none" stroke="black" d="M1551.11,-81.54C1627.23,-72.38 1757.58,-55.63 1868.67,-36 1874.23,-35.02 1879.99,-33.93 1885.75,-32.78"/>
<polygon fill="black" stroke="black" points="1886.21,-36.26 1895.3,-30.83 1884.81,-29.4 1886.21,-36.26"/>
</g>
<!-- web&#45;net/lisp&#45;&gt;cl&#45;gen&#45;cpp&#45;wasm -->
<g id="edge13" class="edge">
<title>web&#45;net/lisp&#45;&gt;cl&#45;gen&#45;cpp&#45;wasm</title>
<path fill="none" stroke="black" d="M1555.03,-83.74C1657.68,-75.52 1857.63,-58.22 2026.67,-36 2034.37,-34.99 2042.37,-33.84 2050.36,-32.63"/>
<polygon fill="black" stroke="black" points="2050.78,-36.11 2060.13,-31.11 2049.71,-29.19 2050.78,-36.11"/>
</g>
<!-- web&#45;net/lisp&#45;&gt;c_net -->
<g id="edge12" class="edge">
<title>web&#45;net/lisp&#45;&gt;c_net</title>
<path fill="none" stroke="black" d="M1557.8,-86.45C1718.42,-80.28 2105.1,-63.06 2232.67,-36 2235.5,-35.4 2238.38,-34.67 2241.26,-33.85"/>
<polygon fill="black" stroke="black" points="2242.3,-37.2 2250.77,-30.82 2240.18,-30.53 2242.3,-37.2"/>
</g>
<!-- web&#45;net/js -->
<g id="node24" class="node">
<title>web&#45;net/js</title>
<ellipse fill="none" stroke="black" cx="2719.67" cy="-90" rx="62.78" ry="18"/>
<text xml:space="preserve" text-anchor="middle" x="2719.67" y="-85.33" font-family="Times,serif" font-size="14.00">web&#45;net/js</text>
</g>
<!-- web&#45;net/js&#45;&gt;plops.github.io -->
<g id="edge11" class="edge">
<title>web&#45;net/js&#45;&gt;plops.github.io</title>
<path fill="none" stroke="black" d="M2672.3,-77.91C2622.43,-66.23 2543.54,-47.76 2487.39,-34.62"/>
<polygon fill="black" stroke="black" points="2488.49,-31.28 2477.95,-32.41 2486.89,-38.1 2488.49,-31.28"/>
</g>
<!-- web&#45;net/js&#45;&gt;cl&#45;try&#45;websocket&#45;webrtc&#45;datachannel -->
<g id="edge10" class="edge">
<title>web&#45;net/js&#45;&gt;cl&#45;try&#45;websocket&#45;webrtc&#45;datachannel</title>
<path fill="none" stroke="black" d="M2719.67,-71.7C2719.67,-64.41 2719.67,-55.73 2719.67,-47.54"/>
<polygon fill="black" stroke="black" points="2723.17,-47.62 2719.67,-37.62 2716.17,-47.62 2723.17,-47.62"/>
</g>
<!-- web&#45;net/js&#45;&gt;cl&#45;try&#45;matrix&#45;js -->
<g id="edge9" class="edge">
<title>web&#45;net/js&#45;&gt;cl&#45;try&#45;matrix&#45;js</title>
<path fill="none" stroke="black" d="M2767.22,-77.83C2816.88,-66.17 2895.16,-47.78 2950.98,-34.67"/>
<polygon fill="black" stroke="black" points="2951.78,-38.07 2960.71,-32.38 2950.18,-31.26 2951.78,-38.07"/>
</g>
<!-- web&#45;net/js&#45;&gt;cl&#45;aframe -->
<g id="edge8" class="edge">
<title>web&#45;net/js&#45;&gt;cl&#45;aframe</title>
<path fill="none" stroke="black" d="M2778.46,-83.17C2855.43,-75.05 2994.36,-58.74 3111.67,-36 3115.99,-35.16 3120.44,-34.22 3124.91,-33.21"/>
<polygon fill="black" stroke="black" points="3125.54,-36.66 3134.47,-30.96 3123.94,-29.84 3125.54,-36.66"/>
</g>
<!-- web&#45;net/c -->
<g id="node25" class="node">
<title>web&#45;net/c</title>
<ellipse fill="none" stroke="black" cx="3075.67" cy="-90" rx="59.63" ry="18"/>
<text xml:space="preserve" text-anchor="middle" x="3075.67" y="-85.33" font-family="Times,serif" font-size="14.00">web&#45;net/c</text>
</g>
<!-- web&#45;net/c&#45;&gt;hbbp -->
<g id="edge7" class="edge">
<title>web&#45;net/c&#45;&gt;hbbp</title>
<path fill="none" stroke="black" d="M3117.09,-76.74C3151.63,-66.36 3202.07,-50.84 3245.67,-36 3248.03,-35.2 3250.45,-34.36 3252.89,-33.5"/>
<polygon fill="black" stroke="black" points="3253.89,-36.85 3262.11,-30.17 3251.52,-30.27 3253.89,-36.85"/>
</g>
<!-- web&#45;net -->
<g id="node26" class="node">
<title>web&#45;net</title>
<ellipse fill="none" stroke="black" cx="1031.67" cy="-162" rx="51.21" ry="18"/>
<text xml:space="preserve" text-anchor="middle" x="1031.67" y="-157.32" font-family="Times,serif" font-size="14.00">web&#45;net</text>
</g>
<!-- web&#45;net&#45;&gt;web&#45;net/web -->
<g id="edge6" class="edge">
<title>web&#45;net&#45;&gt;web&#45;net/web</title>
<path fill="none" stroke="black" d="M981.38,-158.1C859.52,-150.95 538.82,-131.33 271.67,-108 244.19,-105.6 214.12,-102.56 187.44,-99.72"/>
<polygon fill="black" stroke="black" points="188.05,-96.26 177.73,-98.67 187.3,-103.22 188.05,-96.26"/>
</g>
<!-- web&#45;net&#45;&gt;web&#45;net/rust -->
<g id="edge5" class="edge">
<title>web&#45;net&#45;&gt;web&#45;net/rust</title>
<path fill="none" stroke="black" d="M982.03,-156.94C885.12,-148.87 664.03,-129.68 478.67,-108 462.76,-106.14 445.71,-103.92 429.53,-101.72"/>
<polygon fill="black" stroke="black" points="430.38,-98.3 420,-100.41 429.43,-105.24 430.38,-98.3"/>
</g>
<!-- web&#45;net&#45;&gt;web&#45;net/python -->
<g id="edge4" class="edge">
<title>web&#45;net&#45;&gt;web&#45;net/python</title>
<path fill="none" stroke="black" d="M985.54,-153.9C908.47,-142.05 752.6,-118.06 657.14,-103.38"/>
<polygon fill="black" stroke="black" points="657.72,-99.93 647.3,-101.87 656.66,-106.85 657.72,-99.93"/>
</g>
<!-- web&#45;net&#45;&gt;web&#45;net/lisp -->
<g id="edge3" class="edge">
<title>web&#45;net&#45;&gt;web&#45;net/lisp</title>
<path fill="none" stroke="black" d="M1077.81,-153.9C1157.37,-141.66 1320.93,-116.5 1415.29,-101.98"/>
<polygon fill="black" stroke="black" points="1415.6,-105.48 1424.95,-100.5 1414.53,-98.56 1415.6,-105.48"/>
</g>
<!-- web&#45;net&#45;&gt;web&#45;net/js -->
<g id="edge2" class="edge">
<title>web&#45;net&#45;&gt;web&#45;net/js</title>
<path fill="none" stroke="black" d="M1082.19,-158.91C1323.64,-148.89 2360.1,-105.91 2646.25,-94.05"/>
<polygon fill="black" stroke="black" points="2646.35,-97.54 2656.2,-93.63 2646.06,-90.55 2646.35,-97.54"/>
</g>
<!-- web&#45;net&#45;&gt;web&#45;net/c -->
<g id="edge1" class="edge">
<title>web&#45;net&#45;&gt;web&#45;net/c</title>
<path fill="none" stroke="black" d="M1082.81,-160.02C1293.62,-155.84 2116.01,-138.39 2791.67,-108 2865.11,-104.7 2949.15,-99.49 3006.64,-95.71"/>
<polygon fill="black" stroke="black" points="3006.52,-99.22 3016.26,-95.07 3006.05,-92.24 3006.52,-99.22"/>
</g>
</g>
</svg>
